<svg width="167" height="168" viewBox="0 0 167 168" fill="none" xmlns="http://www.w3.org/2000/svg">
<g clip-path="url(#clip0)">
<path d="M166.034 93.1611L163.058 49.7611C162.876 47.0276 161.634 44.4731 159.597 42.641C157.561 40.8089 154.889 39.8438 152.152 39.9512C149.414 40.0586 146.827 41.2298 144.94 43.2158C143.053 45.2018 142.015 47.8457 142.048 50.5851L142.399 85.9651L127.073 105.593C125.891 107.093 124.299 108.218 122.491 108.83C120.682 109.442 118.734 109.515 116.885 109.041L133.56 87.3871C134.97 85.5353 135.639 83.2235 135.434 80.9047C135.229 78.5858 134.166 76.4269 132.453 74.8511C131.524 74.0058 130.434 73.3574 129.248 72.9452C128.062 72.5331 126.805 72.3656 125.553 72.453C124.3 72.5404 123.079 72.8808 121.961 73.4537C120.844 74.0266 119.855 74.82 119.053 75.7861L93.8628 106.123C89.7059 111.134 87.4583 117.456 87.5188 123.966L87.9098 164.253C87.9177 165.024 88.2293 165.761 88.7771 166.304C89.3248 166.847 90.0645 167.152 90.8358 167.153L132.78 167.21C133.186 167.21 133.588 167.126 133.96 166.962C134.331 166.799 134.665 166.559 134.94 166.26C135.214 165.961 135.423 165.607 135.554 165.223C135.685 164.838 135.734 164.431 135.699 164.026L133.987 144.306L161.832 107.3C164.886 103.245 166.378 98.2259 166.034 93.1611ZM157.157 103.778L128.637 141.678C128.202 142.255 127.996 142.973 128.059 143.693L129.591 161.343L93.7448 161.294L93.3818 123.905C93.3347 118.783 95.1028 113.81 98.3728 109.868L123.563 79.5311C123.859 79.1748 124.224 78.8822 124.636 78.6709C125.048 78.4596 125.499 78.3341 125.961 78.3018C126.423 78.2696 126.887 78.3313 127.324 78.4833C127.762 78.6353 128.164 78.8743 128.507 79.1861C129.139 79.7675 129.532 80.5643 129.607 81.42C129.683 82.2758 129.436 83.1289 128.915 83.8121L109.993 108.385C109.747 108.704 109.57 109.069 109.472 109.459C109.374 109.849 109.357 110.256 109.423 110.652C109.488 111.049 109.635 111.428 109.853 111.766C110.072 112.104 110.358 112.393 110.693 112.615C113.985 114.779 117.969 115.628 121.857 114.996C125.746 114.364 129.256 112.296 131.693 109.201L147.649 88.7651C148.057 88.2423 148.276 87.5964 148.27 86.9331L147.909 50.5331C147.908 49.3289 148.373 48.171 149.207 47.3026C150.042 46.4342 151.18 45.9227 152.383 45.8755C153.586 45.8282 154.761 46.249 155.661 47.0493C156.561 47.8497 157.115 48.9675 157.209 50.1681L160.185 93.5681C160.434 97.2246 159.359 100.849 157.157 103.778V103.778Z" fill="#196846"/>
<path d="M47.0273 75.787C46.2254 74.8209 45.236 74.0273 44.1188 73.4543C43.0016 72.8814 41.7798 72.5409 40.5273 72.4535C39.2747 72.3661 38.0175 72.5336 36.8315 72.9459C35.6456 73.3581 34.5555 74.0066 33.6273 74.852C31.9137 76.4278 30.8503 78.5866 30.6453 80.9054C30.4404 83.2243 31.1087 85.5362 32.5193 87.388L49.1943 109.042C47.3446 109.516 45.3972 109.442 43.5886 108.83C41.78 108.218 40.1881 107.094 39.0063 105.594L23.6843 85.966L24.0353 50.586C24.0632 47.8497 23.0234 45.2103 21.1368 43.2281C19.2503 41.2459 16.6654 40.0771 13.931 39.9699C11.1966 39.8626 8.52813 40.8254 6.49208 42.6537C4.45603 44.482 3.21277 47.0319 3.02627 49.762L0.0532711 93.161C-0.293502 98.2258 1.19534 103.246 4.24727 107.303L32.0923 144.309L30.3803 164.029C30.3451 164.434 30.3944 164.841 30.5251 165.226C30.6558 165.61 30.865 165.964 31.1395 166.263C31.414 166.562 31.7477 166.801 32.1195 166.965C32.4913 167.129 32.8931 167.213 33.2993 167.213V167.213L75.2433 167.156C76.0145 167.155 76.7542 166.85 77.302 166.307C77.8497 165.764 78.1614 165.027 78.1693 164.256L78.5603 123.969C78.6207 117.459 76.3732 111.137 72.2163 106.126L47.0273 75.787ZM72.3383 161.299L36.4923 161.348L38.0243 143.698C38.0868 142.978 37.8809 142.26 37.4463 141.683L8.92627 103.783C6.72144 100.852 5.64582 97.2251 5.89627 93.566L8.87227 50.166C8.953 48.9903 9.47648 47.8889 10.3372 47.0839C11.1979 46.2788 12.3318 45.8301 13.5103 45.828C13.6249 45.828 13.7403 45.8324 13.8563 45.841C15.0366 45.9293 16.1392 46.4629 16.9407 47.3337C17.7423 48.2045 18.1829 49.3475 18.1733 50.531L17.8123 86.931C17.8057 87.5944 18.0247 88.2404 18.4333 88.763L34.3893 109.199C36.8268 112.294 40.3365 114.361 44.2248 114.993C48.113 115.626 52.097 114.776 55.3893 112.613C55.7243 112.39 56.0098 112.101 56.2283 111.764C56.4467 111.426 56.5933 111.047 56.659 110.65C56.7247 110.253 56.708 109.847 56.61 109.457C56.5119 109.067 56.3347 108.702 56.0893 108.383L37.1663 83.812C36.6458 83.1286 36.3992 82.2755 36.4748 81.4198C36.5505 80.5641 36.9429 79.7675 37.5753 79.186C37.9178 78.8742 38.32 78.635 38.7575 78.4829C39.1951 78.3309 39.6589 78.2691 40.121 78.3013C40.5831 78.3336 41.0339 78.4592 41.4461 78.6705C41.8583 78.8819 42.2234 79.1746 42.5193 79.531L67.7093 109.868C70.9809 113.811 72.7498 118.786 72.7023 123.91L72.3383 161.299Z" fill="#196846"/>
<path d="M140.45 32.974C140.45 26.4524 138.516 20.0773 134.892 14.6548C131.269 9.23231 126.119 5.00599 120.094 2.51029C114.069 0.0145919 107.439 -0.638403 101.043 0.633883C94.6466 1.90617 88.7712 5.04659 84.1597 9.65803L83.0457 10.773L81.9307 9.65803C78.8688 6.59594 75.2339 4.1669 71.2333 2.5096C67.2327 0.852304 62.9449 -0.000790783 58.6146 -0.000976532C54.2843 -0.00116228 49.9964 0.851565 45.9957 2.50852C41.995 4.16547 38.3598 6.5942 35.2977 9.65603C32.2356 12.7179 29.8065 16.3528 28.1492 20.3534C26.492 24.354 25.6389 28.6418 25.6387 32.9721C25.6385 37.3024 26.4912 41.5903 28.1482 45.591C29.8051 49.5917 32.2338 53.2269 35.2957 56.289L80.9697 101.963C81.5193 102.513 82.2648 102.821 83.0422 102.821C83.8195 102.821 84.565 102.513 85.1147 101.963L130.789 56.289C133.861 53.2347 136.296 49.6014 137.955 45.5993C139.613 41.5973 140.461 37.306 140.45 32.974V32.974ZM83.0497 95.747L39.4497 52.147C36.8792 49.6417 34.8318 46.6509 33.4263 43.3482C32.0207 40.0454 31.2849 36.4964 31.2615 32.9071C31.2382 29.3178 31.9278 25.7595 33.2904 22.4388C34.6529 19.118 36.6613 16.1009 39.1989 13.5624C41.7366 11.0238 44.7531 9.01447 48.0733 7.6508C51.3936 6.28713 54.9516 5.59631 58.541 5.61842C62.1303 5.64053 65.6795 6.37512 68.9828 7.77959C72.286 9.18406 75.2775 11.2304 77.7837 13.8L80.9707 16.987C81.2428 17.2592 81.5658 17.475 81.9213 17.6223C82.2768 17.7696 82.6579 17.8454 83.0427 17.8454C83.4275 17.8454 83.8085 17.7696 84.1641 17.6223C84.5196 17.475 84.8426 17.2592 85.1147 16.987L88.3007 13.8C90.8166 11.2744 93.8059 9.26966 97.0976 7.90066C100.389 6.53165 103.918 5.82523 107.483 5.82181C111.048 5.8184 114.579 6.51806 117.873 7.88076C121.168 9.24345 124.161 11.2424 126.681 13.7633C129.202 16.2841 131.201 19.2773 132.564 22.5716C133.926 25.8659 134.626 29.3965 134.622 32.9615C134.619 36.5264 133.912 40.0557 132.543 43.3473C131.174 46.6389 129.169 49.6282 126.644 52.144L83.0497 95.747Z" fill="#196846"/>
</g>
<defs>
<clipPath id="clip0">
<rect width="166.082" height="167.213" fill="white"/>
</clipPath>
</defs>
</svg>
