<svg xmlns="http://www.w3.org/2000/svg" width="52" height="66" viewBox="0 0 52 66"><g><g><path fill="#009e62" d="M26.344 9.224c1.134-3.87 2.99-7.3 5.84-9.128l1.233 1.928c-2.31 1.488-3.884 4.45-4.876 7.838a38.752 38.752 0 0 0-1.417 11.594 65.222 65.222 0 0 1 8.986-1.658c4.394-.44 8.73-.142 11.211 2.013 3.459 2.976 4.72 8.504 4.252 14.513a43.939 43.939 0 0 1-2.834 12.558 37.773 37.773 0 0 1-6.336 10.999c-3.416 3.94-7.555 6.392-12.133 6.095a9.312 9.312 0 0 1-3.245-.865 9.035 9.035 0 0 1-1.163-.624c-.373.233-.761.442-1.162.624a9.315 9.315 0 0 1-3.246.865c-4.578.297-8.73-2.155-12.132-6.095a37.46 37.46 0 0 1-6.336-10.999A44.419 44.419 0 0 1 .151 36.324c-.397-6.08.865-11.537 4.252-14.513 2.48-2.155 6.818-2.452 11.212-2.013a66.25 66.25 0 0 1 9.312 1.7c-.149-4.139.329-8.277 1.417-12.274zm-2.707 28.518s.595 5.485-.312 6.378c-.907.893-3.954.524-3.685-2.013.27-2.537 3.997-4.365 3.997-4.365zm5.244 0s3.742 1.828 4.011 4.365c.27 2.537-2.834 2.835-3.685 2.013-.85-.822-.326-6.378-.326-6.378zm-3.43-11.821a62.537 62.537 0 0 0-10.063-1.999c-3.416-.354-6.647-.24-8.107 1.007-2.367 2.055-3.204 6.25-2.835 11.112A39.771 39.771 0 0 0 7.04 47.38a33.479 33.479 0 0 0 5.584 9.766c2.594 3.004 5.67 4.875 8.745 4.663a5.312 5.312 0 0 0 1.786-.482 8.62 8.62 0 0 0 1.63-1.007l1.262-.95 1.247.95a8.75 8.75 0 0 0 1.644 1.007c.561.267 1.166.43 1.786.482 3.132.212 6.151-1.659 8.745-4.663a33.479 33.479 0 0 0 5.584-9.766 39.771 39.771 0 0 0 2.594-11.34c.326-4.86-.51-9.056-2.835-11.111-1.417-1.248-4.677-1.418-8.093-1.007a62.227 62.227 0 0 0-10.063 1.999l-.553.142-.553-.142z"/></g></g></svg>