<svg xmlns="http://www.w3.org/2000/svg" width="58" height="56" viewBox="0 0 58 56"><g><g><g><path fill="#009e62" d="M46.172 24.389c-1.574 0-2.862-.293-4.032-.928a13.255 13.255 0 0 0 1.653-4.313 1.417 1.417 0 0 0-1.124-1.66 1.414 1.414 0 0 0-1.661 1.124c-1.015 5.262-5.85 8.937-11.762 8.937-5.91 0-10.745-3.674-11.761-8.934a1.418 1.418 0 1 0-2.785.537 13.27 13.27 0 0 0 1.66 4.321c-1.133.645-2.352.915-4.04.915-4.855 0-8.806-3.95-8.806-8.807 0-4.856 3.95-8.805 8.807-8.805 1.946 0 3.788.62 5.331 1.796a1.417 1.417 0 0 0 2.055-.218c2.288-3.013 5.765-4.74 9.54-4.74 3.777 0 7.255 1.727 9.54 4.74a1.415 1.415 0 0 0 2.102.178 8.723 8.723 0 0 1 5.284-1.758c4.856 0 8.807 3.95 8.807 8.805 0 4.856-3.952 8.81-8.808 8.81zm-1.929 13.32H14.25L12.192 27.22c.043 0 .085.007.129.007 2.327 0 4.11-.454 5.757-1.475 2.703 2.882 6.685 4.634 11.168 4.634 4.488 0 8.475-1.755 11.179-4.646 1.679 1.003 3.535 1.486 5.747 1.486.044 0 .086-.006.13-.007zm-3.551 15.455h-22.89a3.318 3.318 0 0 1-3.315-3.313v-9.305h29.518v9.305a3.317 3.317 0 0 1-3.313 3.313zm17.124-37.582c0-6.42-5.223-11.643-11.644-11.643-2.143 0-4.19.57-5.994 1.658C37.377 2.52 33.462.777 29.246.777s-8.13 1.742-10.932 4.82a11.53 11.53 0 0 0-5.993-1.658C5.899 3.94.676 9.162.676 15.582c0 5.345 3.624 9.848 8.54 11.211l2.372 12.093c.04.208.062.422.062.637v10.328c0 3.39 2.76 6.15 6.15 6.15h22.89a6.157 6.157 0 0 0 6.151-6.15V39.523c0-.214.022-.43.061-.638l2.373-12.093c4.918-1.363 8.541-5.866 8.541-11.21z"/></g></g></g></svg>