<svg xmlns="http://www.w3.org/2000/svg" width="66" height="47" viewBox="0 0 66 47"><g><g><g><g><path fill="#009e62" d="M63.149 16.433a63.257 63.257 0 0 1-2.23 2.086h-9.278c-.36 0-.72.215-.863.503l-.144.288c-.575 1.079-3.596 6.4-6.113 8.702-3.309 2.95-6.257 4.1-6.257 4.1-.432.144-.72.575-.72 1.007v11.507h-2.733v-11.22c0-.575-.503-1.078-1.079-1.078-7.551 0-14.744-4.46-14.816-4.46a1.088 1.088 0 0 0-1.366.144l-5.898 6.042c-.216.216-.287.503-.287.791v9.781H8.632V31.68c1.941-1.654 4.603-5.538 3.092-10.428-.431-1.439-1.079-2.59-1.654-3.668-.791-1.51-1.438-2.733-1.438-4.172v-1.079c0-2.157 1.87-4.027 4.027-4.027h29.632c1.798 0 3.596-.504 4.82-.864l.43-.215 1.008-.935c.215-.216.36-.504.36-.791V3.63c0-.072 0-.216.143-.288.144-.144.431-.144.647 0l3.093 3.02zM50.49 44.698h-3.092l-4.82-12.37c.864-.576 1.799-1.223 2.806-2.086zm-27.186 0H20.57l-3.74-12.73 1.798-1.798c.575.288 1.366.72 2.445 1.223l-.216 3.308v.36zM64.73 14.85L55.093 5.43c1.51-1.295 3.597-1.798 5.538-1.295.576.144 1.151-.144 1.367-.791.144-.575-.144-1.15-.791-1.367-2.733-.719-5.538 0-7.624 1.87l-2.301-2.23a2.605 2.605 0 0 0-3.668 0 2.612 2.612 0 0 0-.792 1.87v1.367l-.431.432c-1.079.288-2.517.647-3.956.647H6.977c-3.524 0-6.4 2.877-6.4 6.401v15.464c0 .575.503 1.078 1.078 1.078.575 0 1.079-.503 1.079-1.078v-15.32c0-2.373 1.942-4.243 4.243-4.243H8.2c-.935 1.078-1.582 2.517-1.582 4.027v1.08c0 1.941.79 3.523 1.654 5.178a20.025 20.025 0 0 1 1.51 3.308c1.583 5.035-2.517 8.2-2.733 8.343a1.025 1.025 0 0 0-.431.863v14.6c0 .576.503 1.08 1.078 1.08h4.963c.576 0 1.079-.504 1.079-1.08V35.348l1.51-1.51 3.596 12.37c.144.432.576.792 1.007.792h4.891c.36 0 .647-.144.863-.432.216-.287.288-.647.216-.935l-2.733-10.86.144-2.373c2.589 1.006 5.97 2.013 9.565 2.157v11.364c0 .575.504 1.079 1.08 1.079h4.89c.575 0 1.079-.504 1.079-1.079V33.838c.216-.072.503-.288.863-.431l4.963 12.73c.143.431.575.719 1.006.719h5.323c.36 0 .719-.144.863-.432a1.01 1.01 0 0 0 .144-1.006L47.182 28.66c2.301-2.518 4.531-6.401 5.322-7.84h8.99c.288 0 .576-.144.72-.288 0 0 1.798-1.726 2.445-2.373.935-.935.72-2.23.072-3.308z"/></g></g><g><path fill="#009e62" d="M49.915 10.75a1.51 1.51 0 1 1 3.02 0 1.51 1.51 0 0 1-3.02 0z"/></g></g></g></svg>