<svg xmlns="http://www.w3.org/2000/svg" width="69" height="56" viewBox="0 0 69 56"><g><g><path fill="#009e62" d="M31.09 31.593h6.377v2.125H31.09zm-1.08 4.238H38.53c.579 0 1.048-.47 1.048-1.049V30.53c0-.58-.466-1.055-1.048-1.062h-8.505c-.587 0-1.062.476-1.062 1.062v4.253c0 .281.112.55.312.747.196.194.46.302.736.302zm18.074 4.252v-2.126H20.49v2.126zM23.141 5.06l1.16-2.126h19.955l1.161 2.126zm-.445 10.616l3.768-8.49h15.624l3.767 8.49zm-9.973 8.49l9.258-16.98h2.17l-7.559 16.98zm6.205 0l2.824-6.364H46.8l2.824 6.365zm33.045 0l-7.558-16.98h2.163l9.269 16.98zm-49.53 2.126H9.87v11.665H5.62v2.126h4.25V50.7h2.127V26.292h4.237V50.7h2.127l.013-24.408h31.822V50.7h2.125l.013-24.408h4.24V50.7h2.11l.03-10.617h4.208v-2.126h-4.201l.032-11.665h7.373v26.533a1.062 1.062 0 0 1-1.063 1.048H3.507a1.05 1.05 0 0 1-1.064-1.049zM65.064 56a3.174 3.174 0 0 0 3.175-3.175V25.229a9.553 9.553 0 0 0-9.553-9.553h-2.111v2.112h2.11a7.456 7.456 0 0 1 7.364 6.379H58.35L45.872 1.317a1.08 1.08 0 0 0-.936-.552h-21.26c-.385.001-.74.213-.922.552l-12.478 22.85H2.52a7.442 7.442 0 0 1 7.351-6.379h2.127v-2.112H9.87c-5.276 0-9.552 4.277-9.552 9.553v27.596A3.188 3.188 0 0 0 3.508 56z"/></g></g></svg>