<svg xmlns="http://www.w3.org/2000/svg" width="72" height="50" viewBox="0 0 72 50"><g><g><path fill="#009e62" d="M20.716 18.52c-2.75-5.258-.893-7.88.864-10.318 1.177-1.673 2.296-3.246.326-6.237L24.216.45c3.005 4.564 1.361 6.874-.382 9.34-1.262 1.786-2.608 3.7-.652 7.456L20.73 18.52zm-7.498 0c-2.75-5.258-.907-7.88.836-10.332 1.19-1.673 2.296-3.246.326-6.237L16.69.435c3.005 4.564 1.418 6.874-.368 9.34-1.262 1.786-2.622 3.7-.652 7.455l-2.452 1.276zm29.056 4.933a57.563 57.563 0 0 1 10.885-7.626 115.517 115.517 0 0 1 14.443-6.59l-2.835-3.884a50.673 50.673 0 0 0-15.407 8.32 59.732 59.732 0 0 0-9.61 9.78zm-5.67 0a64.606 64.606 0 0 1 11.212-11.736 53.548 53.548 0 0 1 17.008-9.029l.85-.27.539.738 4.252 5.953.964 1.332-1.545.567a114.55 114.55 0 0 0-15.591 7.002 59.185 59.185 0 0 0-8.263 5.443h23.684v7.838l-1.772.099a11.34 11.34 0 0 0-2.225.354 8.934 8.934 0 0 0-1.658.652c-.553.978-1.12 2.112-1.715 3.274-2.438 4.82-5.174 10.205-10.05 11.226V50H17.47v-3.104c-4.876-1.02-7.597-6.407-10.05-11.226-.58-1.162-1.147-2.296-1.714-3.274a8.217 8.217 0 0 0-1.659-.652 11.224 11.224 0 0 0-2.225-.354l-1.758-.1v-7.837h36.47zm.638 3.756H3.806v.61c.411.07.822.17 1.233.268 1.057.294 2.069.733 3.005 1.304l.397.241.241.397a50.075 50.075 0 0 1 2.084 3.912c2.253 4.437 4.79 9.44 8.504 9.355h1.927v2.948h27.327v-2.962h1.914c3.756.085 6.293-4.919 8.504-9.355a69.327 69.327 0 0 1 2.098-3.912l.226-.397.397-.24a11.737 11.737 0 0 1 3.02-1.305c.41-.099.807-.198 1.218-.269v-.652zm-9.156-8.689c-2.75-5.258-.893-7.88.836-10.332 1.19-1.673 2.296-3.246.326-6.237l2.31-1.516c3.005 4.564 1.418 6.874-.368 9.354a5.995 5.995 0 0 0-.652 7.456z"/></g></g></svg>