<svg xmlns="http://www.w3.org/2000/svg" width="69" height="69" viewBox="0 0 69 69"><g><g><g><g><path fill="#009e62" d="M47.909 37.71l-.073.072-12.487 12.415a1.36 1.36 0 0 1-1.888 0L21.047 37.782l-.073-.072c-3.194-3.195-3.194-8.494 0-11.689 3.195-3.194 8.422-3.194 11.689 0l.072.073.726.726c.29.29.654.435 1.017.435.363 0 .726-.145 1.016-.435l.653-.653.073-.073c3.194-3.194 8.422-3.194 11.689 0 3.194 3.122 3.194 8.349 0 11.616zm1.96-13.721c-4.211-4.211-11.108-4.356-15.464-.218-4.356-4.066-11.18-3.993-15.464.218-4.283 4.283-4.356 11.252-.072 15.608L31.5 52.23c.799.798 1.888 1.234 2.904 1.234 1.09 0 2.105-.436 2.904-1.234l12.487-12.487.073-.073a11.175 11.175 0 0 0 0-15.681z"/></g><g><path fill="#009e62" d="M34.405 9.106c.799 0 1.38-.654 1.38-1.38V1.41c0-.798-.654-1.38-1.38-1.38-.726 0-1.38.654-1.38 1.38v6.316c0 .799.581 1.38 1.38 1.38z"/></g><g><path fill="#009e62" d="M14.44 16.583c.29.29.654.436 1.017.436.363 0 .726-.145 1.016-.436.58-.58.58-1.452 0-1.96l-4.429-4.428c-.58-.581-1.452-.581-1.96 0-.58.58-.58 1.452 0 1.96z"/></g><g><path fill="#009e62" d="M7.616 33.136H1.3c-.799 0-1.38.653-1.38 1.38 0 .725.654 1.379 1.38 1.379h6.316c.799 0 1.38-.654 1.38-1.38 0-.726-.581-1.379-1.38-1.379z"/></g><g><path fill="#009e62" d="M14.44 52.447l-4.428 4.429c-.581.58-.581 1.452 0 1.96.29.29.653.436 1.016.436s.726-.145 1.016-.436l4.429-4.428c.58-.581.58-1.452 0-1.96a1.546 1.546 0 0 0-2.033 0z"/></g><g><path fill="#009e62" d="M34.405 59.925c-.799 0-1.38.654-1.38 1.38v6.316c0 .798.654 1.38 1.38 1.38.726 0 1.38-.654 1.38-1.38v-6.316c0-.799-.581-1.38-1.38-1.38z"/></g><g><path fill="#009e62" d="M54.37 52.447c-.58-.58-1.452-.58-1.96 0-.581.581-.581 1.452 0 1.96l4.428 4.43c.29.29.654.435 1.017.435.363 0 .726-.145 1.016-.436.58-.58.58-1.452 0-1.96z"/></g><g><path fill="#009e62" d="M67.51 33.136h-6.316c-.798 0-1.38.653-1.38 1.38 0 .725.654 1.379 1.38 1.379h6.316c.799 0 1.38-.654 1.38-1.38 0-.726-.654-1.379-1.38-1.379z"/></g><g><path fill="#009e62" d="M56.766 10.122l-4.429 4.429c-.58.58-.58 1.452 0 1.96.29.29.653.435 1.016.435s.726-.145 1.017-.435l4.428-4.429c.581-.58.581-1.452 0-1.96a1.546 1.546 0 0 0-2.032 0z"/></g></g></g></g></svg>