<svg xmlns="http://www.w3.org/2000/svg" width="50" height="69" viewBox="0 0 50 69"><g><g><path fill="#009e62" d="M27.827 31.135l.084-8.34h-2.816l-.53 3.887-.288-2.117c-.085-.675-.168-1.277-.24-1.781h-2.805l-.072 8.338h1.901v-5.51l.746 5.51h1.324l.806-5.619v5.632zm4.656 0v-1.673h-1.588v-1.83h1.348v-1.588h-1.275v-1.552h1.443V22.82h-3.61l-.012-.025-.071 8.34zm5.427.083l.073-8.338h-1.794v3.754l-1.203-3.767h-1.817l-.072 8.34h1.817v-3.791l1.095 3.802zm3.49.206l.106.001c.375 0 .747-.07 1.098-.207a1.89 1.89 0 0 0 .793-.6c.19-.226.318-.495.374-.783.06-.443.087-.89.084-1.335v-5.572l-.048-.048h-2.178l-.06 6.149c.031.263.031.53 0 .794 0 .108-.121.156-.265.156a.227.227 0 0 1-.229-.144 2.326 2.326 0 0 1 0-.698V22.88H38.91v6.787c.038.302.15.592.325.842.221.29.517.514.854.65.414.179.861.27 1.312.265zm1.336 3.982v-2.31l-21.455-.181v2.299zm-7.858 3.983v-2.31l-13.658-.12h-.012v2.31zm8.038.036v-2.31H39.09v2.31zm-17.953 4.38v-2.31h-3.827v2.31zm17.88.156v-2.31l-13.668-.12v2.31zm-.252 4.43v-2.239l-21.455-.193-.012-.072v2.31zm-.012 4.656v-2.31l-21.455-.181v2.31zM3.05 4.397l12.334 8.17-.457 51.321.036.085-12.358-8.195zM17.745 13h29v53h-29zM48.92 68.509v-1.732l.481-54.077v-1.733H47.67l-30.552-.277-.53.025L2.57 1.329.8.125v2.13L.32 56.332v.614l.517.349 15.812 10.95 30.54.264h1.732z"/></g></g></svg>