<svg xmlns="http://www.w3.org/2000/svg" width="99" height="93" viewBox="0 0 99 93"><g><g><path fill="#009e62" d="M83.532 14.163v-3.096H52.643v3.096zM64.99 20.338v-3.096H52.643v3.096zm-24.677 1.53v-4.626h.073a4.607 4.607 0 0 1 3.096-4.37v5.899a3.095 3.095 0 0 1-3.096 3.096zm-6.195-2.764a4.66 4.66 0 0 1 3.097 4.366h.002v4.572h-.002a3.096 3.096 0 0 1-3.097-3.076zm6.195 21.286v-4.624h.073a4.645 4.645 0 0 1 3.096-4.37v5.918a3.096 3.096 0 0 1-3.096 3.076zm-6.195-2.763a4.68 4.68 0 0 1 3.097 4.367h.002v4.627h-.002a3.098 3.098 0 0 1-3.097-3.079zm6.195 18.21v-12.35h.073a6.177 6.177 0 0 0 6.175-6.228v-9.217h-1.55a7.687 7.687 0 0 0-4.698 1.608v-4.684h.073a6.193 6.193 0 0 0 6.175-6.231V9.519h-1.55a7.683 7.683 0 0 0-4.698 1.608V6.423h-3.096v10.889a7.708 7.708 0 0 0-4.646-1.562h-1.548v9.216a6.212 6.212 0 0 0 6.192 6.172h.002v4.697a7.708 7.708 0 0 0-4.646-1.562h-1.548v9.213a6.192 6.192 0 0 0 6.192 6.176h.002v6.175zM27.947 62.01V3.346h61.76V40.39h3.096V.25H24.849v61.76zm48.975-28.226a8.597 8.597 0 0 1 6.5-2.499 8.582 8.582 0 0 1-2.512 6.496 8.58 8.58 0 0 1-6.5 2.498 8.59 8.59 0 0 1 2.512-6.495zm-34.987 56.02c-22.818 0-38.704-15.243-38.704-37.046 0-7.574 2.838-16.937 5.327-20.089h2.009c.588.517 2.027 2.137 2.027 6.193 0 24.53 14.596 41.69 35.516 41.69 6.783 0 16.587-3.3 19.684-4.405l.185.203C65.895 82.192 56.9 89.805 41.935 89.805zm23.17 3.097h33.873v-3.096h-10.37c6.305-4.664 10.37-14.115 10.37-24.755 0-6.08 0-16.273-8.664-19.96-8.146-3.486-13.21.85-16.032 3.927v-5.589c2.225-.226 6.342-.976 8.809-3.443 3.429-3.428 3.54-10.062 3.54-10.34v-1.583h-1.568c-.295 0-6.911.11-10.34 3.537-.154.153-.3.314-.44.48v-4.037h-3.1v20.993c-2.819-3.079-7.887-7.438-16.051-3.945-8.664 3.723-8.664 13.88-8.664 19.96 0 2.698.265 5.392.793 8.037l3.025-.607a37.481 37.481 0 0 1-.72-7.374c0-5.657 0-14.21 6.783-17.123 7.13-3.132 11.112 1.513 13.49 4.24 1.033 1.253 1.824 2.066 2.875 2.066 1.05 0 1.807-.813 2.894-2.067 2.433-2.726 6.358-7.279 13.491-4.239 6.783 2.913 6.783 11.466 6.783 17.123 0 12.736-5.77 21.084-11.502 23.683a9.488 9.488 0 0 1-10.652-1.695l-.996-.865-1.013.865a9.427 9.427 0 0 1-6.546 2.71h-7.45c7.996-3.52 12.34-9.32 13.352-13.51a1.557 1.557 0 0 0-.405-1.475l-1.551-1.548a1.546 1.546 0 0 0-1.62-.35c-.13.056-12.165 4.533-19.538 4.533-19.093 0-32.418-15.869-32.418-38.592 0-5.051-1.88-7.468-3.057-8.487l-.041-6.958c0-.856-.693-1.55-1.548-1.55H9.424a1.55 1.55 0 0 0-1.512 1.237l-1.434 7.242C3.196 34.074.152 44.719.152 52.758c0 17.35 9.754 31.154 24.74 37.047H.153V92.9h64.953z"/></g></g></svg>