<svg xmlns="http://www.w3.org/2000/svg" width="126" height="87" viewBox="0 0 126 87"><g><g><g><g><g><path fill="#009e62" d="M94.731 79.053c-4.36 0-7.905-3.546-7.905-7.906 0-4.36 3.546-7.905 7.905-7.905 4.36 0 7.906 3.546 7.906 7.905 0 4.36-3.546 7.906-7.906 7.906zm0-23.716c-8.718 0-15.81 7.092-15.81 15.81 0 8.719 7.092 15.811 15.81 15.811 8.72 0 15.811-7.092 15.811-15.81 0-8.719-7.092-15.811-15.81-15.811z"/></g></g></g><g><g><g><path fill="#009e62" d="M40.712 79.053c-4.36 0-7.905-3.546-7.905-7.906 0-4.36 3.545-7.905 7.905-7.905 4.359 0 7.905 3.546 7.905 7.905 0 4.36-3.545 7.906-7.905 7.906zm0-23.716c-8.718 0-15.81 7.092-15.81 15.81 0 8.719 7.092 15.811 15.81 15.811s15.81-7.092 15.81-15.81c0-8.719-7.092-15.811-15.81-15.811z"/></g></g></g><g><g><g><path fill="#009e62" d="M105.379 10.082a3.955 3.955 0 0 0-3.533-2.177H81.03v7.906h18.38l10.763 21.407 7.064-3.552z"/></g></g></g><g><g><g><path fill="#009e62" d="M52.965 75.232v-7.905h29.909v7.905z"/></g></g></g><g><g><g><path fill="#009e62" d="M28.854 67.327H15.152a3.952 3.952 0 1 0 0 7.905h13.702a3.952 3.952 0 1 0 0-7.905z"/></g></g></g><g><g><g><path fill="#009e62" d="M124.6 43.163l-7.774-10.014a3.947 3.947 0 0 0-3.122-1.528H84.982V3.953A3.952 3.952 0 0 0 81.029 0H15.152a3.952 3.952 0 1 0 0 7.905h61.924v27.668a3.952 3.952 0 0 0 3.953 3.953h30.74l5.756 7.415v20.385h-10.936a3.952 3.952 0 1 0 0 7.905h14.889a3.953 3.953 0 0 0 3.952-3.952V45.587c0-.877-.292-1.731-.83-2.424z"/></g></g></g><g><g><g><path fill="#009e62" d="M28.59 47.3H10.41a3.952 3.952 0 1 0 0 7.905H28.59a3.952 3.952 0 1 0 0-7.905z"/></g></g></g><g><g><g><path fill="#009e62" d="M37.682 31.753H3.952a3.952 3.952 0 1 0 0 7.905h33.73a3.952 3.952 0 1 0 0-7.905z"/></g></g></g><g><g><g><path fill="#009e62" d="M44.138 16.206h-33.73a3.952 3.952 0 1 0 0 7.905h33.73a3.952 3.952 0 1 0 0-7.905z"/></g></g></g></g></g></svg>