<svg xmlns="http://www.w3.org/2000/svg" width="102" height="115" viewBox="0 0 102 115"><g><g><g><g><path fill="#009e62" d="M94.83 59.58c-3.49 22.86-10.101 38.417-19.122 44.99-4.218 3.073-8.88 4.146-14.252 3.279-3.293-.531-5.894-1.872-7.952-4.1a3.433 3.433 0 0 0-5.042 0c-2.058 2.228-4.659 3.569-7.951 4.1-5.373.866-10.034-.206-14.253-3.28-9.02-6.572-15.632-22.13-19.12-44.99-1.919-12.567 6.426-24.388 18.6-26.352a21.924 21.924 0 0 1 3.495-.282c4.74 0 9.335 1.557 13.222 4.526 5.02 3.837 12.035 3.837 17.056 0 4.838-3.696 10.775-5.204 16.718-4.244 12.174 1.964 20.518 13.785 18.6 26.352zM40.152 8.49c2.84 1.965 6.692 5.328 8.483 9.995 1.78 4.638 1.164 9.736.37 13.11-2.84-1.965-6.691-5.328-8.483-9.995-1.78-4.638-1.164-9.736-.37-13.11zm37.17 17.96c-7.082-1.142-14.149.37-20.135 4.266 1.786-3.923 4.58-7.471 8.359-10.6 4.502-3.726 8.773-5.424 8.808-5.438a3.432 3.432 0 0 0-2.475-6.402c-.541.21-9.043 3.59-15.757 11.482a23.346 23.346 0 0 0-1.08-3.733C51.05 5.618 40.074.435 39.609.22a3.434 3.434 0 0 0-4.598 1.765c-.202.472-4.89 11.668-.895 22.075.36.938.777 1.833 1.238 2.686a28.476 28.476 0 0 0-10.708-.295C8.766 29.012-2.131 44.338.353 60.615 2.121 72.2 4.706 82.15 8.037 90.19c3.777 9.119 8.548 15.823 14.18 19.927 4.46 3.25 9.427 4.884 14.818 4.884 1.49 0 3.015-.125 4.57-.376 3.586-.578 6.727-1.893 9.379-3.919 2.651 2.026 5.793 3.34 9.379 3.919 7.17 1.157 13.694-.36 19.387-4.508 5.632-4.104 10.403-10.808 14.18-19.927 3.331-8.04 5.916-17.99 7.684-29.575 2.484-16.277-8.413-31.603-24.291-34.164z"/></g></g></g></g></svg>