<svg xmlns="http://www.w3.org/2000/svg" width="136" height="124" viewBox="0 0 136 124"><g><g><g><path fill="#009e62" d="M11.467 49.822c.856-1.926 2.089-3.243 4.135-3.304 3.852-.114 7.095-1.5 10.05-3.96 2.536-2.112 6.8-2.008 9.585.257 2.827 2.299 5.909 3.561 9.54 3.667 2.097.062 3.42 1.31 4.323 3.34zm39.997 5.413c-1.633 1.988-2.851 3.918-4.51 5.331-1.073.915-2.783 1.484-4.218 1.507-8.454.137-16.91.083-25.365.058-1.989-.006-3.706-.768-4.959-2.343-1.108-1.393-2.126-2.857-3.378-4.553zm-17.32 46.882zm0 0c-8.57-10.021-12.483-21.478-11.8-34.723h1.938c6.02.003 12.041-.016 18.062.015 4.36.022 7.761-1.767 10.346-5.239a510.99 510.99 0 0 1 5.697-7.48c.785-1.014 1.204-2.071.633-3.312-.59-1.281-1.713-1.593-2.987-1.47-.896.086-1.284-.28-1.62-1.106-1.857-4.549-4.957-7.441-10.159-7.675-2.83-.127-2.934-.32-7.794-3.96 8.4-8.025 18.36-12.358 30.083-13.267.034.666.082 1.19.082 1.714.004 14.278.017 28.557-.035 42.835-.003.736-.385 1.654-.903 2.176C55.559 80.83 45.386 90.99 35.218 101.157c-.308.308-.649.582-1.075.96zm81.873-28.628c.067.272.116.367.11.457-.833 11.17-5.004 20.9-12.675 29.077-1.56 1.663-3.357 3.103-5.025 4.668-1.21 1.136-1.336 2.58-.374 3.723.906 1.074 2.32 1.213 3.628.34.289-.192.558-.417.823-.643 12.02-10.241 18.388-23.232 18.955-39.03.11-3.074-.728-3.89-3.836-3.89-14.628-.002-29.257-.001-43.886-.001h-1.916v-2.073c0-14.676.003-29.352-.003-44.028 0-2.654-.865-3.542-3.477-3.462-14.452.442-26.767 5.788-36.85 16.172-.742.764-1.454 1.185-2.548 1.216-2.728.075-5.17 1.039-7.19 2.882-1.63 1.486-3.53 2.212-5.687 2.284-5.1.17-8.106 3.076-9.86 7.557-.349.888-.765 1.278-1.72 1.178-1.29-.134-2.348.269-2.97 1.514-.608 1.218-.1 2.198.604 3.165 1.552 2.131 3.15 4.233 4.615 6.423 2.392 3.576 5.487 5.988 9.898 6.414.127.013.24.149.401.254 0 .34.012.685-.002 1.03-.256 6.229.565 12.33 2.544 18.225 4.452 13.268 12.793 23.39 25.14 30.014 11.02 5.911 22.767 7.4 35.027 5.067 1.327-.253 2.178-.966 2.38-2.312.3-2.001-1.423-3.205-3.815-2.762-11.888 2.204-23.07.295-33.439-5.941-2.432-1.463-4.65-3.279-7.014-4.966.374-.443.49-.603.63-.741 10.34-10.343 20.671-20.696 31.055-30.995.51-.507 1.475-.78 2.229-.782 14.23-.046 28.46-.034 42.691-.034h1.557z"/><path fill="none" stroke="#009e62" stroke-miterlimit="20" stroke-width="2" d="M11.467 49.822c.856-1.926 2.089-3.243 4.135-3.304 3.852-.114 7.095-1.5 10.05-3.96 2.536-2.112 6.8-2.008 9.585.257 2.827 2.299 5.909 3.561 9.54 3.667 2.097.062 3.42 1.31 4.323 3.34zm39.997 5.413c-1.633 1.988-2.851 3.918-4.51 5.331-1.073.915-2.783 1.484-4.218 1.507-8.454.137-16.91.083-25.365.058-1.989-.006-3.706-.768-4.959-2.343-1.108-1.393-2.126-2.857-3.378-4.553zm-17.32 46.882s0 0 0 0 0 0 0 0zm0 0c-8.57-10.021-12.483-21.478-11.8-34.723h1.938c6.02.003 12.041-.016 18.062.015 4.36.022 7.761-1.767 10.346-5.239a510.99 510.99 0 0 1 5.697-7.48c.785-1.014 1.204-2.071.633-3.312-.59-1.281-1.713-1.593-2.987-1.47-.896.086-1.284-.28-1.62-1.106-1.857-4.549-4.957-7.441-10.159-7.675-2.83-.127-2.934-.32-7.794-3.96 8.4-8.025 18.36-12.358 30.083-13.267.034.666.082 1.19.082 1.714.004 14.278.017 28.557-.035 42.835-.003.736-.385 1.654-.903 2.176C55.559 80.83 45.386 90.99 35.218 101.157c-.308.308-.649.582-1.075.96zm81.873-28.628c.067.272.116.367.11.457-.833 11.17-5.004 20.9-12.675 29.077-1.56 1.663-3.357 3.103-5.025 4.668-1.21 1.136-1.336 2.58-.374 3.723.906 1.074 2.32 1.213 3.628.34.289-.192.558-.417.823-.643 12.02-10.241 18.388-23.232 18.955-39.03.11-3.074-.728-3.89-3.836-3.89-14.628-.002-29.257-.001-43.886-.001h-1.916v-2.073c0-14.676.003-29.352-.003-44.028 0-2.654-.865-3.542-3.477-3.462-14.452.442-26.767 5.788-36.85 16.172-.742.764-1.454 1.185-2.548 1.216-2.728.075-5.17 1.039-7.19 2.882-1.63 1.486-3.53 2.212-5.687 2.284-5.1.17-8.106 3.076-9.86 7.557-.349.888-.765 1.278-1.72 1.178-1.29-.134-2.348.269-2.97 1.514-.608 1.218-.1 2.198.604 3.165 1.552 2.131 3.15 4.233 4.615 6.423 2.392 3.576 5.487 5.988 9.898 6.414.127.013.24.149.401.254 0 .34.012.685-.002 1.03-.256 6.229.565 12.33 2.544 18.225 4.452 13.268 12.793 23.39 25.14 30.014 11.02 5.911 22.767 7.4 35.027 5.067 1.327-.253 2.178-.966 2.38-2.312.3-2.001-1.423-3.205-3.815-2.762-11.888 2.204-23.07.295-33.439-5.941-2.432-1.463-4.65-3.279-7.014-4.966.374-.443.49-.603.63-.741 10.34-10.343 20.671-20.696 31.055-30.995.51-.507 1.475-.78 2.229-.782 14.23-.046 28.46-.034 42.691-.034h1.557z"/></g><g><path fill="#009e62" d="M85.551 55.008V10.813c10.896.654 20.375 4.67 28.538 11.871 10.317 9.103 15.446 22.43 15.417 32.324zm22.04 5.32c8.01 0 16.02.007 24.03-.005 2.482-.003 3.46-.974 3.36-3.458a71.108 71.108 0 0 0-.51-6.238C131.185 25.34 109.308 5.828 83.878 5.473c-2.914-.04-3.758.777-3.758 3.67-.002 15.817-.002 31.635 0 47.452 0 2.885.846 3.73 3.742 3.732 7.91.004 15.82.001 23.73.001z"/><path fill="none" stroke="#009e62" stroke-miterlimit="20" stroke-width="2" d="M85.551 55.008V10.813c10.896.654 20.375 4.67 28.538 11.871 10.317 9.103 15.446 22.43 15.417 32.324zm22.04 5.32c8.01 0 16.02.007 24.03-.005 2.482-.003 3.46-.974 3.36-3.458a71.108 71.108 0 0 0-.51-6.238C131.185 25.34 109.308 5.828 83.878 5.473c-2.914-.04-3.758.777-3.758 3.67-.002 15.817-.002 31.635 0 47.452 0 2.885.846 3.73 3.742 3.732 7.91.004 15.82.001 23.73.001z"/></g><g><path fill="#009e62" d="M13.743 10.412c.091-2.49.696-4.82 2.018-6.926.997-1.587 2.423-2.004 3.779-1.194 1.352.808 1.647 2.277.724 3.876-1.629 2.816-1.822 5.579.063 8.389.907 1.35.58 2.828-.63 3.668-1.192.826-2.7.56-3.663-.73-1.567-2.096-2.254-4.493-2.291-7.083z"/><path fill="none" stroke="#009e62" stroke-miterlimit="20" stroke-width="2" d="M13.743 10.412c.091-2.49.696-4.82 2.018-6.926.997-1.587 2.423-2.004 3.779-1.194 1.352.808 1.647 2.277.724 3.876-1.629 2.816-1.822 5.579.063 8.389.907 1.35.58 2.828-.63 3.668-1.192.826-2.7.56-3.663-.73-1.567-2.096-2.254-4.493-2.291-7.083z"/></g><g><path fill="#009e62" d="M32.32 21.623c-.067 2.59-.711 4.944-2.258 7.001-.98 1.303-2.415 1.589-3.65.76-1.154-.773-1.568-2.287-.725-3.542 1.992-2.965 1.758-5.833.001-8.786-.828-1.39-.418-2.911.814-3.634 1.245-.73 2.74-.368 3.633.94 1.504 2.198 2.11 4.674 2.185 7.26z"/><path fill="none" stroke="#009e62" stroke-miterlimit="20" stroke-width="2" d="M32.32 21.623c-.067 2.59-.711 4.944-2.258 7.001-.98 1.303-2.415 1.589-3.65.76-1.154-.773-1.568-2.287-.725-3.542 1.992-2.965 1.758-5.833.001-8.786-.828-1.39-.418-2.911.814-3.634 1.245-.73 2.74-.368 3.633.94 1.504 2.198 2.11 4.674 2.185 7.26z"/></g></g></g></svg>