<svg xmlns="http://www.w3.org/2000/svg" width="122" height="122" viewBox="0 0 122 122"><g><g><g><g><g><path fill="#009e62" d="M82.143 51.553a6.268 6.268 0 0 1-4.101 4.723 1.976 1.976 0 0 0-1.28 1.939l1.503 33.37a2.287 2.287 0 0 1-.593 1.79 3.054 3.054 0 0 1-4.297 0 2.373 2.373 0 0 1-.582-1.921l1.49-33.24a1.976 1.976 0 0 0-1.278-1.938 6.268 6.268 0 0 1-4.102-4.723 19.493 19.493 0 0 1 .544-9.026l1.269-4.178a5.126 5.126 0 0 1 9.615 0l1.269 4.178a19.52 19.52 0 0 1 .543 9.026zm3.24-10.184l-1.269-4.177a9.073 9.073 0 0 0-17.182 0l-1.269 4.177a23.462 23.462 0 0 0-.654 10.872 10.226 10.226 0 0 0 5.266 7.126L68.854 91.14a6.26 6.26 0 0 0 1.581 4.867 6.905 6.905 0 0 0 10.192 0 6.176 6.176 0 0 0 1.582-4.734l-1.43-31.909a10.224 10.224 0 0 0 5.259-7.122c.637-3.625.413-7.35-.655-10.872z"/><path fill="none" stroke="#009e62" stroke-miterlimit="20" d="M82.143 51.553a6.268 6.268 0 0 1-4.101 4.723 1.976 1.976 0 0 0-1.28 1.939l1.503 33.37a2.287 2.287 0 0 1-.593 1.79 3.054 3.054 0 0 1-4.297 0 2.373 2.373 0 0 1-.582-1.921l1.49-33.24a1.976 1.976 0 0 0-1.278-1.938 6.268 6.268 0 0 1-4.102-4.723 19.493 19.493 0 0 1 .544-9.026l1.269-4.178a5.126 5.126 0 0 1 9.615 0l1.269 4.178a19.52 19.52 0 0 1 .543 9.026zm3.24-10.184l-1.269-4.177a9.073 9.073 0 0 0-17.182 0l-1.269 4.177a23.462 23.462 0 0 0-.654 10.872 10.226 10.226 0 0 0 5.266 7.126L68.854 91.14a6.26 6.26 0 0 0 1.581 4.867 6.905 6.905 0 0 0 10.192 0 6.176 6.176 0 0 0 1.582-4.734l-1.43-31.909a10.224 10.224 0 0 0 5.259-7.122c.637-3.625.413-7.35-.655-10.872z"/></g></g></g><g><g><g><path fill="#009e62" d="M54.767 31.047a1.977 1.977 0 0 0-1.976 1.976v16.973l-5.351 5.35a1.977 1.977 0 0 0-.58 1.497l1.73 34.593a2.693 2.693 0 0 1-.747 2.014 2.783 2.783 0 0 1-3.936.018l-.017-.018a2.692 2.692 0 0 1-.748-2.014l1.742-34.593a1.977 1.977 0 0 0-.577-1.496l-5.353-5.351V33.023a1.977 1.977 0 0 0-3.954 0v17.791c0 .524.209 1.027.58 1.398l5.309 5.311-1.686 33.721a6.678 6.678 0 1 0 13.339 0l-1.686-33.72 5.31-5.312c.37-.37.578-.873.578-1.398v-17.79a1.977 1.977 0 0 0-1.977-1.977z"/><path fill="none" stroke="#009e62" stroke-miterlimit="20" d="M54.767 31.047a1.977 1.977 0 0 0-1.976 1.976v16.973l-5.351 5.35a1.977 1.977 0 0 0-.58 1.497l1.73 34.593a2.693 2.693 0 0 1-.747 2.014 2.783 2.783 0 0 1-3.936.018l-.017-.018a2.692 2.692 0 0 1-.748-2.014l1.742-34.593a1.977 1.977 0 0 0-.577-1.496l-5.353-5.351v0-16.973a1.977 1.977 0 0 0-3.954 0v17.791c0 .524.209 1.027.58 1.398l5.309 5.311v0l-1.686 33.721a6.678 6.678 0 1 0 13.339 0l-1.686-33.72v0l5.31-5.312c.37-.37.578-.873.578-1.398v-17.79a1.977 1.977 0 0 0-1.977-1.977z"/></g></g></g><g><g><g><path fill="#009e62" d="M42.907 31.047a1.977 1.977 0 0 0-1.977 1.976v15.814a1.977 1.977 0 0 0 3.954 0V33.023a1.977 1.977 0 0 0-1.977-1.976z"/><path fill="none" stroke="#009e62" stroke-miterlimit="20" d="M42.907 31.047a1.977 1.977 0 0 0-1.977 1.976v15.814a1.977 1.977 0 0 0 3.954 0V33.023a1.977 1.977 0 0 0-1.977-1.976z"/></g></g></g><g><g><g><path fill="#009e62" d="M48.837 31.047a1.977 1.977 0 0 0-1.976 1.976v15.814a1.977 1.977 0 0 0 3.953 0V33.023a1.977 1.977 0 0 0-1.977-1.976z"/><path fill="none" stroke="#009e62" stroke-miterlimit="20" d="M48.837 31.047a1.977 1.977 0 0 0-1.976 1.976v15.814a1.977 1.977 0 0 0 3.953 0V33.023a1.977 1.977 0 0 0-1.977-1.976z"/></g></g></g><g><g><g><path fill="#009e62" d="M60.698 116.046c-30.569 0-55.349-24.78-55.349-55.348 0-30.569 24.78-55.349 55.349-55.349 30.568 0 55.348 24.78 55.348 55.349-.034 30.553-24.795 55.314-55.348 55.348zm0-114.65c-32.752 0-59.302 26.55-59.302 59.302C1.396 93.449 27.946 120 60.698 120 93.449 120 120 93.45 120 60.698 119.963 27.96 93.434 1.433 60.698 1.396z"/><path fill="none" stroke="#009e62" stroke-miterlimit="20" stroke-width="3" d="M60.698 116.046c-30.569 0-55.349-24.78-55.349-55.348 0-30.569 24.78-55.349 55.349-55.349 30.568 0 55.348 24.78 55.348 55.349-.034 30.553-24.795 55.314-55.348 55.348zm0-114.65c-32.752 0-59.302 26.55-59.302 59.302C1.396 93.449 27.946 120 60.698 120 93.449 120 120 93.45 120 60.698 119.963 27.96 93.434 1.433 60.698 1.396z"/></g></g></g><g><g><g><path fill="#009e62" d="M67.114 97.804a1.977 1.977 0 0 0-2.235-1.766l.007-.002a36.314 36.314 0 0 1-8.377 0 1.977 1.977 0 1 0-.46 3.927c3.086.36 6.204.36 9.29 0a1.977 1.977 0 0 0 1.775-2.159z"/><path fill="none" stroke="#009e62" stroke-miterlimit="20" stroke-width="2" d="M67.114 97.804a1.977 1.977 0 0 0-2.235-1.766l.007-.002a36.314 36.314 0 0 1-8.377 0 1.977 1.977 0 1 0-.46 3.927c3.086.36 6.204.36 9.29 0a1.977 1.977 0 0 0 1.775-2.159z"/></g></g></g><g><g><g><path fill="#009e62" d="M90.942 35.225a1.976 1.976 0 0 0-2.785-.244l-.008.007a1.977 1.977 0 0 0-.237 2.785c11.918 14.149 11.006 35.07-2.098 48.128a1.977 1.977 0 0 0 2.791 2.801c14.563-14.507 15.579-37.754 2.337-53.477z"/><path fill="none" stroke="#009e62" stroke-miterlimit="20" stroke-width="2" d="M90.942 35.225a1.976 1.976 0 0 0-2.785-.244l-.008.007a1.977 1.977 0 0 0-.237 2.785c11.918 14.149 11.006 35.07-2.098 48.128a1.977 1.977 0 0 0 2.791 2.801c14.563-14.507 15.579-37.754 2.337-53.477z"/></g></g></g><g><g><g><g><path fill="#009e62" d="M47.452 27.524h-.01z"/><path fill="none" stroke="#009e62" stroke-miterlimit="20" stroke-width="2" d="M47.452 27.524h-.01z"/></g><g><path fill="#009e62" d="M70.022 22.268a39.885 39.885 0 0 0-23.268 1.43 1.977 1.977 0 0 0 .694 3.826 1.98 1.98 0 0 0 .691-.128 35.91 35.91 0 0 1 20.954-1.285 1.977 1.977 0 1 0 .929-3.843z"/><path fill="none" stroke="#009e62" stroke-miterlimit="20" stroke-width="2" d="M70.022 22.268a39.885 39.885 0 0 0-23.268 1.43 1.977 1.977 0 0 0 .694 3.826 1.98 1.98 0 0 0 .691-.128 35.91 35.91 0 0 1 20.954-1.285 1.977 1.977 0 1 0 .929-3.843z"/></g></g></g></g><g><g><g><path fill="#009e62" d="M35.492 85.802a35.352 35.352 0 0 1-10.376-25.104 35.319 35.319 0 0 1 6.802-20.93 1.977 1.977 0 1 0-3.194-2.329c-11.429 15.712-9.747 37.4 3.967 51.162a1.98 1.98 0 0 0 2.801-2.799z"/><path fill="none" stroke="#009e62" stroke-miterlimit="20" stroke-width="2" d="M35.492 85.802a35.352 35.352 0 0 1-10.376-25.104 35.319 35.319 0 0 1 6.802-20.93 1.977 1.977 0 1 0-3.194-2.329c-11.429 15.712-9.747 37.4 3.967 51.162a1.98 1.98 0 0 0 2.801-2.799z"/></g></g></g></g></g></svg>