<svg xmlns="http://www.w3.org/2000/svg" width="86" height="38" viewBox="0 0 86 38"><g><g><g><path d="M18.013 7.925c.922.071 3.617.355 5.248 2.908-.142.07-3.191 1.843-3.12 5.53 0 4.397 3.829 5.815 3.9 5.886 0 .071-.568 2.057-1.986 4.113-1.205 1.844-2.482 3.546-4.467 3.617-1.986.07-2.624-1.135-4.822-1.135s-2.908 1.135-4.751 1.206c-1.915.07-3.404-1.915-4.61-3.688C.854 22.746-.99 16.151 1.563 11.684c1.276-2.27 3.545-3.617 6.027-3.688 1.915 0 3.688 1.277 4.822 1.277 1.135 0 3.191-1.49 5.602-1.348zm-1.489-2.41C15.46 6.79 13.83 7.712 12.128 7.5c-.213-1.631.638-3.404 1.56-4.468C14.75 1.827 16.524.905 18.013.834c.213 1.702-.496 3.404-1.489 4.68z"/></g><g><g><path d="M69.07 36.999c.354.07 1.347.07 1.63.142 4.042 0 5.957-1.49 7.659-6.24l7.303-20.636h-4.254L76.444 26.22h-.071l-4.964-15.955h-4.325l7.09 19.572s-.354 1.134-.354 1.205c-.638 1.986-1.63 2.766-3.474 2.766-.284 0-.993 0-1.277-.071v3.262zm-12.623-10.07c-2.127 0-3.546-1.134-3.546-2.836s1.348-2.766 3.759-2.907l4.822-.284v1.56c0 2.553-2.199 4.467-5.035 4.467zm-7.658-2.694c0 3.475 2.694 5.885 6.665 5.885 2.553 0 5.035-1.347 6.17-3.545h.07v3.19h3.83V16.294c0-3.971-3.05-6.453-7.8-6.453-4.823 0-7.872 2.624-8.084 6.17h3.829c.354-1.703 1.773-2.837 4.113-2.837 2.41 0 3.9 1.276 3.9 3.474v1.49l-5.39.283c-4.68.284-7.303 2.411-7.303 5.815zm-15.884-7.162V6.436h4.822c3.616 0 5.672 1.915 5.672 5.319 0 3.332-2.056 5.318-5.672 5.318zM28.792 2.89v26.804h4.183v-9.148h5.744c5.319 0 9.006-3.616 9.006-8.863 0-5.177-3.616-8.793-8.864-8.793z"/></g></g></g></g></svg>