<svg xmlns="http://www.w3.org/2000/svg" width="57" height="51" viewBox="0 0 57 51"><defs><linearGradient id="c3l9a" x1="28.62" x2="28.62" y1=".13" y2="51.12" gradientUnits="userSpaceOnUse"><stop offset="0" stop-color="#e9d08c"/><stop offset="1" stop-color="#987531"/></linearGradient><linearGradient id="c3l9b" x1="28.21" x2="28.21" y1="15.72" y2="34.7" gradientUnits="userSpaceOnUse"><stop offset="0" stop-color="#e9d08c"/><stop offset="1" stop-color="#987531"/></linearGradient><linearGradient id="c3l9c" x1="28.21" x2="28.21" y1="37.18" y2="41.3" gradientUnits="userSpaceOnUse"><stop offset="0" stop-color="#e9d08c"/><stop offset="1" stop-color="#987531"/></linearGradient></defs><g><g><g><g><path fill="url(#c3l9a)" d="M5.517 40.232L24.66 6.567c.825-1.402 2.31-2.31 3.96-2.31s3.136.825 3.96 2.31l19.143 33.665a4.47 4.47 0 0 1 0 4.538c-.825 1.403-2.31 2.228-3.96 2.228H9.478c-1.65 0-3.136-.825-3.96-2.228a4.47 4.47 0 0 1 0-4.538zm3.96 10.891h38.368c3.136 0 5.94-1.65 7.509-4.29 1.567-2.723 1.567-5.941 0-8.664L36.129 4.505C34.56 1.782 31.756.132 28.62.132c-3.135 0-5.94 1.65-7.508 4.373L1.887 38.169c-1.568 2.723-1.568 5.94 0 8.664 1.65 2.723 4.455 4.29 7.59 4.29z"/></g><g><path fill="url(#c3l9b)" d="M26.145 34.704V15.726h4.125v18.978z"/></g><g><path fill="url(#c3l9c)" d="M26.145 41.304V37.18h4.125v4.125z"/></g></g></g></g></svg>