<svg xmlns="http://www.w3.org/2000/svg" width="116" height="99" viewBox="0 0 116 99"><g><g><g><path fill="#d9d9d9" d="M73.07 54.847c-.598 0-1.196-.03-1.79.01-.497.034-.606-.164-.603-.625.018-2.962.009-5.924.009-8.886v-3.248h10.493l-1.622 12.749H73.07zM64.165 42.08v12.706c-.172.02-.335.057-.497.057-2.598.004-5.195-.001-7.792.01-.372.001-.582-.063-.635-.497-.49-3.992-1.001-7.982-1.504-11.972-.01-.081-.002-.164-.002-.304zm35.567.024c-.421 1.257-.825 2.466-1.232 3.673-.945 2.807-1.903 5.609-2.826 8.422-.157.48-.357.667-.89.66-2.664-.03-5.329-.012-7.994-.011h-.723c.103-.87.193-1.663.293-2.456.415-3.277.84-6.552 1.243-9.83.044-.352.12-.532.526-.53 3.773.012 7.546.008 11.32.011.06 0 .121.026.283.061zM82.02 35.53H70.741V23.064h12.848L82.02 35.53zM64.18 23.055c.013.21.038.412.038.615-.001 3.749-.014 7.499.002 11.248.002.501-.137.654-.646.651-3.366-.021-6.732-.02-10.098 0-.458.002-.621-.125-.678-.588-.47-3.847-.966-7.69-1.453-11.535-.013-.104-.002-.211-.002-.39zM47.213 42.087l1.618 12.7c-.225.025-.386.058-.547.058-3.323.002-6.645-.003-9.967.006-.357 0-.58-.056-.695-.459-1.145-3.988-2.31-7.97-3.467-11.956-.029-.098-.032-.204-.053-.349zm58.693-18.214c-1.257 3.711-2.521 7.42-3.765 11.135-.135.403-.308.567-.76.565-4.09-.02-8.182-.013-12.274-.017-.166 0-.333-.023-.587-.043.142-1.189.272-2.343.418-3.496.354-2.81.72-5.618 1.07-8.43.044-.355.1-.576.555-.574 5.093.016 10.186.01 15.28.013.082 0 .165.023.312.045-.087.282-.162.544-.25.802zm-61.114-.823l1.57 12.477c-.289.014-.495.033-.702.033-4.304 0-8.609-.004-12.913.003-.373 0-.62-.033-.747-.478-1.107-3.89-2.241-7.774-3.367-11.66-.028-.1-.05-.201-.092-.375zm70.456-3.862c-.42-.652-.756-1.382-1.28-1.934-.632-.667-1.546-.725-2.443-.725-9.378.008-18.756.007-28.134.007-18.65 0-37.3-.004-55.95.015-.635 0-.86-.207-1.027-.795-1.19-4.2-2.459-8.377-3.618-12.586C22.374 1.636 21.628.507 20.08 0H2.683C1.424.447.57 1.298.124 2.558v1.28c.866 2.109 1.68 2.651 3.977 2.65 4.05 0 8.1.012 12.15-.015.572-.004.796.162.956.718 3.223 11.194 6.466 22.383 9.712 33.57 3.24 11.169 6.486 22.335 9.73 33.503.523 1.804 1.622 2.642 3.5 2.646 2.324.005 4.648 0 6.971 0 17.757 0 35.513.003 53.27-.003.464 0 .948-.017 1.388-.146a3.226 3.226 0 0 0 2.313-3.474c-.187-1.578-1.52-2.802-3.193-2.852-1.47-.043-2.94-.012-4.412-.012l-30.246-.001c-7.78-.001-15.56-.009-23.34 0-.452.001-.677-.112-.807-.578-.737-2.624-1.51-5.238-2.27-7.856-.055-.194-.096-.391-.165-.673h1.048l53.59.005c1.598 0 3.197.03 4.795-.009 2.417-.059 3.89-2.446 2.921-4.64a1.44 1.44 0 0 1-.036-.95c1.043-3.154 2.118-6.298 3.183-9.446 2.58-7.627 5.158-15.255 7.744-22.88.078-.23.184-.548.364-.629 1.03-.463 1.573-1.317 1.982-2.3z"/></g><g><path fill="#d9d9d9" d="M51.045 98.5c-4.776.013-8.857-3.91-8.86-8.52-.004-4.85 3.877-8.896 8.534-8.895 4.878 0 8.855 3.904 8.87 8.706.013 4.638-3.968 8.696-8.544 8.709z"/></g><g><path fill="#d9d9d9" d="M89.661 81.084c4.908.037 8.86 3.999 8.814 8.832-.045 4.568-4.064 8.608-8.542 8.584-4.933-.026-8.903-3.958-8.857-8.771.044-4.692 4.004-8.679 8.585-8.645z"/></g></g></g></svg>