<svg xmlns="http://www.w3.org/2000/svg" width="18" height="18" viewBox="0 0 18 18"><g><g><g><path fill="#fff" d="M6.615 13.828a2.026 2.026 0 1 0 .004 4.053 2.026 2.026 0 0 0-.004-4.053z"/></g><g><path fill="#fff" d="M13.502 13.828a2.026 2.026 0 1 0 0 4.053 2.026 2.026 0 0 0 0-4.053z"/></g><g><path fill="#fff" d="M16.362 5.283H5.055l-.17-.998h11.758zm1.033-2.145h.003zm-12.705 0L4.325.998A.574.574 0 0 0 3.752.52H1.285a.574.574 0 0 0 0 1.147h1.99l1.857 10.897c.047.28.29.482.573.478h9.25a.574.574 0 0 0 0-1.147H6.182l-.244-1.433h9.729c.26 0 .489-.175.556-.427l1.72-6.17a.574.574 0 0 0-.548-.727zm12.702 0h.003-.003z"/></g></g></g></svg>