<svg xmlns="http://www.w3.org/2000/svg" width="64" height="63" viewBox="0 0 64 63"><defs><linearGradient id="bi3pa" x1="-231" x2="-231" y1="-1122" y2="-1122" gradientUnits="userSpaceOnUse"><stop offset="0" stop-color="#e9d08c"/><stop offset="1" stop-color="#987531"/></linearGradient></defs><g><g><g><g><path fill="url(#bi3pa)" d="M45.845 60.226c-2.915-4.664-6.348-6.745-9.133-8.434-1.953-1.184-3.64-2.207-4.84-3.856-2.359-3.245-2.427-4.723-2.514-6.595-.02-.421-.04-.848-.084-1.296-.276-2.903-2.06-7.107-4.545-10.709-2.21-3.203-3.651-7.585-1.6-9.638.167-.168.39-.305.908-.204 2.247.458 5.87 4.634 6.78 6.892 1.098 2.717 4.068 9.209 7.945 10.82.441.178.946.132 1.345-.132 1.433-.955 2.087-2.448 2.565-3.538.139-.313.326-.745.322-.775a1.433 1.433 0 0 0 .466-1.82c-.436-.872-1.108-3.204-1.33-4.03a1.435 1.435 0 0 0-.853-.959l-6.264-2.505V17.48c5.208.806 11.967 2.302 13.317 3.651 1.842 1.842 4.204 10.29 5.616 15.338.465 1.663.87 3.114 1.197 4.143 1.2 3.806 4.215 8.122 5.442 9.785-1.129 2.29-5.396 9.44-14.74 9.83zM14.951 48.78V2.922h14.33a2.87 2.87 0 0 1 2.866 2.866V22.97c-1.788-2.625-4.804-5.728-7.537-6.284-1.372-.286-2.584.06-3.507.985-3.451 3.451-1.475 9.316 1.266 13.29 2.195 3.181 3.822 6.94 4.053 9.354.038.402.055.783.073 1.158.09 1.913.21 3.906 2.487 7.305zm-2.866 0H9.219V2.922h2.866zm22.928-22.245l4.541 1.817c.223.778.6 2.038.977 3.02-.173.308-.323.65-.483 1.013-.26.594-.544 1.242-.941 1.746-1.435-1.023-2.89-3.19-4.094-5.493zM6.353 48.779a2.87 2.87 0 0 1-2.866-2.866V5.788a2.87 2.87 0 0 1 2.866-2.866zm57.017.55c-.042-.053-4.157-5.347-5.495-9.58-.318-1.007-.714-2.426-1.169-4.05-2.176-7.782-4.155-14.4-6.35-16.594-2.377-2.377-11.566-3.964-15.343-4.529V5.788A5.738 5.738 0 0 0 29.281.056H6.353A5.738 5.738 0 0 0 .62 5.788v40.125a5.738 5.738 0 0 0 5.733 5.732H29.28c.62 0 1.217-.138 1.802-.339 1.248 1.158 2.661 2.039 4.143 2.936 2.92 1.772 5.942 3.604 8.579 8.153.256.443.729.714 1.24.714 13.636 0 18.486-12.26 18.534-12.385.18-.469.1-1-.209-1.395z"/></g></g></g></g></svg>