<svg width="16" height="16" viewBox="0 0 16 16" fill="none" xmlns="http://www.w3.org/2000/svg">
<path fill-rule="evenodd" clip-rule="evenodd" d="M0.0732422 8.14868C0.0732422 12.4794 3.64284 16 8.03389 16C12.4249 16 15.9945 12.4647 15.9945 8.13395C15.9945 3.80318 12.4249 0.282593 8.03389 0.282593C3.64284 0.282593 0.0732422 3.81791 0.0732422 8.14868ZM3.25451 8.13395C3.25451 5.54138 5.40523 3.42019 8.03389 3.42019C8.92821 3.42019 9.76721 3.66572 10.485 4.0918L3.93547 10.5514C3.50346 9.84347 3.25451 9.01599 3.25451 8.13395ZM6.36018 12.5477C6.88168 12.7415 7.44583 12.8477 8.03389 12.8477C10.6625 12.8477 12.8133 10.7265 12.8133 8.13395C12.8133 7.55396 12.7056 6.99756 12.5091 6.48322L6.36018 12.5477Z" fill="white"/>
</svg>
