<svg xmlns="http://www.w3.org/2000/svg" width="46" height="46" viewBox="0 0 46 46"><g><g><path fill="white" d="M23.751 6.006v-3.65h-2.25v3.65zM8.281 9.527l1.109-1.11-.64-.65c-.386.36-.756.73-1.11 1.11zm28.689 0l.64-.65c-.36-.38-.73-.75-1.11-1.11l-.64.65zM5.86 23.877v-2.24H2.23c-.021.37-.03.74-.03 1.12v1.12zm37.161 0v-1.12c0-.38.02-.75 0-1.12h-3.59v2.24zm-20.894.687a1.86 1.86 0 0 0 2.094-.947l8.93-.86-8.93-.87a1.81 1.81 0 0 0-.691-.76l-.91-12.65-.91 12.65c-.605.32-.988.945-1 1.63a1.859 1.859 0 0 0 1.417 1.807zM7.641 36.627c.349.39.72.76 1.109 1.12l.64-.65-1.11-1.09-.64.62zm28.86 1.12c.38-.36.749-.73 1.11-1.12l-.641-.64-1.11 1.11zm-12.75 5.4v-3.59h-2.25v3.59h2.25zm-1.13-41.41c11.598 0 21 9.402 21 21s-9.402 21-21 21c-11.599 0-21-9.402-21-21s9.401-21 21-21zm0 43.64c12.492 0 22.619-10.128 22.619-22.62C45.246 10.261 35.115.13 22.62.136 10.129.137 0 10.264 0 22.757c0 12.492 10.128 22.62 22.62 22.62z"/></g></g></svg>