<svg xmlns="http://www.w3.org/2000/svg" width="57" height="58" viewBox="0 0 57 58"><defs><linearGradient id="z74na" x1="28.67" x2="28.67" y1="1.19" y2="56.65" gradientUnits="userSpaceOnUse"><stop offset="0" stop-color="#eed096"/><stop offset="1" stop-color="#865b26"/></linearGradient></defs><g><g><path fill="url(#z74na)" d="M48.129 39.448l-6.565-6a1.797 1.797 0 0 0-2.437 0l-6.672 6.099v11.008c0 .974.79 1.767 1.763 1.767h12.148c.972 0 1.763-.793 1.763-1.767zm7.648 4.064a2.155 2.155 0 0 1-1.596.703 2.154 2.154 0 0 1-1.458-.566l-.27-.247v7.153c0 3.359-2.731 6.091-6.087 6.091H34.217c-3.355 0-6.086-2.732-6.086-6.09V43.5l-.162.148a2.162 2.162 0 1 1-2.918-3.191L36.21 30.256a6.1 6.1 0 0 1 8.272 0l7.15 6.537c.078.062.153.13.222.203l3.786 3.462c.882.805.943 2.173.137 3.054zM15.67 42.475c2.996 3.28 6.094 6.674 8.668 10.746a2.162 2.162 0 0 1-3.655 2.31c-2.37-3.749-5.337-6.998-8.206-10.14-2.927-3.206-5.691-6.233-7.819-9.702C2.201 31.682 1.004 27.639 1 23.332A22.018 22.018 0 0 1 7.499 7.676a22.015 22.015 0 0 1 15.66-6.482 22.014 22.014 0 0 1 15.66 6.482 22.014 22.014 0 0 1 6.499 15.651 2.162 2.162 0 0 1-2.16 2.165h-.002a2.162 2.162 0 0 1-2.162-2.16c-.011-9.822-8.012-17.814-17.835-17.814S5.335 13.51 5.324 23.332C5.33 31.153 10.122 36.4 15.67 42.475zM13.97 23.353c0 5.067 4.122 9.188 9.188 9.188a2.162 2.162 0 1 1 0 4.324c-7.45 0-13.512-6.061-13.512-13.512 0-7.45 6.062-13.511 13.512-13.511s13.512 6.06 13.512 13.511a2.162 2.162 0 0 1-4.324 0c0-5.066-4.122-9.188-9.188-9.188-5.066 0-9.188 4.122-9.188 9.188z"/><path fill="none" stroke="#fff" stroke-miterlimit="20" d="M48.129 39.448l-6.565-6a1.797 1.797 0 0 0-2.437 0l-6.672 6.099v11.008c0 .974.79 1.767 1.763 1.767h12.148c.972 0 1.763-.793 1.763-1.767zm7.648 4.064a2.155 2.155 0 0 1-1.596.703 2.154 2.154 0 0 1-1.458-.566l-.27-.247v7.153c0 3.359-2.731 6.091-6.087 6.091H34.217c-3.355 0-6.086-2.732-6.086-6.09V43.5l-.162.148a2.162 2.162 0 1 1-2.918-3.191L36.21 30.256a6.1 6.1 0 0 1 8.272 0l7.15 6.537c.078.062.153.13.222.203l3.786 3.462c.882.805.943 2.173.137 3.054zM15.67 42.475c2.996 3.28 6.094 6.674 8.668 10.746a2.162 2.162 0 0 1-3.655 2.31c-2.37-3.749-5.337-6.998-8.206-10.14-2.927-3.206-5.691-6.233-7.819-9.702C2.201 31.682 1.004 27.639 1 23.332A22.018 22.018 0 0 1 7.499 7.676a22.015 22.015 0 0 1 15.66-6.482 22.014 22.014 0 0 1 15.66 6.482 22.014 22.014 0 0 1 6.499 15.651 2.162 2.162 0 0 1-2.16 2.165h-.002a2.162 2.162 0 0 1-2.162-2.16c-.011-9.822-8.012-17.814-17.835-17.814S5.335 13.51 5.324 23.332C5.33 31.153 10.122 36.4 15.67 42.475zM13.97 23.353c0 5.067 4.122 9.188 9.188 9.188a2.162 2.162 0 1 1 0 4.324c-7.45 0-13.512-6.061-13.512-13.512 0-7.45 6.062-13.511 13.512-13.511s13.512 6.06 13.512 13.511a2.162 2.162 0 0 1-4.324 0c0-5.066-4.122-9.188-9.188-9.188-5.066 0-9.188 4.122-9.188 9.188z"/></g></g></svg>