<svg xmlns="http://www.w3.org/2000/svg" width="56" height="56" viewBox="0 0 56 56"><defs><linearGradient id="qb22a" x1="27.73" x2="27.73" y1=".55" y2="56" gradientUnits="userSpaceOnUse"><stop offset="0" stop-color="#eed096"/><stop offset="1" stop-color="#865b26"/></linearGradient><linearGradient id="qb22b" x1="22.5" x2="22.5" y1="19" y2="40" gradientUnits="userSpaceOnUse"><stop offset="0" stop-color="#eed096"/><stop offset="1" stop-color="#865b26"/></linearGradient><linearGradient id="qb22c" x1="32.5" x2="32.5" y1="19" y2="40" gradientUnits="userSpaceOnUse"><stop offset="0" stop-color="#eed096"/><stop offset="1" stop-color="#865b26"/></linearGradient></defs><g><g><g><g><g><path fill="url(#qb22a)" d="M27.726 4.014c13.377 0 24.26 10.883 24.26 24.26a24.275 24.275 0 0 1-8.574 18.507A24.265 24.265 0 0 1 9.174 43.91a24.277 24.277 0 0 1-5.708-15.635c0-13.377 10.883-24.26 24.26-24.26zm17.929 45.41a27.746 27.746 0 0 0 9.797-21.15c0-7.406-2.884-14.368-8.12-19.605-5.237-5.237-12.2-8.12-19.606-8.12-7.406 0-14.369 2.883-19.605 8.12C2.884 13.906 0 20.869 0 28.274a27.747 27.747 0 0 0 6.526 17.87A27.734 27.734 0 0 0 27.726 56a27.734 27.734 0 0 0 17.929-6.575z"/></g></g><g><path fill="url(#qb22b)" d="M20 40V19h5v21z"/></g><g><path fill="url(#qb22c)" d="M30 40V19h5v21z"/></g></g></g></g></svg>