<svg xmlns="http://www.w3.org/2000/svg" width="92" height="37" viewBox="0 0 92 37"><g><g><g><path fill="#5f6368" d="M87.54 10.36l-5.197 12.86h-.084l-5.323-12.86h-3.653l7.39 16.763-4.175 9.018h3.465l11.23-25.801zm-27.178 12.4c0-.981.459-1.795 1.356-2.463.919-.647 2.067-.981 3.424-.981 1.879 0 3.34.417 4.384 1.252 0 1.42-.564 2.651-1.67 3.695a5.34 5.34 0 0 1-3.779 1.566 4.105 4.105 0 0 1-2.61-.877 2.709 2.709 0 0 1-1.105-2.192zm4.341-13.005c-3.193 0-5.594 1.17-7.201 3.486l2.964 1.858c1.106-1.586 2.588-2.38 4.467-2.38 1.19 0 2.338.439 3.236 1.232a3.85 3.85 0 0 1 1.377 2.964v.772c-1.294-.71-2.922-1.085-4.926-1.085-2.338 0-4.217.543-5.615 1.65-1.399 1.105-2.109 2.567-2.109 4.424a5.536 5.536 0 0 0 1.983 4.384c1.316 1.17 2.986 1.754 4.948 1.754 2.317 0 4.154-1.023 5.552-3.069h.147v2.484h3.214V17.207c0-2.317-.71-4.133-2.15-5.469-1.44-1.315-3.402-1.983-5.886-1.983zM48.86 5.31a4.338 4.338 0 0 1 3.319 1.378l.083.083c1.712 1.774 1.691 4.592-.083 6.304a4.395 4.395 0 0 1-3.32 1.357h-5.636V5.288zm-.063 12.337c2.275 0 4.196-.752 5.761-2.234A7.303 7.303 0 0 0 56.96 9.86a7.215 7.215 0 0 0-2.4-5.51 8.103 8.103 0 0 0-5.783-2.276h-8.913V28.25h3.36V17.646z"/></g><g><path fill="#4285f4" d="M29.634 15.35c0-1.023-.083-2.046-.25-3.048H15.21v5.782h8.12a6.96 6.96 0 0 1-3.006 4.572v3.757h4.843c2.839-2.61 4.467-6.471 4.467-11.064z"/></g><g><path fill="#34a853" d="M15.21 30.045c4.05 0 7.473-1.336 9.957-3.632l-4.843-3.757c-1.357.918-3.09 1.44-5.114 1.44-3.925 0-7.244-2.651-8.434-6.2H1.787v3.883a15.051 15.051 0 0 0 13.423 8.266z"/></g><g><path fill="#fbbc04" d="M6.776 17.896a9.069 9.069 0 0 1 0-5.761V8.273H1.787a14.902 14.902 0 0 0 0 13.485z"/></g><g><path fill="#ea4335" d="M15.21 5.935A8.089 8.089 0 0 1 20.97 8.19l4.28-4.28A14.348 14.348 0 0 0 15.21-.014 15.032 15.032 0 0 0 1.787 8.273l4.99 3.883c1.19-3.57 4.508-6.221 8.433-6.221z"/></g></g></g></svg>