<svg id="gift" xmlns="http://www.w3.org/2000/svg" width="32" height="32" viewBox="0 0 32 32">
  <path id="Контур_2636" data-name="Контур 2636" d="M26.667,28H4a2,2,0,0,1-2-2V12.667A.667.667,0,0,1,2.667,12H28a.667.667,0,0,1,.667.667V26A2,2,0,0,1,26.667,28ZM3.333,13.333V26A.669.669,0,0,0,4,26.667H26.667A.669.669,0,0,0,27.333,26V13.333Z" transform="translate(0.667 4)" fill="#9299a2"/>
  <path id="Контур_2637" data-name="Контур 2637" d="M30,15H2a2,2,0,0,1-2-2V9A2,2,0,0,1,2,7H30a2,2,0,0,1,2,2v4A2,2,0,0,1,30,15ZM2,8.333A.669.669,0,0,0,1.333,9v4A.669.669,0,0,0,2,13.667H30A.669.669,0,0,0,30.667,13V9A.669.669,0,0,0,30,8.333Z" transform="translate(0 2.333)" fill="#9299a2"/>
  <path id="Контур_2638" data-name="Контур 2638" d="M12.167,10.667a.667.667,0,0,1-.66-.76C11.521,9.807,13.012,0,20.833,0,24.279,0,25.5,1.861,25.5,3.455c0,2.995-4.137,7.212-13.335,7.212Zm8.667-9.333c-5.483,0-7.352,5.847-7.852,7.987,7.305-.227,11.187-3.488,11.187-5.865a1.735,1.735,0,0,0-.739-1.447,4.345,4.345,0,0,0-2.6-.675Z" transform="translate(3.833 0)" fill="#9299a2"/>
  <path id="Контур_2639" data-name="Контур 2639" d="M15.335,10.667C6.137,10.667,2,6.449,2,3.455A3.085,3.085,0,0,1,3.271.941,5.632,5.632,0,0,1,6.668,0c7.821,0,9.312,9.807,9.327,9.907a.667.667,0,0,1-.66.76ZM6.668,1.333c-2.057,0-3.335.812-3.335,2.121,0,2.379,3.884,5.64,11.193,5.867C14.043,7.168,12.22,1.333,6.668,1.333Z" transform="translate(0.667)" fill="#9299a2"/>
  <path id="Контур_2640" data-name="Контур 2640" d="M12.167,29.667A.667.667,0,0,1,11.5,29V7.667a.667.667,0,0,1,1.333,0V29A.667.667,0,0,1,12.167,29.667Z" transform="translate(3.833 2.333)" fill="#9299a2"/>
</svg>
