<svg xmlns="http://www.w3.org/2000/svg" width="41" height="20" viewBox="0 0 41 20"><defs><linearGradient id="b2mua" x1="20.68" x2="20.68" y1=".45" y2="19.19" gradientUnits="userSpaceOnUse"><stop offset="0" stop-color="#f0d399"/><stop offset="1" stop-color="#987531"/></linearGradient></defs><g><g><path fill="url(#b2mua)" d="M7.795 4.648c-.063 0-.125-.003-.184-.008-.145-1.083.403-2.162.964-2.811.662-.775 1.763-1.341 2.678-1.378.106.973-.247 2.059-.945 2.903-.659.798-1.622 1.294-2.513 1.294zM20.03 7.32v4.136h2.026c1.403 0 2.207-.75 2.207-2.06 0-1.319-.804-2.076-2.207-2.076zm0 9.04H18.41V5.965h4.07c2.021 0 3.433 1.404 3.433 3.416 0 2.021-1.432 3.433-3.482 3.433H20.03zm11.294-3.547l-1.895.13c-1.075.067-1.62.457-1.62 1.16 0 .666.584 1.096 1.488 1.096 1.175-.017 2.027-.766 2.027-1.782v-.604zm-2.477 3.613c-1.569 0-2.622-.927-2.622-2.305 0-1.365 1.034-2.157 2.99-2.29l2.11-.114v-.604c0-.883-.597-1.39-1.635-1.39-.842 0-1.47.437-1.602 1.112h-1.455c.05-1.393 1.356-2.403 3.106-2.403 1.907 0 3.139 1 3.139 2.55v5.362H31.39v-1.308h-.033c-.422.844-1.391 1.39-2.468 1.39h-.02zm-26.7-.1C1.303 15.11.661 13.512.383 11.945c-.229-1.298-.309-3.18.611-4.777a4.63 4.63 0 0 1 1.6-1.648c.66-.4 1.407-.618 2.162-.63h.05c.646 0 1.271.248 1.823.467l.005.002c.435.173.81.321 1.12.321.28 0 .655-.148 1.09-.319.597-.236 1.341-.529 2.104-.529.094 0 .19.005.287.014.648.028 2.27.258 3.324 1.803l-.007.004c-.33.2-1.978 1.309-1.957 3.455a3.91 3.91 0 0 0 1.22 2.86 4.109 4.109 0 0 0 1.22.817l-.005.015a10.107 10.107 0 0 1-1.253 2.572c-.71 1.036-1.513 2.21-2.782 2.233h-.055c-.568 0-.95-.165-1.353-.34-.433-.187-.88-.381-1.593-.381-.744 0-1.212.2-1.665.392l-.004.001c-.399.17-.776.33-1.309.35H5.01l-.057.002c-1.12 0-1.967-1.09-2.806-2.302zm32.962 2.866c-.162 0-.43-.024-.532-.037v-1.275c.115.033.36.033.49.033.755 0 1.168-.332 1.423-1.144l.114-.409-2.845-7.846h1.684l2.011 6.391h.034l2.01-6.391h1.634l-2.926 8.19c-.67 1.88-1.401 2.484-3.008 2.484a.634.634 0 0 1-.089.004z"/></g></g></svg>