<svg xmlns="http://www.w3.org/2000/svg" width="20" height="20" viewBox="0 0 20 20"><defs><linearGradient id="ietca" x1="10.09" x2="10.09" y1=".11" y2="19.8" gradientUnits="userSpaceOnUse"><stop offset="0" stop-color="#f0d399"/><stop offset="1" stop-color="#987531"/></linearGradient></defs><g><g><path fill="url(#ietca)" d="M18.01 15.993a1.888 1.888 0 0 1-1.886 1.887H4.044a1.889 1.889 0 0 1-1.888-1.887V7.93h2.94a5.356 5.356 0 0 0-.397 2.021 5.391 5.391 0 0 0 5.385 5.385 5.391 5.391 0 0 0 5.384-5.385c0-.714-.144-1.396-.397-2.02h2.94zM7.274 7.93a3.465 3.465 0 0 1 2.81-1.445c1.157 0 2.18.573 2.81 1.445.41.57.657 1.267.657 2.021a3.47 3.47 0 0 1-3.467 3.466 3.47 3.47 0 0 1-3.466-3.466c0-.754.246-1.451.656-2.02zm9.943-5.555l.435-.002v3.338l-3.327.01-.011-3.337zM4.043.106A3.81 3.81 0 0 0 .237 3.912v12.081a3.81 3.81 0 0 0 3.806 3.805h12.081a3.81 3.81 0 0 0 3.806-3.805V3.911A3.81 3.81 0 0 0 16.124.106z"/></g></g></svg>