<svg xmlns="http://www.w3.org/2000/svg" width="44" height="18" viewBox="0 0 44 18"><defs><linearGradient id="r3fea" x1="7.98" x2="7.98" y1="-.02" y2="7.21" gradientUnits="userSpaceOnUse"><stop offset="0" stop-color="#f0d399"/><stop offset="1" stop-color="#987531"/></linearGradient><linearGradient id="r3feb" x1="1.96" x2="1.96" y1="4.92" y2="12.98" gradientUnits="userSpaceOnUse"><stop offset="0" stop-color="#f0d399"/><stop offset="1" stop-color="#987531"/></linearGradient><linearGradient id="r3fec" x1="13.29" x2="13.29" y1="7.27" y2="15.76" gradientUnits="userSpaceOnUse"><stop offset="0" stop-color="#f0d399"/><stop offset="1" stop-color="#987531"/></linearGradient><linearGradient id="r3fed" x1="7.95" x2="7.95" y1="10.71" y2="17.93" gradientUnits="userSpaceOnUse"><stop offset="0" stop-color="#f0d399"/><stop offset="1" stop-color="#987531"/></linearGradient><linearGradient id="r3fee" x1="32.94" x2="32.94" y1="4.05" y2="16.99" gradientUnits="userSpaceOnUse"><stop offset="0" stop-color="#f0d399"/><stop offset="1" stop-color="#987531"/></linearGradient></defs><g><g><g><g opacity=".37"><g opacity=".37"><path fill="url(#r3fea)" d="M6.048.474a9.091 9.091 0 0 1 6.048.053 8.724 8.724 0 0 1 2.891 1.79c-.28.305-.584.59-.873.884l-1.651 1.65a4.89 4.89 0 0 0-1.936-1.138 5.3 5.3 0 0 0-2.635-.107 5.365 5.365 0 0 0-2.684 1.492 5.57 5.57 0 0 0-1.303 2.119c-.98-.763-1.96-1.52-2.944-2.283A9.02 9.02 0 0 1 6.048.474z"/></g></g><g opacity=".49"><g opacity=".49"><path fill="url(#r3feb)" d="M.184 7.183c.16-.782.42-1.544.782-2.259.98.763 1.96 1.52 2.944 2.283a5.416 5.416 0 0 0 0 3.495c-.98.762-1.96 1.525-2.94 2.283a8.933 8.933 0 0 1-.786-5.802z"/></g></g><g><g><path fill="url(#r3fec)" d="M8.983 7.274h8.446c.28 1.579.218 3.225-.226 4.77-.41 1.413-1.188 2.726-2.274 3.725l-2.852-2.215a4.228 4.228 0 0 0 1.795-2.775H8.978c.005-1.168.005-2.337.005-3.505z"/></g></g><g opacity=".73"><g opacity=".73"><path fill="url(#r3fed)" d="M.961 12.99c.98-.758 1.96-1.52 2.94-2.283a5.58 5.58 0 0 0 2.056 2.756c.598.42 1.283.719 1.998.864.704.144 1.433.125 2.143.004a5.143 5.143 0 0 0 1.979-.782l2.852 2.216c-1.028.95-2.317 1.597-3.678 1.911-1.506.343-3.098.353-4.595-.048a8.871 8.871 0 0 1-3.262-1.646A9.038 9.038 0 0 1 .96 12.99z"/></g></g></g><g><path fill="url(#r3fee)" d="M38.8 6.604h-1.38l2.639 7.314-.28.752c-.156.46-.353.777-.592.95-.24.173-.573.26-1.001.26l-.342-.027v1.025l.471.089.24.02c1.002 0 1.734-.615 2.194-1.845l2.974-8.538h-1.354l-1.723 5.543zm-5.618 6.432c-.415 0-.755-.112-1.019-.335-.264-.223-.396-.533-.396-.93 0-.906.774-1.36 2.324-1.36h.991v1.518a1.86 1.86 0 0 1-.772.8 2.223 2.223 0 0 1-1.128.307zm3.424.964v-.11c-.173-.4-.26-.94-.26-1.62V8.867c-.018-.747-.268-1.334-.751-1.76-.483-.426-1.151-.64-2.003-.64-.538 0-1.031.101-1.48.302-.45.2-.805.472-1.067.816-.262.345-.393.701-.393 1.07h1.272c0-.323.152-.599.458-.827.305-.228.683-.342 1.135-.342.515 0 .904.131 1.169.393.264.262.396.615.396 1.057v.58h-1.23c-1.062 0-1.886.214-2.472.64-.585.426-.878 1.024-.878 1.794 0 .634.234 1.157.7 1.57.468.412 1.066.618 1.795.618.816 0 1.518-.306 2.106-.916.045.373.104.633.177.779zM23.468 5.12H25.9c.652.014 1.165.199 1.538.555.374.356.561.83.561 1.424 0 .626-.187 1.104-.56 1.435-.374.33-.912.496-1.614.496h-2.358zm2.345 4.984c1.125 0 1.99-.261 2.594-.783.604-.522.905-1.266.905-2.232 0-.916-.308-1.652-.926-2.208-.617-.556-1.47-.834-2.56-.834h-3.67V14h1.312v-3.896z"/></g></g></g></svg>