<svg xmlns="http://www.w3.org/2000/svg" width="49" height="30" viewBox="0 0 49 30"><defs><linearGradient id="sn42a" x1="19.47" x2="19.47" y1="12.12" y2="19.08" gradientUnits="userSpaceOnUse"><stop offset="0" stop-color="#f0d399"/><stop offset="1" stop-color="#987531"/></linearGradient><linearGradient id="sn42b" x1="23.25" x2="23.25" y1="12.83" y2="19.06" gradientUnits="userSpaceOnUse"><stop offset="0" stop-color="#f0d399"/><stop offset="1" stop-color="#987531"/></linearGradient><linearGradient id="sn42c" x1="31.72" x2="31.72" y1="11.45" y2="19.07" gradientUnits="userSpaceOnUse"><stop offset="0" stop-color="#f0d399"/><stop offset="1" stop-color="#987531"/></linearGradient><linearGradient id="sn42d" x1="11.52" x2="11.52" y1="12.85" y2="19.07" gradientUnits="userSpaceOnUse"><stop offset="0" stop-color="#f0d399"/><stop offset="1" stop-color="#987531"/></linearGradient><linearGradient id="sn42e" x1="15.86" x2="15.86" y1="12.87" y2="19.02" gradientUnits="userSpaceOnUse"><stop offset="0" stop-color="#f0d399"/><stop offset="1" stop-color="#987531"/></linearGradient><linearGradient id="sn42f" x1="44.5" x2="44.5" y1="11.63" y2="19.04" gradientUnits="userSpaceOnUse"><stop offset="0" stop-color="#f0d399"/><stop offset="1" stop-color="#987531"/></linearGradient><linearGradient id="sn42g" x1="5.86" x2="5.86" y1="11.63" y2="18.95" gradientUnits="userSpaceOnUse"><stop offset="0" stop-color="#f0d399"/><stop offset="1" stop-color="#987531"/></linearGradient><linearGradient id="sn42h" x1="27.51" x2="27.51" y1="12.92" y2="18.96" gradientUnits="userSpaceOnUse"><stop offset="0" stop-color="#f0d399"/><stop offset="1" stop-color="#987531"/></linearGradient><linearGradient id="sn42i" x1="36.38" x2="36.38" y1="12.85" y2="19.07" gradientUnits="userSpaceOnUse"><stop offset="0" stop-color="#f0d399"/><stop offset="1" stop-color="#987531"/></linearGradient><linearGradient id="sn42j" x1="40.38" x2="40.38" y1="12.92" y2="18.96" gradientUnits="userSpaceOnUse"><stop offset="0" stop-color="#f0d399"/><stop offset="1" stop-color="#987531"/></linearGradient></defs><g><g><g><path fill="#0c8354" d="M48.876 15.027C48.876 23 42.43 29.47 34.47 29.47s-14.406-6.458-14.406-14.432C20.064 7.066 26.509.596 34.47.596c7.948-.013 14.406 6.444 14.406 14.43 0-.012 0 0 0 0z"/></g></g><g><g><path fill="#144b34" d="M15.047.748C7.137.798.729 7.243.729 15.192c0 7.974 6.458 14.444 14.406 14.444 3.728 0 7.127-1.428 9.693-3.766.53-.48 1.01-.999 1.465-1.542h-2.957c-.391-.48-.758-.973-1.074-1.491h5.093c.316-.493.594-1.01.834-1.542h-6.773c-.228-.493-.43-.998-.607-1.516h7.974c.48-1.44.745-2.982.745-4.575 0-1.061-.113-2.097-.328-3.096h-8.808c.114-.518.253-1.023.404-1.516h7.974a15.091 15.091 0 0 0-.619-1.542h-6.748c.24-.518.518-1.023.821-1.516h5.093a13.67 13.67 0 0 0-1.112-1.542h-2.83c.442-.518.922-1.01 1.44-1.453A14.345 14.345 0 0 0 15.123.773c-.013-.025-.038-.025-.076-.025z"/></g></g><g><g><g><path fill="url(#sn42a)" d="M20.317 18.869l.19-1.302c-.102 0-.266.05-.392.05-.531 0-.594-.277-.556-.492l.43-2.666h.808l.19-1.44h-.771l.151-.898h-1.516c-.038.038-.91 5.055-.91 5.661 0 .91.506 1.314 1.226 1.302.569-.026.998-.177 1.15-.215z"/></g></g><g><g><path fill="url(#sn42b)" d="M23.501 14.206c.86 0 .708.973.708 1.049h-1.706c0-.101.164-1.049.998-1.049zm-2.691 2.16c0 2.174 1.428 2.692 2.653 2.692 1.125 0 1.618-.252 1.618-.252l.265-1.479s-.859.38-1.63.38c-1.643 0-1.352-1.226-1.352-1.226h3.121s.202-.999.202-1.403c0-1.011-.505-2.25-2.186-2.25-1.554 0-2.691 1.656-2.691 3.539z"/></g></g><g><g><path fill="url(#sn42c)" d="M33.206 18.869l.278-1.68s-.758.378-1.263.378c-1.087 0-1.53-.834-1.53-1.73 0-1.82.936-2.819 1.985-2.819.783 0 1.402.442 1.402.442l.253-1.63s-.935-.379-1.731-.379c-1.77 0-3.5 1.542-3.5 4.436 0 1.92.934 3.184 2.767 3.184.518 0 1.34-.202 1.34-.202z"/></g></g><g><g><path fill="url(#sn42d)" d="M12.217 16.291c.025.265-.165 1.466-1.087 1.466-.48 0-.607-.367-.607-.581 0-.417.228-.923 1.353-.923.265 0 .29.038.34.038zm-.329-3.437c-1.049 0-1.857.341-1.857.341l-.228 1.327s.67-.265 1.668-.265c.569 0 .986.063.986.53 0 .278-.05.392-.05.392s-.456-.038-.658-.038c-1.327 0-2.717.569-2.717 2.275 0 1.352.91 1.655 1.479 1.655 1.087 0 1.541-.708 1.58-.708l-.051.594h1.352l.607-4.233c0-1.82-1.567-1.87-2.11-1.87z"/></g></g><g><g><path fill="url(#sn42e)" d="M15.426 19.02c.342 0 2.326.089 2.326-1.958 0-1.908-1.833-1.53-1.833-2.3 0-.38.304-.506.847-.506.215 0 1.049.076 1.049.076l.19-1.352s-.544-.114-1.416-.114c-1.137 0-2.287.455-2.287 2.01 0 1.756 1.92 1.58 1.92 2.325 0 .493-.53.53-.947.53-.72 0-1.365-.24-1.365-.24l-.202 1.34c.038.013.43.19 1.718.19z"/></g></g><g><g><path fill="url(#sn42f)" d="M45.211 15.647c0 .808-.404 1.895-1.238 1.895-.556 0-.809-.468-.809-1.188 0-1.188.53-1.984 1.213-1.984.543 0 .834.38.834 1.277zm.708-4.019l-.329 2.06s-.581-.796-1.478-.796c-1.403 0-2.578 1.693-2.578 3.652 0 1.263.619 2.49 1.908 2.49.922 0 1.428-.645 1.428-.645l-.063.543h1.49l1.176-7.304z"/></g></g><g><g><path fill="url(#sn42g)" d="M3.586 18.945l.935-5.522.139 5.522h1.062l1.97-5.522-.871 5.522h1.567L9.6 11.628H7.175l-1.517 4.486-.088-4.486H3.333l-1.226 7.317z"/></g></g><g><g><path fill="url(#sn42h)" d="M27.216 18.957c.443-2.54.531-4.612 1.593-4.233.19-.986.366-1.365.568-1.782 0 0-.1-.025-.29-.025-.683 0-1.2.935-1.2.935l.138-.86h-1.428l-.96 5.953h1.58z"/></g></g><g><g><path fill="url(#sn42i)" d="M35.999 17.757c-.48 0-.594-.367-.594-.581 0-.417.227-.923 1.352-.923.253 0 .278.038.329.038.025.265-.165 1.466-1.087 1.466zm.758-4.903c-1.049 0-1.857.341-1.857.341l-.228 1.327s.67-.265 1.668-.265c.569 0 .986.063.986.53 0 .278-.05.392-.05.392s-.456-.038-.658-.038c-1.327 0-2.717.569-2.717 2.275 0 1.352.91 1.655 1.479 1.655 1.087 0 1.554-.708 1.567-.708l-.05.594h1.351l.607-4.233c0-1.82-1.554-1.87-2.098-1.87z"/></g></g><g><g><path fill="url(#sn42j)" d="M40.093 18.957c.442-2.54.531-4.612 1.592-4.233.19-.986.367-1.365.57-1.782 0 0-.102-.025-.292-.025-.682 0-1.2.935-1.2.935l.139-.86h-1.428l-.96 5.953h1.58z"/></g></g></g></g></svg>