<svg xmlns="http://www.w3.org/2000/svg" width="11" height="16" viewBox="0 0 11 16"><defs><linearGradient id="sucpa" x1="5.13" x2="5.13" y1=".52" y2="15.36" gradientUnits="userSpaceOnUse"><stop offset="0" stop-color="#f0d399"/><stop offset="1" stop-color="#987531"/></linearGradient></defs><g><g><path fill="url(#sucpa)" d="M3.7 4.674l.276-.13a1.73 1.73 0 0 0 1.059-1.14c.103-.472-.028-1.092-.396-1.862-.26-.544-.53-.868-.797-.974-.269-.106-.664-.036-1.173.208L2.348.93c.36.36.663.773.897 1.226.37.784.528 1.653.455 2.517zm5.31 10.22l.354-.174a1.37 1.37 0 0 0 .809-.748 1.85 1.85 0 0 0-.258-1.208c-.706-1.467-1.594-1.938-2.663-1.413l-.353.163a5.331 5.331 0 0 1 1.67 1.998c.214.437.362.902.442 1.381zm-3.022.444a7.63 7.63 0 0 0 2.691-.286 7.287 7.287 0 0 0-.487-1.36 5.879 5.879 0 0 0-1.66-2.005l-.159.077c-.74.354-1.643-.588-2.712-2.824-1.104-2.305-1.288-3.634-.554-3.987l.163-.078a4.998 4.998 0 0 0-.435-2.58 4.163 4.163 0 0 0-.858-1.19A7.682 7.682 0 0 0 .07 3.022c.102 1.123.31 2.234.622 3.32.333 1.138.76 2.247 1.278 3.315a21.88 21.88 0 0 0 1.822 3.124 17.169 17.169 0 0 0 2.196 2.557z"/></g></g></svg>