<svg xmlns="http://www.w3.org/2000/svg" width="40" height="13" viewBox="0 0 40 13"><defs><linearGradient id="ygkxa" x1="21.68" x2="21.68" y1=".68" y2="12.97" gradientUnits="userSpaceOnUse"><stop offset="0" stop-color="#f0d399"/><stop offset="1" stop-color="#987531"/></linearGradient><linearGradient id="ygkxb" x1="3.96" x2="3.96" y1=".87" y2="7.4" gradientUnits="userSpaceOnUse"><stop offset="0" stop-color="#f0d399"/><stop offset="1" stop-color="#987531"/></linearGradient></defs><g><g><g><path fill="url(#ygkxa)" d="M6.375 12.77L3.485 2.401c2.07 1.032 3.92 3.092 4.514 4.994l.287 1.636L11.56.861h3.452L9.827 12.77zM33.21 8.574v.011h2.71c-.128-.596-.754-3.442-.754-3.442l-.224-1.031c-.17.446-.456 1.168-.435 1.137 0 0-1.031 2.635-1.297 3.325zm3.602 4.196l-.383-1.827h-4.132l-.67 1.827h-3.452l4.834-10.889c.34-.776.903-1.009 1.689-1.009V.861h2.497l2.688 11.91zm-22.576.011L16.254.871h3.273l-2.019 11.91zm5.088-.446l.458-2.667.424.192c1.073.446 1.764.627 3.07.627.936 0 1.945-.362 1.955-1.159.012-.52-.414-.892-1.689-1.476-1.231-.574-2.879-1.53-2.857-3.24C20.706 2.294 22.979.68 26.209.68c1.264 0 2.274.254 2.922.499l-.457 2.581-.298-.138a5.912 5.912 0 0 0-2.443-.456c-1.275 0-1.87.52-1.87 1.02 0 .563.701.923 1.838 1.476 1.88.85 2.752 1.892 2.741 3.24-.021 2.476-2.252 4.07-5.684 4.07-1.456-.021-2.868-.309-3.634-.638z"/></g><g opacity=".42"><g opacity=".42"><path fill="url(#ygkxb)" d="M-.075.872v.191c4.101.988 6.938 3.474 8.064 6.343l-1.18-5.514c-.201-.754-.796-.988-1.508-1.02z"/></g></g></g></g></svg>