<svg xmlns="http://www.w3.org/2000/svg" width="36" height="11" viewBox="0 0 36 11"><defs><linearGradient id="3yira" x1="17.96" x2="17.96" y1=".82" y2="10.9" gradientUnits="userSpaceOnUse"><stop offset="0" stop-color="#f0d399"/><stop offset="1" stop-color="#987531"/></linearGradient><linearGradient id="3yirb" x1="30.61" x2="30.61" y1=".83" y2="4.98" gradientUnits="userSpaceOnUse"><stop offset="0" stop-color="#f0d399"/><stop offset="1" stop-color="#987531"/></linearGradient></defs><g><g><path fill="url(#3yira)" d="M35.916 5.399a3.465 3.465 0 0 1-3.27 2.291h-3.484v3.21h-3.234V5.399zM7.946 2.142A1.859 1.859 0 0 1 9.73.817h3.234V10.9h-3.24V4.94h-.232l-1.85 5.96h-2.32l-1.85-5.96h-.233v5.96H0V.817h3.24c.82 0 1.543.539 1.778 1.325l1.348 4.635h.233l1.349-4.635zM21.789.817h2.75v10.077h-3.24V4.939h-.232l-2.28 4.893a1.849 1.849 0 0 1-1.682 1.062h-2.75V.817h3.24v5.96h.232l2.28-4.892z"/></g><g><path fill="url(#3yirb)" d="M32.45.823h-7.16a5.082 5.082 0 0 0 5 4.152h5.554A3.46 3.46 0 0 0 32.449.822"/></g></g></svg>