<svg xmlns="http://www.w3.org/2000/svg" width="47" height="29" viewBox="0 0 47 29"><defs><linearGradient id="7p7ma" x1="24.19" x2="24.19" y1="10.91" y2="18.08" gradientUnits="userSpaceOnUse"><stop offset="0" stop-color="#f0d399"/><stop offset="1" stop-color="#987531"/></linearGradient></defs><g><g><g><g><path fill="#144b34" d="M23.82 24.785a13.833 13.833 0 0 0 4.572-10.29c0-4.078-1.766-7.755-4.572-10.314A13.758 13.758 0 0 0 14.518.596c-7.664 0-13.9 6.235-13.9 13.9 0 7.677 6.236 13.874 13.9 13.874 3.599 0 6.86-1.364 9.302-3.585z"/></g></g><g><g><path fill="#144b34" d="M23.82 24.785a13.832 13.832 0 0 0 4.572-10.29c0-4.078-1.766-7.755-4.572-10.314z"/></g></g><g><g><path fill="#0c8354" d="M33.16.596c-3.586 0-6.86 1.364-9.328 3.585-.493.468-.948.948-1.39 1.468h2.807c.376.455.74.974 1.065 1.468H21.39c-.299.494-.571.974-.818 1.468h6.534c.221.494.442.974.598 1.468h-7.717a12.09 12.09 0 0 0-.402 1.494h8.508c.195.922.3 1.936.3 2.936 0 1.52-.248 3.014-.715 4.404h-7.69c.155.493.35.974.57 1.468h6.535c-.247.493-.493 1-.792 1.468h-4.924c.325.52.676 1 1.066 1.468h2.805a12.56 12.56 0 0 1-1.416 1.468 13.873 13.873 0 0 0 9.328 3.585A13.855 13.855 0 0 0 47.034 14.47C47.034 6.83 40.824.596 33.16.596z"/></g></g><g><path fill="url(#7p7ma)" d="M42.644 17.458h.103v-.078h-.103zm.116.22l-.052-.13h-.052v.13h-.117v-.377h.169c.052 0 .078 0 .104.026.025.026.051.053.051.08 0 .051-.026.103-.077.103l.077.168zm-31.723.273l1.04-5.417-2.378 5.417H8.126l-.272-5.391-1.04 5.391H5.242l1.34-7.04h2.713l.131 4.351 1.91-4.352h2.806l-1.364 7.041zm21.604 0l1.065-5.742h1.572l-.17.871c.52-.676.923-.923 1.494-.923h.195c0 .026.052.026.13.052.026 0 .065 0 .196.053l-.612 1.636-.195-.052c-.078 0-.169-.025-.22-.025-.844 0-1.092.622-1.716 4.13zm9.716-.454c0 .194.156.35.351.35.194 0 .325-.169.325-.35a.314.314 0 0 0-.325-.325c-.195 0-.35.13-.35.325zm-.116-.013c0-.247.22-.442.467-.442.246 0 .441.195.441.442 0 .246-.195.467-.441.467a.483.483 0 0 1-.467-.467zm-26.956-1.248c0 .35.22.598.597.598.701 0 1.22-.598 1.248-1.442-.195-.026-.273-.026-.378-.026-.974 0-1.467.298-1.467.87zm-1.69.247c0-1.39 1.118-2.208 3.053-2.208.196 0 .429 0 .702.026.052-.196.052-.273.052-.351 0-.377-.3-.52-1.117-.52-.493 0-1.027.051-1.417.13l-.245.078-.17.026.247-1.273c.87-.221 1.416-.299 2.066-.299 1.493 0 2.26.571 2.26 1.662 0 .3-.026.52-.13 1.143l-.351 2.04-.052.351-.052.3-.025.193-.04.17H16.96l.026-.598c-.441.467-1.04.676-1.819.676-.921 0-1.571-.624-1.571-1.546zm11.835 1.494c-.195 0-.364-.026-.467-.026l-.299-.079h-.078l.22-1.337a5.3 5.3 0 0 0 1.572.246c.69 0 1.014-.168 1.014-.52 0-.272-.117-.35-.819-.649-.934-.364-1.338-.883-1.338-1.584 0-1.053.688-1.923 2.638-1.936.377 0 1.051.026 1.52.104l-.247 1.3c-.429-.054-.923-.08-1.247-.08-.572 0-.871.17-.871.47 0 .271.077.35.82.622.895.364 1.246.818 1.246 1.611 0 1.312-.871 1.91-2.689 1.91-.234 0-.572 0-.975-.052zm4.053-1.156c0-.17.026-.325.052-.52l.104-.571.079-.442.792-4.378h1.715l-.247 1.299h.896l-.246 1.39h-.898l-.44 2.391c-.027.103-.053.194-.053.246 0 .299.195.441.598.441.195 0 .35-.026.468-.052l-.209 1.249c-.493.129-.844.194-1.247.194-.87 0-1.364-.442-1.364-1.247zm-8.248-2.402h1.909v-.3c0-.467-.299-.74-.818-.74-.546 0-.923.377-1.091 1.04zm1.143-2.338c1.416 0 2.312.818 2.312 2.065 0 .428-.052.843-.194 1.416h-3.457v.195c0 .649.495 1 1.494 1 .624 0 1.195-.104 1.793-.351l-.26 1.416a6.336 6.336 0 0 1-1.766.247c-1.924 0-2.936-.897-2.936-2.585 0-1.963 1.273-3.403 3.014-3.403zm15.978 3.338c0 .767.377 1.273.975 1.273.377 0 1.195-.52 1.337-1.39.052-.208.052-.455.052-.702 0-.597-.246-1.143-.948-1.143-.87 0-1.416 1.026-1.416 1.962zm-1.935.026c0-2.014 1.337-3.404 3.403-3.404 1.793 0 2.755 1.143 2.755 2.585-.015.364-.015.39-.066.714-.272 1.91-1.61 2.742-3.378 2.742-1.935 0-2.714-1.169-2.714-2.637z"/></g></g></g></svg>