<svg xmlns="http://www.w3.org/2000/svg" width="14" height="15" viewBox="0 0 14 15"><g><g><path fill="#fff" d="M12.658 11.785c0 .745-.606 1.351-1.352 1.351H2.652A1.353 1.353 0 0 1 1.3 11.785V6.009h2.106a3.837 3.837 0 0 0-.284 1.448 3.862 3.862 0 0 0 3.857 3.858 3.862 3.862 0 0 0 3.857-3.858c0-.512-.102-1-.284-1.448h2.106zM4.966 6.009a2.482 2.482 0 0 1 2.013-1.035c.829 0 1.562.41 2.013 1.035.294.408.47.908.47 1.448A2.486 2.486 0 0 1 6.98 9.94a2.486 2.486 0 0 1-2.483-2.483c0-.54.176-1.04.47-1.448zm7.122-3.98h.312v2.39l-2.383.008-.008-2.39zM11.306.404H2.652A2.73 2.73 0 0 0-.075 3.13v8.655a2.73 2.73 0 0 0 2.727 2.726h8.655a2.729 2.729 0 0 0 2.726-2.726V3.13A2.73 2.73 0 0 0 11.306.404z"/></g></g></svg>