<svg xmlns="http://www.w3.org/2000/svg" width="63" height="38" viewBox="0 0 63 38"><g><g><g><g><g><path fill="#07a9e2" d="M31.5 32.9c3.8-3.4 6.2-8.4 6.2-14s-2.4-10.5-6.2-14C28.2 1.9 23.7 0 18.9 0 8.5 0 0 8.5 0 18.9c0 10.4 8.5 18.8 18.9 18.8 4.8.1 9.3-1.8 12.6-4.8z"/></g></g></g><g><g><g><path fill="#009ddd" d="M0 18.9c0 10.4 8.5 18.8 18.9 18.8 4.9 0 9.3-1.8 12.6-4.9 3.8-3.4 6.2-8.4 6.2-14S35.3 8.4 31.5 4.9C28.2 1.9 23.7 0 18.9 0"/></g></g></g><g><g><path fill="#0284cc" d="M31.5 4.9C28.2 1.9 23.7 0 18.9 0H18c-5.9 4.3-9.7 11.2-9.7 18.9 0 7.7 3.8 14.6 9.6 18.8h.9c4.9 0 9.3-1.8 12.6-4.9 3.8-3.4 6.2-8.4 6.2-14S35.3 8.4 31.5 4.9z"/></g></g><g><g><g><path fill="#ff2957" d="M44.2 0c-4.9 0-9.3 1.8-12.7 4.9-.7.6-1.3 1.3-1.9 2h3.8c.5.6 1 1.3 1.4 2h-6.7c-.4.7-.8 1.3-1.1 2h8.9c.3.7.6 1.3.8 2H26.3c-.2.7-.4 1.3-.6 2h11.6c.3 1.3.4 2.6.4 4 0 2.1-.3 4.1-1 6H26.3c.2.7.5 1.3.8 2H36c-.3.7-.7 1.4-1.1 2h-6.7c.4.7.9 1.4 1.4 2h3.8c-.6.7-1.2 1.4-1.9 2 3.4 3 7.8 4.9 12.7 4.9C54.6 37.8 63 29.4 63 19 63 8.5 54.6 0 44.2 0z"/></g></g></g><g><g><g><path fill="#ed1c2e" d="M44.2 0c-4.9 0-9.3 1.8-12.7 4.9-.7.6-1.3 1.3-1.9 2h3.8c.5.6 1 1.3 1.4 2h-6.7c-.4.7-.8 1.3-1.1 2h8.9c.3.7.6 1.3.8 2H26.3c-.2.7-.4 1.3-.6 2h11.6c.3 1.3.4 2.6.4 4 0 2.1-.3 4.1-1 6H26.3c.2.7.5 1.3.8 2H36c-.3.7-.7 1.4-1.1 2h-6.7c.4.7.9 1.4 1.4 2h3.8c-.6.7-1.2 1.4-1.9 2 3.4 3 7.8 4.9 12.7 4.9C54.6 37.8 63 29.4 63 19"/></g></g></g><g><g><g><path fill="#0466b5" d="M31.5 32.9c3.8-3.4 6.2-8.4 6.2-14s-2.4-10.5-6.2-14z"/></g></g></g><g><g><g><path fill="#fff" d="M57.1 22.8h.1v.1l.1.2h.1l-.1-.2c.1 0 .1 0 .1-.1l-.1-.1H57v.5h.1zm-.5.2c0-.2.2-.4.5-.4.2 0 .4.1.4.4 0 .3-.1.5-.4.5-.2 0-.5-.3-.5-.5zm.5.6c.3 0 .6-.3.6-.6s-.3-.6-.6-.6-.6.3-.6.6.3.6.6.6z"/></g></g></g><g><g><path fill="#d1094b" d="M31.5 4.9c-.7.6-1.3 1.3-1.9 2h3.8c.5.6 1 1.3 1.4 2h-6.7c-.4.7-.8 1.3-1.1 2h8.9c.3.7.6 1.3.8 2H26.3c-.2.7-.4 1.3-.6 2h11.6c.3 1.3.4 2.6.4 4 0 2.1-.3 4.1-1 6H26.3c.2.7.5 1.3.8 2H36c-.3.7-.7 1.4-1.1 2h-6.7c.4.7.9 1.4 1.4 2h3.8c-.6.7-1.2 1.4-1.9 2 3.4 3 7.8 4.9 12.7 4.9h.9c5.8-4.2 9.6-11.1 9.6-18.8 0-7.7-3.8-14.6-9.6-18.8h-.9c-4.9-.2-9.3 1.7-12.7 4.7z"/></g></g><g><g><g><path fill="#fff" d="M16.5 23.6h-2.4l1.4-7.3-3.2 7.3h-2.1l-.4-7.3-1.4 7.3H6.3L8.1 14h3.7l.2 6 2.6-6h3.8z"/></g></g></g><g><g><path fill="#dce5e5" d="M14.2 19.4l1.4-3.1-1.1 5.8c.1.5.2 1.1.4 1.6h1.6l1.8-9.6h-3.5c-.4 1.5-.7 3.2-.7 4.9.1.1.1.2.1.4z"/></g></g><g><g><g><path fill="#dce5e5" d="M42.7 23.5c-.7.2-1.1.3-1.7.3-1.2 0-1.8-.6-1.8-1.7 0-.2 0-.4.1-.7l.1-.8.1-.6 1.1-5.9h2.3l-.3 1.8h1.2l-.3 1.8h-1.2l-.6 3.2c0 .1-.1.3-.1.3 0 .4.3.6.8.6.3 0 .5 0 .6-.1z"/></g></g></g><g><g><g><path fill="#dce5e5" d="M49.6 15.9c-.2-.1-.2-.1-.3-.1-.1 0-.2 0-.2-.1h-.3c-.8 0-1.3.3-2 1.3l.2-1.2h-2.1l-1.4 7.8h2.4c.8-4.8 1.2-5.6 2.3-5.6h.3l.3.1z"/></g></g></g><g><g><g><path fill="#dce5e5" d="M33.4 18.3c0 1 .6 1.7 1.8 2.1 1 .4 1.1.5 1.1.9 0 .5-.4.7-1.4.7-.7 0-1.4-.1-2.1-.3l-.3 1.8h.1l.4.1h.6c.6.1 1 .1 1.3.1 2.5 0 3.7-.8 3.7-2.6 0-1.1-.5-1.7-1.7-2.2-1-.4-1.1-.5-1.1-.8 0-.4.4-.6 1.2-.6.4 0 1.1 0 1.7.1l.3-1.8c-.6-.1-1.5-.1-2.1-.1-2.6 0-3.5 1.2-3.5 2.6z"/></g></g></g><g><g><g><path fill="#dce5e5" d="M20.7 22.1c-.5 0-.8-.3-.8-.8 0-.8.7-1.2 2-1.2h.5c0 1.2-.7 2-1.7 2zm3.5 1.4v-.3l.1-.4.1-.5.5-2.8c.2-.9.2-1.2.2-1.6 0-1.5-1.1-2.3-3.1-2.3-.9 0-1.6.1-2.8.4l-.3 1.7h.2l.3-.1c.5-.1 1.2-.2 1.9-.2 1.1 0 1.5.2 1.5.7 0 .1 0 .2-.1.5h-1c-2.6 0-4.1 1.1-4.1 3 0 1.2.8 2.1 2.1 2.1 1.1 0 1.9-.3 2.5-.9v.8h1.9z"/></g></g></g><g><g><g><path fill="#dce5e5" d="M28 18.8c.2-.9.8-1.4 1.5-1.4s1.1.4 1.1 1v.4zm4 2.7c-.8.4-1.5.5-2.4.5-1.3 0-2-.5-2-1.4v-.3h4.7c.2-.8.3-1.3.3-1.9 0-1.7-1.2-2.8-3.1-2.8-2.4 0-4.1 1.9-4.1 4.6 0 2.3 1.4 3.5 4 3.5.8 0 1.6-.1 2.4-.3z"/></g></g></g><g><g><g><path fill="#fff" d="M54.3 20.1c-.2 1.2-1.3 1.9-1.8 1.9-.8 0-1.3-.7-1.3-1.7 0-1.3.7-2.7 1.9-2.7 1 0 1.3.7 1.3 1.5 0 .3 0 .6-.1 1zm2.6-1c0-1.9-1.3-3.5-3.7-3.5-2.8 0-4.6 1.9-4.6 4.6 0 2 1.1 3.6 3.7 3.6 2.4 0 4.2-1.1 4.6-3.7v-1z"/></g></g></g><g><g><path fill="#fff" d="M48.7 21.1c.1-.7.2-1.5.2-2.2v-.2c-.1.5-.2 1-.2 1.6-.1.2-.1.5 0 .8z"/></g></g></g></g></svg>