<svg xmlns="http://www.w3.org/2000/svg" width="63" height="38" viewBox="0 0 63 38"><g><g><g><g><path fill="#ffb600" d="M63 18.901c.002 10.435-8.436 18.896-18.85 18.898-10.412.004-18.855-8.455-18.858-18.889v-.01C25.288 8.463 33.729.003 44.141 0 54.553-.003 62.997 8.456 63 18.891v.01z"/></g></g><g><g><path fill="#f7981d" d="M44.141.001C54.553-.002 62.997 8.456 63 18.892v.01c.002 10.435-8.436 18.896-18.85 18.898-10.412.004-18.855-8.455-18.858-18.889"/></g></g><g><g><path fill="#ff8500" d="M44.141.001C54.553-.002 62.997 8.456 63 18.892v.01c.002 10.435-8.436 18.896-18.85 18.898"/></g></g><g><g><path fill="#ff5050" d="M18.734.005C8.382.072 0 8.511 0 18.901c0 10.431 8.447 18.896 18.855 18.896 4.882 0 9.336-1.867 12.686-4.924v-.002h.002a18.978 18.978 0 0 0 1.915-2.023h-3.862a18.084 18.084 0 0 1-1.406-1.945h6.662c.406-.649.771-1.326 1.1-2.023H27.09a18.346 18.346 0 0 1-.787-1.984h10.436a19.058 19.058 0 0 0 .536-10.04H25.748c.144-.671.323-1.335.538-1.984h10.44a19.155 19.155 0 0 0-.812-2.024h-8.826c.318-.68.68-1.344 1.082-1.984h6.657a19.108 19.108 0 0 0-1.462-2.022h-3.713a17.55 17.55 0 0 1 1.891-1.908A18.756 18.756 0 0 0 18.855.009c-.042-.004-.082-.004-.121-.004z"/></g></g><g><g><path fill="#e52836" d="M0 18.901c0 10.431 8.447 18.896 18.855 18.896 4.882 0 9.336-1.867 12.686-4.924v-.002h.002a18.978 18.978 0 0 0 1.915-2.023h-3.862a18.084 18.084 0 0 1-1.406-1.945h6.662c.406-.649.771-1.326 1.1-2.023H27.09a18.346 18.346 0 0 1-.787-1.984h10.436a19.058 19.058 0 0 0 .536-10.04H25.748c.144-.671.323-1.335.538-1.984h10.44a19.155 19.155 0 0 0-.812-2.024h-8.826c.318-.68.68-1.344 1.082-1.984h6.657a19.108 19.108 0 0 0-1.462-2.022h-3.713a17.55 17.55 0 0 1 1.891-1.908A18.756 18.756 0 0 0 18.855.009h-.121"/></g></g><g><g><path fill="#cb2026" d="M18.855 37.796c4.882 0 9.336-1.867 12.686-4.924v-.002h.002a18.978 18.978 0 0 0 1.915-2.023h-3.862a18.084 18.084 0 0 1-1.406-1.945h6.662c.406-.649.771-1.326 1.1-2.023H27.09a18.346 18.346 0 0 1-.787-1.984h10.436a19.058 19.058 0 0 0 .536-10.04H25.748c.144-.671.323-1.335.538-1.984h10.44a19.155 19.155 0 0 0-.812-2.024h-8.826c.318-.68.68-1.344 1.082-1.984h6.657a19.108 19.108 0 0 0-1.462-2.022h-3.713a17.55 17.55 0 0 1 1.891-1.908A18.756 18.756 0 0 0 18.855.008h-.121"/></g></g><g><g><g><path fill="#fff" d="M25.635 23.712l.251-1.71c-.138 0-.34.059-.519.059-.697 0-.775-.373-.73-.647l.564-3.489h1.062l.257-1.893h-1.001l.205-1.176h-2.009c-.044.044-1.185 6.615-1.185 7.415 0 1.185.662 1.713 1.599 1.705.732-.008 1.305-.211 1.506-.264z"/></g></g><g><g><path fill="#fff" d="M29.792 17.609c1.132 0 .923 1.276.923 1.379h-2.229c-.001-.131.209-1.379 1.306-1.379zm-3.521 2.842c0 2.844 1.872 3.52 3.468 3.52 1.473 0 2.119-.331 2.119-.331l.355-1.94s-1.121.496-2.133.496c-2.155 0-1.777-1.611-1.777-1.611h4.08s.264-1.304.264-1.836c0-1.325-.66-2.939-2.863-2.939-2.02-.002-3.513 2.178-3.513 4.641z"/></g></g><g><g><path fill="#fff" d="M42.502 23.712l.359-2.196s-.984.498-1.66.498c-1.424 0-1.995-1.092-1.995-2.261 0-2.376 1.225-3.684 2.589-3.684 1.023 0 1.844.577 1.844.577l.328-2.131s-1.218-.494-2.261-.494c-2.318 0-4.573 2.014-4.573 5.799 0 2.508 1.219 4.166 3.613 4.166.678 0 1.756-.274 1.756-.274z"/></g></g><g><g><path fill="#fff" d="M15.024 20.349c.037.34-.214 1.926-1.422 1.926-.623 0-.786-.479-.786-.76 0-.551.299-1.212 1.771-1.212.343 0 .379.038.437.046zm-.431-4.51c-1.377 0-2.431.441-2.431.441l-.292 1.734s.872-.354 2.188-.354c.746 0 1.293.084 1.293.693 0 .37-.066.507-.066.507s-.589-.051-.863-.051c-1.734 0-3.559.742-3.559 2.982 0 1.764 1.195 2.168 1.938 2.168 1.416 0 2.025-.92 2.059-.924l-.064.77h1.767l.788-5.541c-.001-2.348-2.047-2.425-2.758-2.425z"/></g></g><g><g><path fill="#fff" d="M19.229 23.92c.452 0 3.036.117 3.036-2.557 0-2.5-2.392-2.006-2.392-3.011 0-.497.389-.657 1.103-.657.282 0 1.372.091 1.372.091l.254-1.777s-.705-.157-1.852-.157c-1.487 0-2.994.593-2.994 2.626 0 2.306 2.514 2.072 2.514 3.042 0 .648-.702.702-1.244.702-.936 0-1.777-.323-1.781-.308l-.269 1.758c.047.016.569.248 2.253.248z"/></g></g><g><g><path fill="#fff" d="M58.199 19.498c0 1.061-.525 2.479-1.613 2.479-.724 0-1.061-.607-1.061-1.562 0-1.559.698-2.59 1.579-2.59.724.001 1.095.499 1.095 1.673zm.932-5.254l-.433 2.693s-.756-1.045-1.938-1.045c-1.84 0-3.373 2.222-3.373 4.775 0 1.65.817 3.263 2.489 3.263 1.203 0 1.868-.84 1.868-.84l-.087.717h1.952l1.534-9.567z"/></g></g><g><g><path fill="#fff" d="M3.723 23.816l1.223-7.223.18 7.223h1.383l2.582-7.223-1.145 7.223H10l1.584-9.577H8.406l-1.98 5.876-.103-5.876H3.395L1.79 23.816z"/></g></g><g><g><path fill="#fff" d="M34.653 23.831c.584-3.329.692-6.034 2.087-5.541.244-1.288.479-1.786.746-2.332 0 0-.125-.026-.388-.026-.897 0-1.563 1.231-1.563 1.231l.178-1.13h-1.87l-1.251 7.798z"/></g></g><g><g><path fill="#fff" d="M47.565 20.349c.038.34-.21 1.926-1.422 1.926-.623 0-.784-.479-.784-.76 0-.551.299-1.212 1.769-1.212.343 0 .379.038.437.046zm-.43-4.51c-1.377 0-2.432.441-2.432.441l-.29 1.734s.869-.354 2.187-.354c.748 0 1.295.084 1.295.693 0 .37-.068.507-.068.507s-.589-.051-.863-.051c-1.736 0-3.559.742-3.559 2.982 0 1.764 1.196 2.168 1.938 2.168 1.417 0 2.026-.92 2.059-.924l-.064.77h1.769l.788-5.541c-.002-2.348-2.047-2.425-2.76-2.425z"/></g></g><g><g><path fill="#fff" d="M51.506 23.831c.586-3.329.693-6.034 2.089-5.541.244-1.288.479-1.786.746-2.332 0 0-.126-.026-.388-.026-.9 0-1.564 1.231-1.564 1.231l.18-1.13h-1.871l-1.252 7.798z"/></g></g></g><g><g><g><path fill="#dce5e5" d="M22.53 22.271c0 1.185.662 1.713 1.599 1.705.732-.008 1.305-.211 1.506-.265l.251-1.71c-.138 0-.34.059-.519.059-.697 0-.775-.373-.73-.647l.564-3.489h1.062l.257-1.893h-1.001l.205-1.176"/></g></g><g><g><path fill="#dce5e5" d="M29.792 17.609c1.132 0 1.265 1.276 1.265 1.379h-2.571c-.001-.131.209-1.379 1.306-1.379zm-2.537 2.842c0 2.844.888 3.52 2.483 3.52 1.473 0 2.119-.331 2.119-.331l.355-1.94s-1.121.496-2.133.496c-2.155 0-1.777-1.611-1.777-1.611h4.08s.264-1.304.264-1.836c0-1.325-.66-2.939-2.863-2.939-2.019-.002-2.528 2.178-2.528 4.641z"/></g></g><g><g><path fill="#dce5e5" d="M42.502 23.712l.359-2.196s-.984.498-1.66.498c-1.424 0-1.995-1.092-1.995-2.261 0-2.376 1.225-3.684 2.589-3.684 1.023 0 1.844.577 1.844.577l.328-2.131s-1.218-.494-2.261-.494c-2.318 0-3.589 2.014-3.589 5.799 0 2.508.234 4.166 2.629 4.166.678 0 1.756-.274 1.756-.274z"/></g></g><g><g><path fill="#dce5e5" d="M16.009 20.349c.037.34-1.198 1.926-2.406 1.926-.623 0-.786-.479-.786-.76 0-.551.299-1.212 1.771-1.212.342 0 1.362.038 1.421.046zm-4.139-2.334s.872-.354 2.188-.354c.746 0 1.293.084 1.293.693 0 .37-.066.507-.066.507s-.589-.051-.863-.051c-1.734 0-3.559.742-3.559 2.982 0 1.764 1.195 2.168 1.938 2.168 1.416 0 2.025-.92 2.059-.924l-.064.77h1.767l.788-5.541c0-2.35-2.046-2.426-2.757-2.426z"/></g></g><g><g><path fill="#dce5e5" d="M16.976 23.671c.048.017.569.248 2.253.248.452 0 3.036.117 3.036-2.557 0-2.5-2.392-2.006-2.392-3.011 0-.497.389-.657 1.103-.657.282 0 1.372.091 1.372.091l.254-1.777s-.705-.157-1.852-.157c-1.487 0-2.01.593-2.01 2.626 0 2.306 1.529 2.072 1.529 3.042 0 .648-.702.702-1.244.702"/></g></g><g><g><path fill="#dce5e5" d="M58.619 19.498c0 1.061-.945 2.479-2.033 2.479-.724 0-1.061-.607-1.061-1.562 0-1.559.698-2.59 1.579-2.59.724.001 1.515.499 1.515 1.673zm.079-2.561s-.756-1.045-1.938-1.045c-1.84 0-2.389 2.222-2.389 4.775 0 1.65-.167 3.263 1.505 3.263 1.203 0 1.868-.84 1.868-.84l-.087.717h1.952l1.534-9.567z"/></g></g><g><g><path fill="#dce5e5" d="M3.723 23.816l1.223-7.223.18 7.223h1.383l2.582-7.223-1.145 7.223H10l1.584-9.577H9.246l-2.82 5.876-.103-5.876H5.207l-3.418 9.577z"/></g></g><g><g><path fill="#dce5e5" d="M32.592 23.831h2.062c.584-3.329.692-6.034 2.087-5.541.244-1.288.479-1.786.746-2.332 0 0-.125-.026-.388-.026-.897 0-1.563 1.231-1.563 1.231l.178-1.13"/></g></g><g><g><path fill="#dce5e5" d="M48.55 20.349c.038.34-1.194 1.926-2.406 1.926-.623 0-.784-.479-.784-.76 0-.551.299-1.212 1.769-1.212.342 0 1.362.038 1.421.046zm-4.137-2.334s.869-.354 2.187-.354c.748 0 1.295.084 1.295.693 0 .37-.068.507-.068.507s-.589-.051-.863-.051c-1.736 0-3.559.742-3.559 2.982 0 1.764 1.196 2.168 1.938 2.168 1.417 0 2.026-.92 2.059-.924l-.064.77h1.769l.788-5.541c0-2.35-2.045-2.426-2.758-2.426z"/></g></g><g><g><path fill="#dce5e5" d="M49.445 23.831h2.061c.586-3.329.693-6.034 2.089-5.541.244-1.288.479-1.786.746-2.332 0 0-.126-.026-.388-.026-.9 0-1.564 1.231-1.564 1.231l.18-1.13"/></g></g></g></g></g></svg>