<svg xmlns="http://www.w3.org/2000/svg" width="90" height="26" viewBox="0 0 90 26"><defs><linearGradient id="o1m4a" x1="63.19" x2="89.54" y1="5.25" y2="5.25" gradientUnits="userSpaceOnUse"><stop offset=".3" stop-color="#00b4e6"/><stop offset="1" stop-color="#088ccb"/></linearGradient></defs><g><g><g><g><path fill="#4db45e" d="M24.13.055v.01c-.012 0-3.498-.01-4.428 3.321-.852 3.055-3.254 11.49-3.32 11.722h-.665s-2.457-8.622-3.32-11.733C11.467.044 7.969.055 7.969.055H0v25.347h7.97V10.348h.664l4.648 15.054h5.535l4.648-15.042h.665v15.042h7.969V.055z"/></g></g><g><g><path fill="#4db45e" d="M53.24.055s-2.336.21-3.431 2.656l-5.645 12.397H43.5V.055h-7.97v25.347h7.527s2.446-.222 3.542-2.657l5.534-12.397h.664v15.054h7.97V.055z"/></g></g><g><g><path fill="#4db45e" d="M64.309 11.566v13.836h7.969v-8.08h8.633a8.622 8.622 0 0 0 8.136-5.756z"/></g></g><g><g><path fill="url(#o1m4a)" d="M80.911.055h-17.72c.885 4.826 4.504 8.7 9.187 9.961 1.062.288 2.18.443 3.331.443h13.659a8.506 8.506 0 0 0 .177-1.77A8.63 8.63 0 0 0 80.91.054z"/></g></g></g></g></svg>