<svg xmlns="http://www.w3.org/2000/svg" width="21" height="21" viewBox="0 0 21 21"><g><g><g><g/><g><path d="M19.154 0C20.172 0 21 .828 21 1.846v17.308A1.848 1.848 0 0 1 19.154 21H1.846A1.848 1.848 0 0 1 0 19.154V1.846C0 .828.828 0 1.846 0zM1.23 4.922h18.54V1.846a.616.616 0 0 0-.616-.616H1.846a.616.616 0 0 0-.616.616zm18.54 1.23H1.23v13.002c0 .34.277.615.616.615h17.308c.34 0 .615-.275.615-.615z"/></g><g><path d="M18.54 3.075a.615.615 0 1 1-1.23 0 .615.615 0 0 1 1.23 0z"/></g><g><path d="M16.08 3.075a.615.615 0 1 1-1.23 0 .615.615 0 0 1 1.23 0z"/></g><g><path d="M13.62 3.075a.615.615 0 1 1-1.23 0 .615.615 0 0 1 1.23 0z"/></g></g></g></g></svg>