<svg xmlns="http://www.w3.org/2000/svg" width="46" height="47" viewBox="0 0 46 47"><g><g><g><g><g><path fill="#009e62" d="M11.218 15.255a2.853 2.853 0 0 1-4.03 0 2.853 2.853 0 0 1 0-4.03 2.84 2.84 0 0 1 2.015-.833c.73 0 1.46.278 2.015.833a2.853 2.853 0 0 1 0 4.03zm4.497-8.527c-3.59-3.59-9.433-3.59-13.024 0-3.59 3.591-3.59 9.434 0 13.024a9.18 9.18 0 0 0 6.512 2.693 9.181 9.181 0 0 0 6.512-2.693c3.59-3.59 3.59-9.433 0-13.024z"/></g></g></g><g><g><g><path fill="#009e62" d="M38.795 35.714a2.853 2.853 0 0 1-4.03 0 2.83 2.83 0 0 1-.835-2.015c0-.761.296-1.477.835-2.015a2.84 2.84 0 0 1 2.014-.833c.73 0 1.46.278 2.016.833a2.83 2.83 0 0 1 .834 2.015 2.83 2.83 0 0 1-.834 2.015zm4.496-8.527c-3.59-3.59-9.433-3.59-13.023 0s-3.59 9.433 0 13.024a9.178 9.178 0 0 0 6.512 2.693 9.183 9.183 0 0 0 6.512-2.693c3.59-3.59 3.59-9.433 0-13.024z"/></g></g></g><g><g><g><path fill="#009e62" d="M37.345.974a3.18 3.18 0 0 0-4.385.997L7.974 41.651a3.18 3.18 0 0 0 5.381 3.39L38.341 5.359a3.18 3.18 0 0 0-.996-4.385z"/></g></g></g></g></g></svg>