<svg xmlns="http://www.w3.org/2000/svg" width="51" height="51" viewBox="0 0 51 51"><g><g><g><g><path fill="#009e62" d="M48.012 19.424c0 .824-.67 1.494-1.494 1.494H31.477v-5.977h15.04c.824 0 1.495.67 1.495 1.495zm-2.989 27.094c0 .823-.67 1.494-1.494 1.494H31.477V23.906h13.546zm-16.535 1.494h-5.976v-33.07h5.976zm-8.965-27.094H4.483c-.824 0-1.495-.67-1.495-1.494v-2.988c0-.824.67-1.495 1.494-1.495h15.041zm0 27.094H7.471c-.824 0-1.494-.67-1.494-1.494V23.906h13.546zM16.535 2.988c3.063 0 3.933 1.837 6.222 7.644l.523 1.321h-6.745a4.488 4.488 0 0 1-4.482-4.482 4.488 4.488 0 0 1 4.482-4.483zm11.708 7.644c2.289-5.807 3.159-7.644 6.222-7.644a4.488 4.488 0 0 1 4.482 4.483 4.488 4.488 0 0 1-4.482 4.482H27.72l.523-1.32zm12.194 1.321a7.432 7.432 0 0 0 1.499-4.482C41.936 3.35 38.584 0 34.465 0c-2.482 0-4.311.889-5.758 2.798C27.496 4.395 26.61 6.624 25.5 9.44c-1.11-2.817-1.996-5.046-3.207-6.643C20.846.889 19.017 0 16.535 0c-4.12 0-7.47 3.351-7.47 7.47 0 1.681.558 3.234 1.498 4.483h-6.08A4.488 4.488 0 0 0 0 16.436v2.988a4.49 4.49 0 0 0 2.988 4.225v22.869A4.488 4.488 0 0 0 7.471 51h36.058a4.488 4.488 0 0 0 4.483-4.482V23.649A4.49 4.49 0 0 0 51 19.424v-2.988a4.488 4.488 0 0 0-4.482-4.483z"/></g></g></g></g></svg>