<svg xmlns="http://www.w3.org/2000/svg" width="68" height="71" viewBox="0 0 68 71"><defs><linearGradient id="h563a" x1="33.95" x2="33.95" y1="0" y2="70.23" gradientUnits="userSpaceOnUse"><stop offset="0" stop-color="#eed096"/><stop offset="1" stop-color="#865b26"/></linearGradient></defs><g><g><path fill="url(#h563a)" d="M2.341 32.776h63.212v1.17c-.001.647-.525 1.17-1.171 1.171H3.512c-.646 0-1.17-.524-1.17-1.17zm5.853-3.511C8.194 17 18.171 7.023 30.435 7.023h7.024c12.263 0 22.24 9.978 22.24 22.242v1.17H8.195zM32.776 2.34h2.341v2.341h-2.34zM22.964 37.46h24.229l-5.834 10.694-3.817.954-10.94-4.376zm30.572.536c.22.334.25.757.082 1.118l-4.349 9.567c-.069.152-.105.317-.105.484v7.426a3.49 3.49 0 0 1-1.028 2.483l-.97.97a1.17 1.17 0 0 0-.343.827v2.341h-7.757L22.03 48.447l-4.243-9.333a1.17 1.17 0 0 1 1.066-1.655h.77c.444-.002.85.249 1.048.647l4.035 8.07c.128.257.346.457.612.564l11.706 4.682c.228.091.48.108.718.049l4.683-1.171a1.17 1.17 0 0 0 .744-.575l6.358-11.656c.205-.377.599-.61 1.027-.61h1.998c.4-.004.771.2.984.536zm-5.542 29.899H36.288v-2.341h11.706zM11.95 38.204a1.145 1.145 0 0 1 1.091-.745h.668c.46 0 .876.268 1.066.686l.88 1.936v.001l1.973 4.34-5.378-4.93a1.145 1.145 0 0 1-.3-1.287zm-8.44-.745h6.223a3.487 3.487 0 0 0 .935 3.759l9.61 8.809.001-.001.024.022L35.49 63.211h-.374a1.17 1.17 0 0 0-1.17 1.17v4.683c0 .647.524 1.17 1.17 1.17h14.047a1.17 1.17 0 0 0 1.171-1.17v-4.682a1.17 1.17 0 0 0-1.17-1.17v-1.857l.626-.627a5.814 5.814 0 0 0 1.715-4.138v-7.172l4.243-9.335a3.495 3.495 0 0 0 .113-2.624h8.52a3.516 3.516 0 0 0 3.512-3.512v-2.341a1.17 1.17 0 0 0-1.17-1.17H62.04v-1.171c0-13.555-11.028-24.583-24.582-24.583v-2.34h1.17a1.17 1.17 0 0 0 0-2.342h-9.364a1.17 1.17 0 0 0 0 2.341h1.17v2.341C16.88 4.682 5.853 15.71 5.853 29.265v1.17H1.17A1.17 1.17 0 0 0 0 31.605v2.342a3.516 3.516 0 0 0 3.512 3.512z"/></g></g></svg>