<svg xmlns="http://www.w3.org/2000/svg" width="31" height="31" viewBox="0 0 31 31"><g><g><g><path fill="#04233d" d="M15.415 1.551c2.438 0 4.88.692 7.061 2.002a15.287 15.287 0 0 1 3.684 3.1l-3.645-.12a.775.775 0 1 0-.05 1.55l5.042.167a.776.776 0 0 0 1.012-1.014l-.166-5.041a.776.776 0 1 0-1.55.051l.095 2.909a16.919 16.919 0 0 0-3.623-2.933C20.852.768 18.135 0 15.415 0 11.072 0 7.067 1.791 4.14 5.043 1.548 7.923 0 11.8 0 15.415a.776.776 0 1 0 1.551 0c0-3.241 1.399-6.73 3.742-9.334 2.63-2.92 6.224-4.53 10.122-4.53z"/></g><g><path fill="#04233d" d="M30.25 14.64a.775.775 0 0 0-.776.775c0 3.241-1.4 6.731-3.742 9.335-2.63 2.92-6.224 4.529-10.122 4.529-2.438 0-4.88-.692-7.061-2.001a15.298 15.298 0 0 1-3.684-3.101l3.645.12a.776.776 0 0 0 .05-1.55l-5.042-.167a.776.776 0 0 0-1.012 1.013l.166 5.042a.776.776 0 0 0 1.551-.034v-.017l-.096-2.909a16.927 16.927 0 0 0 3.623 2.933c2.423 1.454 5.14 2.222 7.86 2.222 4.343 0 8.348-1.79 11.275-5.042 2.592-2.881 4.14-6.759 4.14-10.373a.775.775 0 0 0-.776-.776z"/></g></g></g></svg>