<svg xmlns="http://www.w3.org/2000/svg" width="54" height="56" viewBox="0 0 54 56"><defs><linearGradient id="c1via" x1="26.62" x2="26.62" y1=".25" y2="55.7" gradientUnits="userSpaceOnUse"><stop offset="0" stop-color="#eed096"/><stop offset="1" stop-color="#865b26"/></linearGradient><linearGradient id="c1vib" x1="26.62" x2="26.62" y1="15.83" y2="40.14" gradientUnits="userSpaceOnUse"><stop offset="0" stop-color="#eed096"/><stop offset="1" stop-color="#865b26"/></linearGradient><linearGradient id="c1vic" x1="20.23" x2="20.23" y1="13.59" y2="25.32" gradientUnits="userSpaceOnUse"><stop offset="0" stop-color="#eed096"/><stop offset="1" stop-color="#865b26"/></linearGradient><linearGradient id="c1vid" x1="33.02" x2="33.02" y1="30.65" y2="42.38" gradientUnits="userSpaceOnUse"><stop offset="0" stop-color="#eed096"/><stop offset="1" stop-color="#865b26"/></linearGradient></defs><g><g><g><g><g><path fill="url(#c1via)" d="M49.147 36.497l-4.16 2.207a4.803 4.803 0 0 0-2.496 3.435l-.813 4.638a1.629 1.629 0 0 1-1.84 1.337l-4.663-.66a4.802 4.802 0 0 0-4.038 1.312l-3.384 3.274a1.629 1.629 0 0 1-2.274 0l-3.385-3.274a4.798 4.798 0 0 0-4.038-1.312l-4.663.66a1.63 1.63 0 0 1-1.84-1.337l-.813-4.638a4.803 4.803 0 0 0-2.495-3.435l-4.16-2.207a1.629 1.629 0 0 1-.703-2.163l2.068-4.23a4.803 4.803 0 0 0 0-4.246l-2.068-4.231a1.629 1.629 0 0 1 .703-2.163l4.16-2.207a4.803 4.803 0 0 0 2.495-3.435l.814-4.638a1.629 1.629 0 0 1 1.84-1.337l4.662.66a4.803 4.803 0 0 0 4.038-1.312l3.385-3.275a1.629 1.629 0 0 1 2.274 0l3.384 3.275a4.802 4.802 0 0 0 4.038 1.312l4.663-.66a1.629 1.629 0 0 1 1.84 1.337l.813 4.638a4.803 4.803 0 0 0 2.496 3.435l4.16 2.207a1.629 1.629 0 0 1 .702 2.163l-2.068 4.23a4.803 4.803 0 0 0 0 4.246l2.068 4.23c.39.798.081 1.748-.702 2.164zm1.508-7.798a1.625 1.625 0 0 1 0-1.437l2.068-4.23a4.814 4.814 0 0 0-2.077-6.393l-4.16-2.207a1.625 1.625 0 0 1-.845-1.162l-.813-4.639a4.814 4.814 0 0 0-5.438-3.95l-4.663.659a1.625 1.625 0 0 1-1.366-.444l-3.384-3.274a4.814 4.814 0 0 0-6.722 0L19.87 4.896a1.626 1.626 0 0 1-1.366.444l-4.663-.66a4.813 4.813 0 0 0-5.437 3.951L7.59 13.27c-.088.5-.395.924-.844 1.162l-4.16 2.207a4.814 4.814 0 0 0-2.077 6.393l2.068 4.23c.223.457.223.98 0 1.437l-2.068 4.23a4.814 4.814 0 0 0 2.077 6.393l4.16 2.207c.449.238.756.662.844 1.162l.814 4.639a4.81 4.81 0 0 0 5.438 3.95l4.662-.659c.503-.071 1.001.09 1.366.444l3.385 3.274a4.818 4.818 0 0 0 3.36 1.368 4.82 4.82 0 0 0 3.361-1.368l3.385-3.274a1.627 1.627 0 0 1 1.366-.444l4.663.66a4.813 4.813 0 0 0 5.438-3.951l.813-4.638c.088-.5.396-.924.845-1.163l4.16-2.207a4.814 4.814 0 0 0 2.077-6.392z"/></g></g></g><g><g><g><path fill="url(#c1vib)" d="M38.3 16.296a1.6 1.6 0 0 0-2.261 0L14.93 37.403a1.6 1.6 0 0 0 2.262 2.262L38.3 18.558a1.599 1.599 0 0 0 0-2.262z"/></g></g></g><g><g><g><path fill="url(#c1vic)" d="M20.22 22.117a2.668 2.668 0 0 1-2.666-2.665 2.668 2.668 0 0 1 2.665-2.665 2.668 2.668 0 0 1 2.665 2.665 2.668 2.668 0 0 1-2.665 2.665zm0-8.529a5.87 5.87 0 0 0-5.864 5.864 5.87 5.87 0 0 0 5.863 5.863 5.87 5.87 0 0 0 5.864-5.863 5.87 5.87 0 0 0-5.864-5.864z"/></g></g></g><g><g><g><path fill="url(#c1vid)" d="M33.012 39.174a2.668 2.668 0 0 1-2.665-2.665 2.668 2.668 0 0 1 2.665-2.665 2.668 2.668 0 0 1 2.665 2.665 2.668 2.668 0 0 1-2.665 2.665zm0-8.528a5.87 5.87 0 0 0-5.863 5.863 5.87 5.87 0 0 0 5.863 5.864 5.87 5.87 0 0 0 5.864-5.864 5.87 5.87 0 0 0-5.864-5.863z"/></g></g></g></g></g></svg>