<svg xmlns="http://www.w3.org/2000/svg" width="135" height="28" viewBox="0 0 135 28"><g><g><g><path fill="#f3f3f3" d="M1.54 10.32a5.264 5.264 0 1 1 7.444 7.443A5.264 5.264 0 0 1 1.54 10.32z"/></g><g><path fill="#f3f3f3" d="M18.915 7.87a8.728 8.728 0 1 1 12.344 12.343A8.728 8.728 0 0 1 18.915 7.869z"/></g><g><path fill="#f3f3f3" d="M42.906 4.666c5.178-5.178 13.573-5.178 18.751 0 5.178 5.178 5.178 13.573 0 18.75-5.178 5.179-13.573 5.179-18.75 0-5.179-5.177-5.179-13.572 0-18.75z"/></g><g><path fill="#f3f3f3" d="M132.873 17.763a5.264 5.264 0 1 1-7.445-7.444 5.264 5.264 0 0 1 7.445 7.444z"/></g><g><path fill="#f3f3f3" d="M115.498 20.213A8.728 8.728 0 1 1 103.154 7.87a8.728 8.728 0 0 1 12.344 12.344z"/></g><g><path fill="#f3f3f3" d="M91.507 23.417c-5.178 5.178-13.574 5.178-18.752 0-5.178-5.178-5.178-13.573 0-18.751 5.178-5.178 13.574-5.178 18.752 0 5.178 5.178 5.178 13.573 0 18.75z"/></g></g></g></svg>