<svg xmlns="http://www.w3.org/2000/svg" width="57" height="54" viewBox="0 0 57 54"><defs><linearGradient id="xti2a" x1="28.49" x2="28.49" y1=".25" y2="53.47" gradientUnits="userSpaceOnUse"><stop offset="0" stop-color="#eed096"/><stop offset="1" stop-color="#865b26"/></linearGradient></defs><g><g><g><path fill="url(#xti2a)" d="M52.297 23.038l-13.1 9.567 4.963 15.481c.334 1.042-.372 1.652-.596 1.814-.225.161-1.025.64-1.91-.006l-13.093-9.562-13.236 9.567c-.888.642-1.687.158-1.91-.006-.224-.163-.927-.778-.584-1.819l5.093-15.47-13.228-9.561c-.89-.643-.68-1.553-.594-1.817.085-.264.449-1.125 1.545-1.125h16.34l4.96-15.47c.334-1.042 1.263-1.127 1.54-1.128h.006c.283 0 1.203.083 1.544 1.117L35.134 20.1H51.34c1.094 0 1.46.858 1.545 1.121.086.263.297 1.17-.587 1.816zm3.676-2.824c-.667-2.042-2.485-3.362-4.634-3.362H37.485L33.122 3.603c-.67-2.036-2.485-3.35-4.627-3.35l-.021.001c-2.15.008-3.965 1.337-4.622 3.386l-4.235 13.212H5.647c-2.154 0-3.974 1.324-4.637 3.373-.663 2.05.037 4.189 1.782 5.45l11.303 8.17-4.35 13.213c-.674 2.045.014 4.187 1.751 5.458a4.859 4.859 0 0 0 2.877.958c.993 0 1.987-.314 2.856-.942l11.322-8.184 11.188 8.17c1.736 1.268 3.983 1.274 5.726.016 1.743-1.257 2.445-3.393 1.79-5.44l-4.248-13.248 11.206-8.184c1.735-1.267 2.426-3.405 1.76-5.448z"/></g></g></g></svg>