<svg xmlns="http://www.w3.org/2000/svg" width="24" height="23" viewBox="0 0 24 23"><g><g><g><g><path fill="#009e62" d="M9.977 13.278c-2.163-2.163-2.651-4.326-2.762-5.193a.777.777 0 0 1 .223-.65l1.75-1.75a.781.781 0 0 0 .111-.967L6.512.391A.781.781 0 0 0 5.5.106L1.026 2.213a.777.777 0 0 0-.43.776C.83 5.217 1.8 10.691 7.18 16.072c5.38 5.38 10.855 6.351 13.083 6.586a.777.777 0 0 0 .776-.43l2.108-4.474a.781.781 0 0 0-.284-1.011l-4.327-2.786a.781.781 0 0 0-.967.11l-1.75 1.75a.777.777 0 0 1-.65.223c-.867-.11-3.03-.599-5.193-2.762z"/></g><g><path fill="#196846" d="M20.52 5.86a.781.781 0 1 1 0-1.562.781.781 0 0 1 0 1.563zm-3.126 0a.781.781 0 1 1 0-1.562.781.781 0 0 1 0 1.563zm-3.126 0a.781.781 0 1 1 0-1.562.781.781 0 0 1 0 1.563zM17.394 0c-3.237 0-5.86 2.274-5.86 5.08a4.593 4.593 0 0 0 .996 2.833l-.606 3.027 3.073-1.229a6.603 6.603 0 0 0 2.397.448c3.237 0 5.861-2.274 5.861-5.08 0-2.805-2.624-5.079-5.86-5.079z"/></g></g></g></g></svg>