<svg xmlns="http://www.w3.org/2000/svg" width="15" height="22" viewBox="0 0 15 22"><g><g><path fill="#fff" d="M5.771 6.636l.388-.184a2.433 2.433 0 0 0 1.49-1.604c.145-.662-.04-1.534-.557-2.617-.367-.764-.745-1.221-1.122-1.37-.377-.15-.933-.05-1.648.293l-.452.218A6.89 6.89 0 0 1 5.13 3.095a6.915 6.915 0 0 1 .64 3.54zm6.848 12.428c.3.614.509 1.268.62 1.942l.497-.243c.51-.177.922-.559 1.137-1.053a2.602 2.602 0 0 0-.362-1.698c-.993-2.062-2.241-2.725-3.744-1.987l-.497.229a7.497 7.497 0 0 1 2.35 2.81zM9.765 21.66c1.017 0 2.03-.145 3.008-.43a10.247 10.247 0 0 0-.685-1.912 8.267 8.267 0 0 0-2.334-2.82l-.224.108c-1.04.497-2.31-.827-3.813-3.972-1.553-3.24-1.812-5.11-.78-5.606l.229-.11a7.03 7.03 0 0 0-.611-3.629 5.854 5.854 0 0 0-1.207-1.673A10.802 10.802 0 0 0 .667 4.312c.143 1.58.436 3.142.874 4.668a29.935 29.935 0 0 0 1.798 4.662A30.772 30.772 0 0 0 5.9 18.037a24.144 24.144 0 0 0 3.088 3.595c.259.019.517.028.776.028z"/></g></g></svg>