<svg xmlns="http://www.w3.org/2000/svg" width="64" height="110" viewBox="0 0 64 110"><defs><linearGradient id="gv7ba" x1="89.76" x2="-71.37" y1="-.11" y2="109.46" gradientUnits="userSpaceOnUse"><stop offset="0" stop-color="#f0d399"/><stop offset="1" stop-color="#987531"/></linearGradient></defs><g><g><path fill="url(#gv7ba)" d="M20.415 45.231h10.034c3.809 0 6.604-1.33 8.386-3.991 1.783-2.661 2.674-6.214 2.674-10.657 0-4.248-.916-7.556-2.747-9.924-1.83-2.368-4.284-3.553-7.36-3.553-2.881 0-5.237 1.123-7.068 3.37-1.832 2.246-2.747 5.078-2.747 8.496H.859c0-5.567 1.282-10.56 3.846-14.978C7.268 9.574 10.857 6.12 15.47 3.63c4.614-2.49 9.73-3.735 15.344-3.735 9.815 0 17.505 2.71 23.072 8.13 5.566 5.42 8.35 12.841 8.35 22.265 0 4.834-1.258 9.314-3.773 13.44-2.514 4.126-5.822 7.288-9.924 9.485 5.03 2.148 8.777 5.37 11.243 9.668 2.466 4.297 3.698 9.375 3.698 15.234 0 9.473-3.015 17.066-9.045 22.779-6.03 5.712-13.953 8.569-23.767 8.569-9.13 0-16.54-2.82-22.229-8.46-5.689-5.64-8.533-13.049-8.533-22.229h20.728c0 3.809 1 7.007 3.003 9.595 2.002 2.588 4.54 3.882 7.617 3.882 3.564 0 6.384-1.318 8.46-3.955 2.075-2.637 3.112-6.152 3.112-10.547 0-10.498-4.077-15.771-12.231-15.82H20.415z"/></g></g></svg>