<svg xmlns="http://www.w3.org/2000/svg" width="65" height="108" viewBox="0 0 65 108"><defs><linearGradient id="fz6la" x1="91.51" x2="-72.24" y1="-.11" y2="108" gradientUnits="userSpaceOnUse"><stop offset="0" stop-color="#f0d399"/><stop offset="1" stop-color="#987531"/></linearGradient></defs><g><g><path fill="url(#fz6la)" d="M64.8 108H1.958V93.352l28.857-36.695c3.663-5.078 6.36-9.533 8.094-13.366 1.733-3.833 2.6-7.508 2.6-11.023 0-4.737-.818-8.448-2.454-11.133-1.636-2.686-3.992-4.029-7.068-4.029-3.369 0-6.042 1.563-8.02 4.688-1.977 3.125-2.966 7.52-2.966 13.184H.201c0-6.543 1.354-12.525 4.064-17.945S10.784 7.402 15.691 4.4 26.152-.105 32.354-.105c9.521 0 16.906 2.624 22.155 7.873 5.25 5.25 7.874 12.708 7.874 22.376 0 6.005-1.453 12.097-4.358 18.273C55.12 54.594 49.858 62.2 42.24 71.232L28.545 90.788H64.8z"/></g></g></svg>