<svg xmlns="http://www.w3.org/2000/svg" width="57" height="56" viewBox="0 0 57 56"><defs><linearGradient id="il5ra" x1="28.47" x2="28.47" y1=".55" y2="56" gradientUnits="userSpaceOnUse"><stop offset="0" stop-color="#eed096"/><stop offset="1" stop-color="#865b26"/></linearGradient><linearGradient id="il5rb" x1="28.47" x2="28.47" y1="7.48" y2="49.84" gradientUnits="userSpaceOnUse"><stop offset="0" stop-color="#eed096"/><stop offset="1" stop-color="#865b26"/></linearGradient></defs><g><g><g><path fill="url(#il5ra)" d="M28.467 4.014c13.377 0 24.26 10.883 24.26 24.26a24.275 24.275 0 0 1-8.574 18.507A24.265 24.265 0 0 1 9.915 43.91a24.277 24.277 0 0 1-5.709-15.635c0-13.377 10.884-24.26 24.26-24.26zm17.928 45.41a27.746 27.746 0 0 0 9.797-21.15c0-7.406-2.883-14.368-8.12-19.605-5.237-5.237-12.2-8.12-19.605-8.12-7.406 0-14.369 2.883-19.606 8.12-5.236 5.237-8.12 12.2-8.12 19.605a27.747 27.747 0 0 0 6.526 17.87A27.734 27.734 0 0 0 28.467 56a27.734 27.734 0 0 0 17.928-6.575z"/></g><g><path fill="url(#il5rb)" d="M28.466 10.945a6.94 6.94 0 0 1 6.932 6.932c0 3.822-3.11 6.931-6.932 6.931a6.94 6.94 0 0 1-6.93-6.93c0-3.823 3.109-6.933 6.93-6.933zm16.387 38.838a1.735 1.735 0 0 0 2.102-1.26c.38-1.514.573-3.08.573-4.653 0-5.044-1.95-9.8-5.494-13.39a19 19 0 0 0-7.028-4.525 10.38 10.38 0 0 0 3.858-8.078c0-5.734-4.665-10.398-10.398-10.398S18.07 12.143 18.07 17.877c0 3.258 1.506 6.17 3.858 8.078A19.008 19.008 0 0 0 14.9 30.48a18.95 18.95 0 0 0-5.495 13.39c0 1.573.193 3.14.574 4.654a1.732 1.732 0 1 0 3.361-.843 15.652 15.652 0 0 1-.469-3.81c0-8.48 6.893-15.474 15.368-15.596l.227-.001h.229c8.474.123 15.368 7.117 15.368 15.596 0 1.289-.158 2.571-.47 3.81-.232.929.33 1.87 1.26 2.103z"/></g></g></g></svg>