<svg xmlns="http://www.w3.org/2000/svg" width="92" height="28" viewBox="0 0 92 28"><g><g><g><g><g><g><path fill="#3c58bf" d="M33.438 27.366L38.137.936h7.341l-4.551 26.43z"/></g></g></g><g><g><g><path fill="#293688" d="M33.438 27.366l6.02-26.43h6.02l-4.551 26.43z"/></g></g></g><g><g><g><path fill="#3c58bf" d="M67.503 1.23C66.035.641 63.686.054 60.75.054c-7.342 0-12.628 3.67-12.628 8.957 0 3.964 3.671 6.02 6.608 7.341 2.937 1.322 3.818 2.203 3.818 3.377 0 1.762-2.35 2.643-4.405 2.643-2.937 0-4.552-.44-7.048-1.468l-1.028-.44-1.028 6.02c1.762.734 4.992 1.468 8.37 1.468 7.782 0 12.92-3.67 12.92-9.25 0-3.084-1.908-5.433-6.313-7.342-2.643-1.322-4.258-2.056-4.258-3.377 0-1.175 1.321-2.35 4.258-2.35 2.496 0 4.258.44 5.58 1.028l.734.294z"/></g></g></g><g><g><g><path fill="#293688" d="M67.503 1.23C66.035.641 63.686.054 60.75.054c-7.342 0-11.306 3.67-11.306 8.957 0 3.964 2.35 6.02 5.286 7.341 2.937 1.322 3.818 2.203 3.818 3.377 0 1.762-2.35 2.643-4.405 2.643-2.937 0-4.552-.44-7.048-1.468l-1.028-.44-1.028 6.02c1.762.734 4.992 1.468 8.37 1.468 7.782 0 12.92-3.67 12.92-9.25 0-3.084-1.908-5.433-6.313-7.342-2.643-1.322-4.258-2.056-4.258-3.377 0-1.175 1.321-2.35 4.258-2.35 2.496 0 4.258.44 5.58 1.028l.734.294 1.174-5.727z"/></g></g></g><g><g><g><path fill="#3c58bf" d="M76.754 18.556c.44-1.322 2.937-7.783 2.937-7.783s.587-1.615 1.027-2.643l.44 2.497s1.47 6.607 1.763 8.076h-6.167zM80.13.936c-1.762 0-3.083.146-3.818 1.908L65.301 27.366h7.929l1.468-4.405h9.398l.88 4.405h7.049L85.858.936z"/></g></g></g><g><g><g><path fill="#293688" d="M76.754 18.556c.587-1.469 2.937-7.783 2.937-7.783s.587-1.615 1.027-2.643l.44 2.497s1.47 6.607 1.763 8.076h-6.167zm5.14-17.62c-1.763 0-3.084.146-3.819 1.908L65.301 27.366h7.929l1.468-4.405h9.398l.88 4.405h7.049L85.858.936z"/></g></g></g><g><g><g><path fill="#3c58bf" d="M19.93 19.437l-.735-3.818c-1.321-4.405-5.58-9.25-10.278-11.6l6.607 23.494h7.93l11.893-26.43h-7.93z"/></g></g></g><g><g><g><path fill="#293688" d="M19.93 19.437l-.735-3.818c-1.321-4.405-5.58-9.25-10.278-11.6l6.607 23.494h7.93l11.893-26.43h-6.46z"/></g></g></g><g><g><g><path fill="#ffbc00" d="M-.48.936l1.321.293c9.397 2.203 15.858 7.782 18.354 14.39l-2.643-12.48C16.112 1.375 14.79.935 13.175.935z"/></g></g></g><g><g><g><path fill="#f7981d" d="M-.48.936c9.397 2.202 17.179 7.929 19.675 14.536L16.7 5.047c-.44-1.762-1.909-2.79-3.524-2.79z"/></g></g></g><g><g><g><path fill="#ed7c00" d="M-.48.936c9.397 2.202 17.179 7.929 19.675 14.536l-1.762-5.726c-.44-1.762-1.028-3.524-3.083-4.258z"/></g></g></g></g><g><g><path fill="#051244" d="M27.271 18.556l-4.992-4.993-2.35 5.58-.587-3.67c-1.321-4.406-5.58-9.251-10.278-11.6l6.607 23.493h7.93z"/></g></g><g><g><path fill="#051244" d="M40.927 27.366l-6.314-6.461-1.175 6.46z"/></g></g><g><g><path fill="#051244" d="M57.812 18.262c.588.587.881 1.028.735 1.615 0 1.762-2.35 2.643-4.405 2.643-2.937 0-4.552-.44-7.048-1.468l-1.028-.44-1.028 6.02c1.762.734 4.992 1.468 8.37 1.468 4.698 0 8.516-1.322 10.718-3.671z"/></g></g><g><g><path fill="#051244" d="M66.329 27.366h6.9l1.47-4.405h9.397l.88 4.405h7.049l-2.497-10.72-8.81-8.515.44 2.349s1.47 6.607 1.763 8.076h-6.167c.587-1.469 2.937-7.783 2.937-7.783s.587-1.615 1.027-2.643"/></g></g></g></g></svg>