<svg width="91" height="77" viewBox="0 0 91 77" fill="none" xmlns="http://www.w3.org/2000/svg">
<g clip-path="url(#clip0)">
<path d="M20.1294 29.071V32.971C20.1429 33.6632 20.4273 34.3225 20.9216 34.8073C21.4159 35.2921 22.0806 35.5636 22.7729 35.5636C23.4652 35.5636 24.1299 35.2921 24.6242 34.8073C25.1185 34.3225 25.4029 33.6632 25.4164 32.971V29.071C25.4232 28.7195 25.3599 28.3702 25.2301 28.0435C25.1004 27.7168 24.9067 27.4193 24.6606 27.1683C24.4144 26.9173 24.1207 26.7179 23.7966 26.5818C23.4725 26.4457 23.1244 26.3756 22.7729 26.3756C22.4214 26.3756 22.0733 26.4457 21.7492 26.5818C21.4251 26.7179 21.1314 26.9173 20.8852 27.1683C20.6391 27.4193 20.4454 27.7168 20.3157 28.0435C20.1859 28.3702 20.1226 28.7195 20.1294 29.071V29.071Z" fill="#196846"/>
<path d="M42.481 29.071V32.971C42.4741 33.3225 42.5374 33.6718 42.6672 33.9985C42.797 34.3252 42.9906 34.6228 43.2368 34.8738C43.4829 35.1247 43.7767 35.3241 44.1008 35.4602C44.4249 35.5963 44.7729 35.6664 45.1245 35.6664C45.476 35.6664 45.824 35.5963 46.1481 35.4602C46.4723 35.3241 46.766 35.1247 47.0122 34.8738C47.2583 34.6228 47.4519 34.3252 47.5817 33.9985C47.7115 33.6718 47.7748 33.3225 47.768 32.971V29.071C47.7748 28.7195 47.7115 28.3702 47.5817 28.0435C47.4519 27.7168 47.2583 27.4193 47.0122 27.1683C46.766 26.9173 46.4723 26.7179 46.1481 26.5818C45.824 26.4457 45.476 26.3756 45.1245 26.3756C44.7729 26.3756 44.4249 26.4457 44.1008 26.5818C43.7767 26.7179 43.4829 26.9173 43.2368 27.1683C42.9906 27.4193 42.797 27.7168 42.6672 28.0435C42.5374 28.3702 42.4741 28.7195 42.481 29.071V29.071Z" fill="#196846"/>
<path d="M67.4775 35.618C67.8247 35.6181 68.1686 35.5498 68.4895 35.417C68.8103 35.2841 69.1018 35.0894 69.3474 34.8438C69.5929 34.5983 69.7877 34.3068 69.9205 33.9859C70.0533 33.6651 70.1216 33.3212 70.1215 32.974V29.074C70.1283 28.7225 70.065 28.3732 69.9352 28.0465C69.8054 27.7198 69.6118 27.4222 69.3657 27.1712C69.1195 26.9202 68.8258 26.7209 68.5017 26.5847C68.1775 26.4486 67.8295 26.3785 67.478 26.3785C67.1264 26.3785 66.7784 26.4486 66.4543 26.5847C66.1302 26.7209 65.8365 26.9202 65.5903 27.1712C65.3442 27.4222 65.1505 27.7198 65.0208 28.0465C64.891 28.3732 64.8276 28.7225 64.8345 29.074V32.974C64.8345 33.675 65.1129 34.3474 65.6085 34.8432C66.1042 35.339 66.7764 35.6177 67.4775 35.618V35.618Z" fill="#196846"/>
<path d="M5.82399 62.046H33.807C33.9069 62.0461 34.0048 62.0742 34.0895 62.1273C34.1742 62.1803 34.2423 62.2561 34.286 62.346L39.913 73.632C40.396 74.6009 41.1395 75.416 42.0601 75.9858C42.9807 76.5555 44.0419 76.8574 45.1245 76.8574C46.2071 76.8574 47.2683 76.5555 48.1889 75.9858C49.1095 75.416 49.853 74.6009 50.336 73.632L55.963 62.346C56.0067 62.2561 56.0748 62.1803 56.1595 62.1273C56.2442 62.0742 56.3421 62.0461 56.442 62.046H84.425C85.9691 62.0444 87.4496 61.4303 88.5414 60.3384C89.6333 59.2465 90.2474 57.7661 90.249 56.222V5.82198C90.2471 4.27802 89.6329 2.79785 88.5411 1.70619C87.4492 0.614543 85.9689 0.000571554 84.425 -0.00101632H70.63C69.9378 0.0124473 69.2785 0.296876 68.7937 0.791163C68.309 1.28545 68.0374 1.95016 68.0374 2.64248C68.0374 3.33481 68.309 3.99952 68.7937 4.49381C69.2785 4.98809 69.9378 5.27252 70.63 5.28598H84.425C84.5671 5.28625 84.7032 5.3428 84.8037 5.44327C84.9042 5.54373 84.9607 5.67991 84.961 5.82198V56.222C84.9607 56.3641 84.9042 56.5002 84.8037 56.6007C84.7032 56.7012 84.5671 56.7577 84.425 56.758H56.441C55.3577 56.7543 54.2951 57.0546 53.3739 57.6247C52.4528 58.1948 51.71 59.0118 51.23 59.983L45.601 71.27C45.5568 71.3594 45.4884 71.4346 45.4037 71.4872C45.319 71.5398 45.2212 71.5677 45.1215 71.5677C45.0218 71.5677 44.924 71.5398 44.8393 71.4872C44.7546 71.4346 44.6862 71.3594 44.642 71.27L39.018 59.979C38.5379 59.0079 37.7951 58.191 36.8739 57.6211C35.9528 57.0512 34.8902 56.7511 33.807 56.755H5.82399C5.68192 56.7547 5.54574 56.6982 5.44528 56.5977C5.34482 56.4972 5.28826 56.3611 5.28799 56.219V5.81899C5.28826 5.67691 5.34482 5.54073 5.44528 5.44027C5.54574 5.33981 5.68192 5.28325 5.82399 5.28298H60.06C60.4115 5.28982 60.7608 5.2265 61.0875 5.09672C61.4142 4.96694 61.7118 4.77332 61.9627 4.52717C62.2137 4.28102 62.4131 3.98729 62.5492 3.66316C62.6853 3.33904 62.7554 2.99103 62.7554 2.63948C62.7554 2.28794 62.6853 1.93993 62.5492 1.61581C62.4131 1.29168 62.2137 0.997952 61.9627 0.751803C61.7118 0.505654 61.4142 0.312027 61.0875 0.182249C60.7608 0.0524714 60.4115 -0.010853 60.06 -0.00401658H5.82399C4.28003 -0.00242871 2.79976 0.611542 1.70792 1.70319C0.616077 2.79485 0.001853 4.27503 0 5.81899V56.219C0.00158834 57.7631 0.615698 59.2436 1.70757 60.3354C2.79943 61.4273 4.27986 62.0414 5.82399 62.043V62.046Z" fill="#196846"/>
</g>
<defs>
<clipPath id="clip0">
<rect width="90.248" height="76.854" fill="white"/>
</clipPath>
</defs>
</svg>
