<svg width="25" height="24" viewBox="0 0 25 24" fill="none" xmlns="http://www.w3.org/2000/svg">
<g clip-path="url(#clip0)">
<path d="M13.2588 1.33777L15.9443 6.85367C16.2427 7.35511 16.7398 7.75627 17.2371 7.85656L23.3036 8.75857C23.7014 8.85886 24 9.26041 24 9.66156C24 9.86214 23.9003 9.96243 23.8009 10.163L19.4253 14.4752C19.0275 14.8764 18.8286 15.4777 18.928 16.0795L19.9226 22.0968C20.0221 22.498 19.7235 22.8995 19.2262 22.9998C19.0273 22.9998 18.9278 23.0002 18.7289 22.8999L13.3578 20.091C12.8605 19.7902 12.2636 19.7902 11.6668 20.091L6.29671 22.8999C5.89888 23.1005 5.40101 22.9994 5.20209 22.5983C5.10263 22.498 5.10302 22.2974 5.10302 22.0968L6.0976 16.0795C6.19706 15.4777 5.99814 14.8764 5.60031 14.4752L1.22378 10.163C0.925407 9.86214 0.925407 9.36011 1.22378 9.05924C1.32324 8.95895 1.52254 8.85945 1.622 8.85945L7.68854 7.95645C8.28528 7.85616 8.78335 7.45501 8.98226 6.95356L11.6668 1.43767C11.8658 1.03651 12.3636 0.935828 12.7615 1.03612C13.0598 1.13641 13.1593 1.23748 13.2588 1.33777Z" fill="#F0D74D"/>
<path d="M7.59872 6.90044C7.89872 6.90044 8.0993 6.70005 8.1993 6.50005L10.8995 1.00005C11.0995 0.600047 11.3993 0.400243 11.6993 0.200243C12.5993 -0.199757 13.6987 0.100047 14.0987 1.00005L16.7989 6.50005C16.8989 6.70005 17.0995 6.90044 17.3995 6.90044L23.3995 7.79985C23.7995 7.79985 24.1995 7.99985 24.3995 8.29985C25.0995 8.99985 25.0995 10.0999 24.3995 10.7999L19.9991 15.0997C19.7991 15.2997 19.6989 15.4999 19.7989 15.7999L20.7989 21.7999C20.8989 22.1999 20.7987 22.6004 20.5987 22.9004C20.0987 23.8004 19.0993 24.1002 18.1993 23.7002L12.7989 20.9004C12.5989 20.8004 12.2987 20.8004 12.0987 20.9004L6.6993 23.7002C6.3993 23.9002 5.89872 23.9004 5.59872 23.9004C4.59872 23.7004 3.99872 22.7999 4.09872 21.7999L5.09872 15.7999C5.09872 15.5999 5.0995 15.2997 4.8995 15.0997L0.499107 10.7999C0.199107 10.4999 -0.000892545 10.1999 -0.000892545 9.79985C-0.100893 8.79985 0.499107 7.89985 1.49911 7.79985L7.59872 6.90044ZM11.7989 1.40044L9.09872 6.90044C8.79872 7.40044 8.29891 7.80044 7.79891 7.90044L1.6993 8.79985C1.4993 8.79985 1.39891 8.90005 1.29891 9.00005C0.998912 9.30005 0.998912 9.79966 1.29891 10.0997L5.6993 14.4004C6.0993 14.8004 6.2993 15.4 6.1993 16L5.1993 22C5.1993 22.2 5.19891 22.4 5.29891 22.5C5.49891 22.9 5.9995 22.9999 6.3995 22.7999L11.7989 20C12.2989 19.7 12.9991 19.7 13.4991 20L18.8995 22.7999C19.0995 22.8999 19.1995 22.9004 19.3995 22.9004C19.7995 22.8004 20.0987 22.4 20.0987 22L19.0987 16C18.9987 15.4 19.1987 14.8004 19.5987 14.4004L23.9991 10.0997C24.0991 9.99966 24.1993 9.79966 24.1993 9.59966C24.2993 9.19966 23.9991 8.80024 23.4991 8.70024L17.3995 7.79985C16.7995 7.69985 16.2987 7.29985 16.0987 6.79985L13.3995 1.29985C13.2995 1.19985 13.1991 1.00044 12.9991 0.900438C12.4991 0.900438 11.9989 1.00044 11.7989 1.40044Z" fill="#F0D74D"/>
</g>
<defs>
<clipPath id="clip0">
<rect width="25" height="24" fill="white"/>
</clipPath>
</defs>
</svg>
