<svg width="71" height="72" viewBox="0 0 71 72" fill="none" xmlns="http://www.w3.org/2000/svg">
<g clip-path="url(#clip0)">
<path d="M16.481 9.47794C24.0929 9.47794 26.2817 14.8278 26.7774 19.3156C26.8404 19.8851 27.3213 20.3065 27.88 20.3065C27.9207 20.3065 27.9621 20.3042 28.0036 20.2995C28.6133 20.232 29.0529 19.6818 28.9853 19.0706C28.7576 17.009 28.0952 14.0392 26.2331 11.5985C24.0327 8.71398 20.7514 7.25159 16.4808 7.25159C15.8672 7.25159 15.3701 7.74993 15.3701 8.36477C15.3701 8.97946 15.8675 9.47794 16.481 9.47794Z" fill="url(#paint0_linear)"/>
<path d="M31.9977 17.5875C32.939 17.8661 33.9343 18.0074 34.9556 18.0074H34.9559C37.7404 18.0074 40.53 16.9658 42.8107 15.0749C45.9429 12.4785 47.6639 8.58061 47.3013 4.90192C47.257 4.45095 46.9441 4.07199 46.5105 3.94366C45.5689 3.66509 44.5736 3.5238 43.5524 3.5238C40.7682 3.5238 37.9785 4.56524 35.698 6.45574C32.5656 9.05155 30.8446 12.9499 31.2069 16.6291C31.2514 17.08 31.564 17.459 31.9977 17.5875ZM37.1138 8.1715C38.9974 6.61024 41.2838 5.75016 43.5526 5.75016C44.0908 5.75016 44.6181 5.79932 45.1283 5.89654C45.126 8.61476 43.7415 11.4145 41.395 13.3591C39.5113 14.9208 37.2247 15.7807 34.9557 15.7807C34.4174 15.7807 33.8904 15.7316 33.3802 15.6345C33.3827 12.916 34.7674 10.1158 37.1138 8.1715Z" fill="url(#paint1_linear)"/>
<path d="M69.2361 38.5982H55.9391V33.0487C55.9391 32.4338 55.4418 31.9355 54.8284 31.9355H53.6683C53.0305 29.2613 51.9292 26.8356 50.3854 24.7151C50.078 24.2598 46.4144 19.026 40.4165 19.026C39.1192 19.026 37.8 19.2774 36.4955 19.7732C31.2006 21.7855 29.0531 22.0028 28.3755 22.003C28.3152 22.003 28.2711 22.0009 28.2417 21.9991C27.9969 21.8927 27.9428 21.8927 27.6978 21.9991C27.6683 22.001 27.6242 22.003 27.5636 22.003C26.8862 22.003 24.7389 21.7857 19.4436 19.7732C18.139 19.2774 16.8199 19.026 15.5226 19.026C9.52389 19.026 5.86091 24.2599 5.55369 24.7153C4.00977 26.8357 2.90868 29.2615 2.27075 31.9356H1.11071C0.497099 31.9356 0 32.4341 0 33.0488V46.3742C0 46.9892 0.497237 47.4874 1.11071 47.4874H3.00815C4.70005 53.6772 7.61656 59.2132 9.8498 62.4092C15.333 70.2568 20.9569 67.8125 22.55 66.876C23.7308 66.1818 26.2443 65.7618 27.1947 65.6475H28.7444C29.6938 65.7613 32.2044 66.1796 33.3891 66.8761C34.0854 67.2855 35.5517 67.9831 37.4403 67.983C39.8718 67.9828 43.003 66.8263 46.089 62.4092C47.4759 60.4241 49.127 57.5365 50.5843 54.1498H61.1002C61.7138 54.1498 62.2109 53.6514 62.2109 53.0366C62.2109 52.4217 61.7138 51.9234 61.1002 51.9234H51.4852C51.5053 51.8707 51.5232 51.8181 51.5428 51.7653C51.6478 51.4848 51.7514 51.2021 51.8525 50.9169C51.8787 50.8431 51.9046 50.7695 51.9304 50.6957C52.0344 50.3982 52.1361 50.0982 52.2353 49.7961C52.25 49.7514 52.2652 49.7067 52.2797 49.6621C52.3846 49.3396 52.4859 49.0139 52.5848 48.6867C52.5995 48.6383 52.6146 48.5895 52.6291 48.541C52.724 48.2231 52.8155 47.9029 52.9041 47.5811C52.9128 47.55 52.9225 47.5185 52.9309 47.4874H54.8277C55.4413 47.4874 55.9384 46.9892 55.9384 46.3742V40.8247H58.2796V45.4408C58.2796 46.0558 58.7767 46.554 59.3903 46.554C60.0039 46.554 60.501 46.0557 60.501 45.4408V40.8247H63.2366V43.4491C63.2366 44.0641 63.7337 44.5623 64.3473 44.5623C64.9609 44.5623 65.458 44.064 65.458 43.4491V40.8247H68.125V51.9235H64.5548C63.9412 51.9235 63.4441 52.4217 63.4441 53.0367C63.4441 53.6517 63.9412 54.1499 64.5548 54.1499H69.2357C69.8493 54.1499 70.3464 53.6517 70.3464 53.0367V39.7115C70.3469 39.0964 69.8498 38.5982 69.2361 38.5982ZM7.36018 26.0109C7.37021 25.997 7.38024 25.9828 7.38972 25.9685C7.42077 25.9214 10.5644 21.2524 15.5226 21.2524C16.5498 21.2524 17.6042 21.4551 18.6559 21.8549C24.0919 23.9209 26.5701 24.2293 27.5635 24.2293C27.7266 24.2293 27.8604 24.2213 27.9695 24.2096C28.0784 24.2213 28.2127 24.2293 28.3756 24.2293C29.3693 24.2292 31.8476 23.9207 37.2831 21.8549C38.3351 21.4552 39.3894 21.2524 40.4165 21.2524C45.345 21.2524 48.5193 25.9235 48.5495 25.9686C48.5588 25.9831 48.5687 25.997 48.5788 26.0109C49.8545 27.7586 50.7933 29.7467 51.3785 31.9354H4.56059C5.14563 29.7467 6.08445 27.7587 7.36018 26.0109ZM53.7179 39.7114V45.2609H53.7177H52.0758H49.2519H45.7976C45.184 45.2609 44.6869 45.7591 44.6869 46.374C44.6869 46.989 45.184 47.4872 45.7976 47.4872H49.2519H50.6225C50.6071 47.5408 50.5927 47.5941 50.5771 47.6476C50.5633 47.6949 50.5493 47.7418 50.5354 47.7889C50.3873 48.2896 50.2296 48.7919 50.0618 49.2959C50.0529 49.3225 50.0442 49.3489 50.0353 49.3755C49.6752 50.4505 49.2708 51.5311 48.8243 52.6098C48.8226 52.6138 48.8217 52.618 48.8202 52.6221C47.368 56.1284 45.676 59.1194 44.2699 61.1319C39.9967 67.2471 36.0234 65.8428 34.5134 64.9555C32.6844 63.8803 29.3132 63.4712 28.9347 63.4279C28.893 63.4233 28.8513 63.4208 28.8092 63.4208H27.1301C27.0882 63.4208 27.0464 63.4231 27.0045 63.4279C26.6261 63.4712 23.2553 63.8801 21.4264 64.9553C19.9165 65.8429 15.9429 67.2469 11.6697 61.1319C9.61485 58.1909 6.94922 53.1613 5.3149 47.4869H28.5192H41.9961C42.6097 47.4869 43.1068 46.9887 43.1068 46.3738C43.1068 45.7588 42.6097 45.2606 41.9961 45.2606H28.5192H3.86303H2.22142V34.1616H3.16382H4.36563V38.5074C4.36563 39.1223 4.86286 39.6206 5.47634 39.6206C6.08981 39.6206 6.58705 39.1221 6.58705 38.5074V34.1617H9.32261V36.5157C9.32261 37.1307 9.81971 37.6289 10.4333 37.6289C11.0469 37.6289 11.544 37.1307 11.544 36.5157V34.1617H14.2793V38.5074C14.2793 39.1223 14.7764 39.6206 15.39 39.6206C16.0036 39.6206 16.5007 39.1221 16.5007 38.5074V34.1617H19.2363V36.5157C19.2363 37.1307 19.7334 37.6289 20.347 37.6289C20.9606 37.6289 21.4577 37.1307 21.4577 36.5157V34.1617H24.1933V38.5074C24.1933 39.1223 24.6904 39.6206 25.304 39.6206C25.9176 39.6206 26.4147 39.1221 26.4147 38.5074V34.1617H29.15V36.5157C29.15 37.1307 29.6471 37.6289 30.2607 37.6289C30.8743 37.6289 31.3714 37.1307 31.3714 36.5157V34.1617H34.107V38.5074C34.107 39.1223 34.6041 39.6206 35.2177 39.6206C35.8313 39.6206 36.3284 39.1221 36.3284 38.5074V34.1617H39.0639V36.5157C39.0639 37.1307 39.5612 37.6289 40.1746 37.6289C40.7881 37.6289 41.2854 37.1307 41.2854 36.5157V34.1617H44.0202V38.5074C44.0202 39.1223 44.5175 39.6206 45.1309 39.6206C45.7444 39.6206 46.2417 39.1221 46.2417 38.5074V34.1617H48.9772V36.5157C48.9772 37.1307 49.4743 37.6289 50.0879 37.6289C50.7015 37.6289 51.1986 37.1307 51.1986 36.5157V34.1617H52.7751H53.7175V39.7114H53.7179Z" fill="url(#paint2_linear)"/>
</g>
<defs>
<linearGradient id="paint0_linear" x1="22.1811" y1="7.25159" x2="22.1811" y2="20.3065" gradientUnits="userSpaceOnUse">
<stop stop-color="#DECAA1"/>
<stop offset="1" stop-color="#987531"/>
</linearGradient>
<linearGradient id="paint1_linear" x1="39.2541" y1="3.5238" x2="39.2541" y2="18.0074" gradientUnits="userSpaceOnUse">
<stop stop-color="#DECAA1"/>
<stop offset="1" stop-color="#987531"/>
</linearGradient>
<linearGradient id="paint2_linear" x1="35.1732" y1="19.026" x2="35.1732" y2="67.983" gradientUnits="userSpaceOnUse">
<stop stop-color="#DECAA1"/>
<stop offset="1" stop-color="#987531"/>
</linearGradient>
<clipPath id="clip0">
<rect width="70.3469" height="70.5031" fill="white" transform="translate(0 0.501953)"/>
</clipPath>
</defs>
</svg>
