<svg width="71" height="72" viewBox="0 0 71 72" fill="none" xmlns="http://www.w3.org/2000/svg">
<path d="M14.4995 24.4731C15.0175 24.4731 15.4374 24.0522 15.4374 23.5331C15.4374 23.0139 15.0175 22.593 14.4995 22.593C13.9815 22.593 13.5615 23.0139 13.5615 23.5331C13.5615 24.0522 13.9815 24.4731 14.4995 24.4731Z" fill="url(#paint0_linear)"/>
<path d="M27.6692 56.0901C26.9282 55.8642 26.1459 55.9423 25.4654 56.3086C24.784 56.6741 24.2857 57.2835 24.0613 58.0244C23.8369 58.7654 23.9147 59.5501 24.2794 60.2331C24.644 60.916 25.252 61.4154 25.9914 61.6403C26.269 61.7247 26.5521 61.766 26.8341 61.766C27.3041 61.766 27.7693 61.6504 28.1954 61.4227C28.8768 61.0573 29.3751 60.4479 29.5995 59.7059C29.8239 58.9652 29.746 58.1803 29.3814 57.4973C29.0168 56.8144 28.4083 56.315 27.6692 56.0901ZM27.8038 59.1607C27.725 59.4213 27.5491 59.6361 27.3102 59.7647C27.0693 59.8932 26.7955 59.9189 26.5352 59.8408C26.2751 59.7619 26.0615 59.5856 25.9335 59.3461C25.8052 59.1057 25.7778 58.8303 25.8566 58.5694C25.9353 58.3086 26.1112 58.0947 26.3502 57.9664C26.5005 57.8856 26.6644 57.8451 26.8292 57.8451C26.9282 57.8451 27.0281 57.8597 27.1251 57.8893C27.3852 57.9683 27.5988 58.1445 27.7268 58.384C27.8551 58.6247 27.8825 58.9001 27.8038 59.1607Z" fill="url(#paint1_linear)"/>
<path d="M56.7434 60.7214C54.8069 60.234 52.8623 59.0792 51.405 57.5516C49.9924 56.0736 49.0357 54.4678 48.532 53.5083C49.6508 53.1637 50.7378 52.7936 51.4289 52.5511C52.0892 53.6133 53.499 55.5235 55.419 56.1644C55.5179 56.1975 55.6178 56.213 55.7158 56.213C56.1088 56.213 56.4751 55.9641 56.6052 55.5705C56.7691 55.0774 56.5035 54.5451 56.0127 54.3816C54.4235 53.8509 53.0762 51.7469 52.6914 50.9812C52.478 50.5554 51.9806 50.3551 51.5328 50.5194C51.4962 50.5323 47.8698 51.8505 45.709 52.3379C43.3001 52.8603 37.1337 53.9536 31.9759 52.8089C28.4989 52.0359 24.1416 49.7455 19.0285 46.0037C18.5422 45.6448 17.7864 45.3546 17.1195 45.0994C16.8384 44.991 16.4527 44.8432 16.3776 44.7993C16.342 44.7718 16.3244 44.7332 16.3244 44.6836V42.8907C16.3565 41.3897 21.441 16.7834 22.2692 14.102C22.2938 14.0836 22.3297 14.0616 22.3609 14.047L33.9965 8.71789L37.7117 13.5669C37.8536 13.7633 37.8428 14.0341 37.6852 14.2113L33.9224 18.4351C33.7446 18.636 33.4304 18.6572 33.251 18.5068L31.7322 17.1068C31.5106 16.9021 31.2056 16.8058 30.9162 16.8655C30.6203 16.9261 30.3795 17.1125 30.2559 17.3879C30.0261 17.7047 28.6173 18.1747 27.3001 18.3728C26.921 18.4306 26.614 18.7133 26.5261 19.088C26.4391 19.4616 26.5866 19.8517 26.9008 20.0729L27.4732 20.475L29.2427 33.8219C28.6754 34.5545 28.1907 35.3631 27.8184 36.2454C27.6169 36.7236 27.8395 37.2754 28.3167 37.4773C28.4358 37.5278 28.5603 37.5515 28.6822 37.5515C29.0478 37.5515 29.3948 37.3367 29.5461 36.9779C30.9441 33.664 34.1665 31.5233 37.7563 31.5233C41.1737 31.5233 44.333 33.5218 45.8049 36.6155C46.0265 37.0827 46.5862 37.2848 47.0552 37.059C47.5223 36.8359 47.7211 36.275 47.4977 35.8059C47.0238 34.8101 46.4021 33.9119 45.6719 33.1242C47.2128 30.9708 49.8679 29.6432 52.7636 29.6432C53.9499 29.6432 55.0965 29.858 56.1719 30.2831C56.6519 30.4704 57.1978 30.2364 57.3884 29.7525C57.5781 29.2695 57.3418 28.7243 56.859 28.5333C55.5646 28.0219 54.1862 27.7631 52.7636 27.7631C49.3424 27.7631 46.181 29.3189 44.2734 31.8563C42.4266 30.4538 40.145 29.6432 37.7563 29.6432C35.1978 29.6432 32.7973 30.5473 30.9068 32.1054L29.2844 19.8682C29.9246 19.6856 30.5905 19.433 31.1118 19.0889L32.0113 19.9178C33.0079 20.7577 34.4624 20.6559 35.3234 19.6846L39.0854 15.4627C39.8263 14.6282 39.8859 13.365 39.2127 12.4407L35.0294 6.97952C34.7628 6.63171 34.2912 6.51585 33.8954 6.69774L21.6011 12.3288C21.4583 12.3895 20.7337 12.7328 20.5075 13.4515C19.8544 15.4244 14.4482 41.0045 14.4482 42.8884V44.6839C14.4482 45.3128 14.7294 45.8937 15.2131 46.2739C15.4568 46.4695 15.8048 46.6081 16.4489 46.8551C16.9491 47.0469 17.6343 47.3106 17.9192 47.5207C23.2456 51.4186 27.8383 53.8154 31.57 54.6452C36.8917 55.8257 42.961 54.8572 46.1137 54.1743C46.2976 54.1327 46.4934 54.084 46.692 54.0333C47.2193 55.0946 48.3172 57.0377 50.0506 58.8505C51.5675 60.4422 53.5487 61.688 55.5775 62.3409V63.9547C55.5775 64.4743 55.997 64.8948 56.5154 64.8948C57.0339 64.8948 57.4534 64.4743 57.4534 63.9547V61.633C57.4534 61.2025 57.161 60.826 56.7434 60.7214Z" fill="url(#paint2_linear)"/>
<path d="M40.3858 49.4024C31.8874 51.1015 29.3181 46.3409 29.2154 46.1435C29.0928 45.8984 28.8691 45.7183 28.6037 45.6523L24.8518 44.7123C24.3498 44.5847 23.8398 44.8913 23.715 45.3961C23.5886 45.8993 23.8946 46.4095 24.3974 46.5355L27.77 47.381C28.5082 48.5176 31.0731 51.6526 36.9051 51.6526C38.0564 51.6526 39.336 51.5304 40.754 51.246C41.2614 51.144 41.5911 50.6493 41.4896 50.1398C41.389 49.631 40.8989 49.295 40.3858 49.4024Z" fill="url(#paint3_linear)"/>
<path d="M43.2623 37.6399C43.0956 37.3452 42.7842 37.1635 42.4463 37.1635H39.6324V33.4033C39.6324 32.9893 39.3623 32.624 38.9665 32.5037C38.5725 32.3834 38.1429 32.5378 37.9141 32.8819L32.2863 41.3422C32.095 41.6306 32.0764 42.0014 32.2397 42.3069C32.4029 42.6125 32.7206 42.8035 33.0667 42.8035H35.8806V47.5037C35.8806 47.926 36.1617 48.2969 36.5686 48.4097C36.6511 48.4327 36.7353 48.4438 36.8185 48.4438C37.1419 48.4438 37.4505 48.2757 37.6228 47.9876L43.2506 38.5872C43.4243 38.2972 43.429 37.9355 43.2623 37.6399ZM37.7565 44.1099V41.8637C37.7565 41.3441 37.337 40.9237 36.8185 40.9237H34.819L37.7565 36.5081V38.1036C37.7565 38.6232 38.176 39.0436 38.6944 39.0436H40.7894L37.7565 44.1099Z" fill="url(#paint4_linear)"/>
<defs>
<linearGradient id="paint0_linear" x1="14.4995" y1="22.593" x2="14.4995" y2="24.4731" gradientUnits="userSpaceOnUse">
<stop stop-color="#DECAA1"/>
<stop offset="1" stop-color="#987531"/>
</linearGradient>
<linearGradient id="paint1_linear" x1="26.8304" y1="55.9634" x2="26.8304" y2="61.766" gradientUnits="userSpaceOnUse">
<stop stop-color="#DECAA1"/>
<stop offset="1" stop-color="#987531"/>
</linearGradient>
<linearGradient id="paint2_linear" x1="35.9511" y1="6.61243" x2="35.9511" y2="64.8948" gradientUnits="userSpaceOnUse">
<stop stop-color="#DECAA1"/>
<stop offset="1" stop-color="#987531"/>
</linearGradient>
<linearGradient id="paint3_linear" x1="32.5972" y1="44.6833" x2="32.5972" y2="51.6526" gradientUnits="userSpaceOnUse">
<stop stop-color="#DECAA1"/>
<stop offset="1" stop-color="#987531"/>
</linearGradient>
<linearGradient id="paint4_linear" x1="37.7566" y1="32.4633" x2="37.7566" y2="48.4438" gradientUnits="userSpaceOnUse">
<stop stop-color="#DECAA1"/>
<stop offset="1" stop-color="#987531"/>
</linearGradient>
</defs>
</svg>
