<svg width="72" height="72" viewBox="0 0 72 72" fill="none" xmlns="http://www.w3.org/2000/svg">
<g clip-path="url(#clip0)">
<path d="M35.9499 9.31484C35.1409 9.31484 34.4844 8.65681 34.4844 7.84602V1.97077C34.4844 1.15998 35.1409 0.501953 35.9499 0.501953C36.7589 0.501953 37.4155 1.15998 37.4155 1.97077V7.84602C37.4155 8.65681 36.7589 9.31484 35.9499 9.31484Z" fill="url(#paint0_linear)"/>
<path d="M55.6421 17.4873C55.2669 17.4873 54.8917 17.3434 54.6045 17.0584C54.0329 16.4856 54.0329 15.5543 54.6045 14.9815L58.7491 10.8277C59.3206 10.2549 60.2498 10.2549 60.8214 10.8277C61.3929 11.4005 61.3929 12.3318 60.8214 12.9046L56.6768 17.0584C56.3924 17.3434 56.0173 17.4873 55.6421 17.4873Z" fill="url(#paint1_linear)"/>
<path d="M69.6588 37.2223H63.7966C62.9876 37.2223 62.3311 36.5643 62.3311 35.7535C62.3311 34.9427 62.9876 34.2847 63.7966 34.2847H69.6588C70.4678 34.2847 71.1244 34.9427 71.1244 35.7535C71.1244 36.5643 70.4678 37.2223 69.6588 37.2223Z" fill="url(#paint2_linear)"/>
<path d="M59.7867 61.1111C59.4115 61.1111 59.0363 60.9671 58.7491 60.6822L54.6045 56.5284C54.0329 55.9555 54.0329 55.0243 54.6045 54.4515C55.176 53.8786 56.1052 53.8786 56.6768 54.4515L60.8214 58.6053C61.3929 59.1781 61.3929 60.1094 60.8214 60.6822C60.537 60.9671 60.1619 61.1111 59.7867 61.1111Z" fill="url(#paint3_linear)"/>
<path d="M35.9499 71.005C35.1409 71.005 34.4844 70.347 34.4844 69.5362V63.661C34.4844 62.8502 35.1409 62.1921 35.9499 62.1921C36.7589 62.1921 37.4155 62.8502 37.4155 63.661V69.5362C37.4155 70.347 36.7589 71.005 35.9499 71.005Z" fill="url(#paint4_linear)"/>
<path d="M12.1147 61.1111C11.7395 61.1111 11.3644 60.9671 11.0771 60.6822C10.5055 60.1094 10.5055 59.1781 11.0771 58.6053L15.2217 54.4515C15.7933 53.8786 16.7225 53.8786 17.294 54.4515C17.8656 55.0243 17.8656 55.9555 17.294 56.5284L13.1494 60.6822C12.8651 60.9671 12.4899 61.1111 12.1147 61.1111Z" fill="url(#paint5_linear)"/>
<path d="M8.10514 37.2223H2.2429C1.43391 37.2223 0.777344 36.5643 0.777344 35.7535C0.777344 34.9427 1.43391 34.2847 2.2429 34.2847H8.10514C8.91413 34.2847 9.5707 34.9427 9.5707 35.7535C9.5707 36.5643 8.91413 37.2223 8.10514 37.2223Z" fill="url(#paint6_linear)"/>
<path d="M16.2603 17.4873C15.8851 17.4873 15.5099 17.3434 15.2227 17.0584L11.081 12.9046C10.5095 12.3318 10.5095 11.4005 11.081 10.8277C11.6526 10.2549 12.5818 10.2549 13.1533 10.8277L17.2979 14.9815C17.8695 15.5543 17.8695 16.4856 17.2979 17.0584C17.0107 17.3434 16.6355 17.4873 16.2603 17.4873Z" fill="url(#paint7_linear)"/>
<path d="M31.7681 59.2545C31.5952 59.2545 31.4252 59.2251 31.2552 59.1634C30.6133 58.9226 30.2234 58.2704 30.3143 57.5948L32.8145 38.6911H22.7608C22.2068 38.6911 21.6997 38.3768 21.4506 37.8803C21.2015 37.3839 21.2542 36.7875 21.5884 36.341L39.1751 12.84C39.5825 12.2936 40.3065 12.0997 40.925 12.37C41.5464 12.6373 41.9069 13.2924 41.7955 13.9622L39.1458 29.8782H49.1409C49.6802 29.8782 50.1756 30.1749 50.4306 30.6508C50.6856 31.1267 50.6592 31.7025 50.3661 32.1578L32.9933 58.5965C32.7149 59.0166 32.2488 59.2545 31.7681 59.2545ZM25.6919 35.7535H34.4853C34.9103 35.7535 35.3089 35.9386 35.5874 36.2558C35.8658 36.5701 35.9948 36.9961 35.9391 37.4162L34.0603 51.6284L46.4208 32.8159H37.4164C36.9855 32.8159 36.5781 32.6278 36.2967 32.2959C36.0183 31.9669 35.8981 31.5292 35.9714 31.1062L37.9147 19.4203L25.6919 35.7535Z" fill="url(#paint8_linear)"/>
</g>
<defs>
<linearGradient id="paint0_linear" x1="35.9499" y1="0.501953" x2="35.9499" y2="9.31484" gradientUnits="userSpaceOnUse">
<stop stop-color="#DECAA1"/>
<stop offset="1" stop-color="#987531"/>
</linearGradient>
<linearGradient id="paint1_linear" x1="57.7129" y1="10.3981" x2="57.7129" y2="17.4873" gradientUnits="userSpaceOnUse">
<stop stop-color="#DECAA1"/>
<stop offset="1" stop-color="#987531"/>
</linearGradient>
<linearGradient id="paint2_linear" x1="66.7277" y1="34.2847" x2="66.7277" y2="37.2223" gradientUnits="userSpaceOnUse">
<stop stop-color="#DECAA1"/>
<stop offset="1" stop-color="#987531"/>
</linearGradient>
<linearGradient id="paint3_linear" x1="57.7129" y1="54.0219" x2="57.7129" y2="61.1111" gradientUnits="userSpaceOnUse">
<stop stop-color="#DECAA1"/>
<stop offset="1" stop-color="#987531"/>
</linearGradient>
<linearGradient id="paint4_linear" x1="35.9499" y1="62.1921" x2="35.9499" y2="71.005" gradientUnits="userSpaceOnUse">
<stop stop-color="#DECAA1"/>
<stop offset="1" stop-color="#987531"/>
</linearGradient>
<linearGradient id="paint5_linear" x1="14.1856" y1="54.0219" x2="14.1856" y2="61.1111" gradientUnits="userSpaceOnUse">
<stop stop-color="#DECAA1"/>
<stop offset="1" stop-color="#987531"/>
</linearGradient>
<linearGradient id="paint6_linear" x1="5.17402" y1="34.2847" x2="5.17402" y2="37.2223" gradientUnits="userSpaceOnUse">
<stop stop-color="#DECAA1"/>
<stop offset="1" stop-color="#987531"/>
</linearGradient>
<linearGradient id="paint7_linear" x1="14.1895" y1="10.3981" x2="14.1895" y2="17.4873" gradientUnits="userSpaceOnUse">
<stop stop-color="#DECAA1"/>
<stop offset="1" stop-color="#987531"/>
</linearGradient>
<linearGradient id="paint8_linear" x1="35.9501" y1="12.249" x2="35.9501" y2="59.2545" gradientUnits="userSpaceOnUse">
<stop stop-color="#DECAA1"/>
<stop offset="1" stop-color="#987531"/>
</linearGradient>
<clipPath id="clip0">
<rect width="70.3469" height="70.5031" fill="white" transform="translate(0.777344 0.501953)"/>
</clipPath>
</defs>
</svg>
