<svg width="62" height="63" viewBox="0 0 62 63" fill="none" xmlns="http://www.w3.org/2000/svg">
<g clip-path="url(#clip0)">
<path d="M51.2545 34.0059C47.8945 32.6152 44.7292 32.8389 42.2206 34.5582V33.1251C42.6844 33.2085 43.2157 33.2817 43.8227 33.2817C45.0287 33.2817 46.099 33.0211 46.9983 32.5103C49.6421 31.0113 50.3818 27.5573 50.4083 27.4084C50.5383 26.7573 50.1734 26.1062 49.551 25.8846C49.4077 25.8362 48.1572 25.405 46.5944 25.405C45.391 25.405 44.3207 25.6604 43.4219 26.1695C42.9581 26.4313 42.5774 26.765 42.2232 27.1192V25.2228C42.2232 24.4865 41.6243 23.8889 40.8897 23.8889C40.1552 23.8889 39.5559 24.4865 39.5559 25.2228V34.5527C38.3631 33.7398 37.0241 33.271 35.5807 33.1456V26.4775C35.5807 25.4499 35.4036 24.5199 35.1435 23.6344C36.4513 22.0926 37.2171 20.1478 37.2171 18.1042C37.2171 13.6144 33.7421 9.96102 29.3503 9.59268C29.319 7.13626 27.4538 5.54612 24.5675 5.54612H21.8941V2.13228C21.8941 1.39561 21.2961 0.797974 20.5603 0.797974C19.827 0.797974 19.2264 1.39561 19.2264 2.13185V5.5457H14.918C12.0111 5.5457 10.1301 7.15422 10.1301 9.64316V11.7129C10.1301 13.2876 10.8856 14.5025 12.1737 15.1892V17.2105C7.0144 18.221 3.9043 21.5582 3.9043 26.4775V52.8967C3.9043 58.8337 8.38635 62.5141 15.5991 62.5141H23.8843C27.349 62.5141 30.2349 61.587 32.2811 59.9563C34.2208 61.5349 36.2836 62.5141 38.2558 62.5141C39.0006 62.5141 39.7171 62.3789 40.3734 62.1077C40.5428 62.0375 40.7122 61.9567 40.8816 61.863C41.0459 61.9571 41.2149 62.0349 41.3847 62.103C42.0461 62.3815 42.7626 62.5145 43.5104 62.5145C48.7852 62.5145 54.7586 55.4763 57.0246 48.9015C59.4314 41.9485 57.3318 36.5223 51.2545 34.0059ZM44.7344 28.4963C45.4116 28.1147 46.4772 28.0133 47.3679 28.1224C47.0192 28.8856 46.467 29.745 45.6849 30.1904C45.1874 30.4706 44.5594 30.6109 43.8223 30.6109C43.5485 30.6109 43.291 30.5929 43.051 30.5626C43.38 29.8302 43.9138 28.9613 44.7344 28.4963ZM29.2989 12.2545C32.2439 12.5907 34.5489 15.0715 34.5489 18.1038C34.5489 19.0886 34.2725 20.0353 33.825 20.8857C32.4116 19.0193 30.1691 17.7705 27.3178 17.2101V15.1892C28.448 14.586 29.1385 13.561 29.2989 12.2545ZM12.7948 9.64316C12.7948 8.69387 13.5101 8.21303 14.9099 8.21303H24.5589C25.9642 8.21303 26.6795 8.69387 26.6795 9.64316V11.7129C26.6795 12.6596 25.9646 13.143 24.5589 13.143H14.9103C13.5105 13.143 12.7953 12.6621 12.7953 11.7129V9.64316H12.7948ZM14.8359 15.8052C14.862 15.8052 14.8868 15.8103 14.9099 15.8103H24.5589C24.5914 15.8103 24.6149 15.8052 24.6385 15.8052V16.9072C24.3805 16.8982 24.1422 16.8563 23.8817 16.8563H15.5939C15.327 16.8563 15.0925 16.8952 14.8359 16.9072V15.8052ZM15.5939 59.8493C12.8783 59.8493 6.56393 59.1721 6.56393 52.8967V40.1769H14.8538C15.5914 40.1769 16.1877 39.575 16.1877 38.8431C16.1877 38.1055 15.5914 37.5092 14.8538 37.5092H6.56393V33.9221H16.6711C17.4044 33.9221 18.005 33.3232 18.005 32.5886C18.005 31.8528 17.4044 31.2552 16.6711 31.2552H6.56393V27.6668H19.5169C20.2527 27.6668 20.8507 27.0704 20.8507 26.3329C20.8507 25.5971 20.2531 24.999 19.5169 24.999H6.762C7.70402 20.1345 13.1131 19.5211 15.5939 19.5211H23.8817C26.5974 19.5211 32.9104 20.1983 32.9104 26.4749V33.3022C32.1237 33.4536 31.3267 33.6722 30.5152 34.0059C24.4468 36.5227 22.342 41.9536 24.7399 48.9011C25.8693 52.1725 27.909 55.5538 30.3342 58.1274C28.771 59.232 26.5567 59.8468 23.8843 59.8468H15.5965V59.8493H15.5939ZM54.513 48.0361C52.1845 54.7773 45.8702 61.0758 42.4003 59.6435C42.2022 59.5601 41.9785 59.4198 41.718 59.211C41.4703 59.0185 41.1811 58.927 40.8872 58.927C40.598 58.927 40.3062 59.0185 40.0611 59.2055C39.7847 59.4194 39.561 59.5597 39.3526 59.6431C35.961 61.0442 29.5843 54.7979 27.2553 48.0356C24.8066 40.9551 28.2294 37.8394 31.5316 36.4748C34.945 35.063 37.8083 35.7248 39.8035 38.5013C39.8215 38.5274 39.8527 38.538 39.8686 38.559C39.9571 38.6681 40.0611 38.7515 40.1757 38.8298C40.2305 38.861 40.2643 38.8974 40.3165 38.9235C40.4885 39.0022 40.6788 39.0587 40.8872 39.0587C41.0878 39.0587 41.2752 39.0018 41.4549 38.9235C41.5041 38.8974 41.5408 38.861 41.59 38.8298C41.7124 38.7566 41.8138 38.6681 41.9023 38.559C41.9233 38.5325 41.952 38.5274 41.9674 38.5013C43.9575 35.7295 46.828 35.0682 50.2329 36.4799C53.5338 37.8377 56.9566 40.9534 54.513 48.0361Z" fill="url(#paint0_linear)"/>
</g>
<defs>
<linearGradient id="paint0_linear" x1="30.9517" y1="0.797974" x2="30.9517" y2="62.5145" gradientUnits="userSpaceOnUse">
<stop stop-color="#987531"/>
<stop offset="1" stop-color="#DECAA1"/>
</linearGradient>
<clipPath id="clip0">
<rect width="61.7165" height="61.7161" fill="white" transform="translate(0.09375 0.797974)"/>
</clipPath>
</defs>
</svg>
