<svg width="71" height="71" viewBox="0 0 71 71" fill="none" xmlns="http://www.w3.org/2000/svg">
<g clip-path="url(#clip0)">
<path d="M67.8964 28.4031C67.7581 28.0833 67.4842 27.8418 67.1495 27.7446C66.8148 27.6473 66.4542 27.7045 66.166 27.9004C62.3923 30.7079 58.0102 32.5865 53.3748 33.384C47.0962 34.4012 41.5074 35.6172 36.6668 40.2005C35.4863 41.3338 34.4779 42.6337 33.6736 44.0589C32.6099 41.9784 31.2072 40.0897 29.523 38.47C25.2787 34.5298 20.368 33.4775 14.8611 32.624C10.8336 31.9533 7.01818 30.3519 3.71849 27.9472C3.43025 27.7512 3.06964 27.6941 2.73496 27.7913C2.40028 27.8886 2.12642 28.13 1.98806 28.4499C-3.54231 41.3112 2.65451 59.1534 17.2696 63.7016C22.0234 65.068 27.0546 65.1487 31.8497 63.9354C32.3842 63.8035 32.7543 63.3166 32.7383 62.7662C32.7383 55.3067 33.4398 50.6064 34.6909 47.3327L34.761 47.169C35.5131 45.1669 36.7128 43.3632 38.2687 41.8958C42.6064 37.7685 47.8328 36.6461 53.7256 35.6873C58.2111 34.932 62.4794 33.2127 66.2362 30.648C71.7548 46.2687 62.8454 70.0621 37.4151 68.6123C41.469 60.5985 47.5067 53.7559 54.9533 48.7357C55.3205 48.5078 55.5321 48.0958 55.5033 47.6646C55.4746 47.2333 55.2103 46.853 54.8161 46.6758C54.4218 46.4986 53.962 46.5534 53.6204 46.8182C39.2859 56.6396 34.7844 68.6824 34.5973 69.1852C34.4726 69.5248 34.512 69.9029 34.7041 70.2094C34.8963 70.5159 35.2195 70.7163 35.5795 70.7519C40.6141 71.2852 45.7046 70.7758 50.5337 69.2553C67.0663 63.9939 74.1985 43.3807 67.8964 28.4031ZM30.3999 59.3638C28.611 56.4525 23.9809 50.3258 14.7091 44.0589C14.1731 43.6973 13.4455 43.8386 13.0839 44.3746C12.7222 44.9105 12.8636 45.6381 13.3995 45.9998C24.811 53.7633 28.9267 61.3515 29.3125 62.0764C8.78117 65.4788 -1.50788 45.2281 3.62495 30.6246C6.90024 32.8025 10.6039 34.2537 14.4869 34.8806C19.7951 35.7224 24.168 36.6578 27.9211 40.1537C29.8679 42.0406 31.3904 44.3205 32.3875 46.8416C31.0717 50.8854 30.4009 55.1113 30.3999 59.3638Z" fill="url(#paint0_linear)"/>
<path d="M34.2478 36.6929C34.4673 36.9142 34.7661 37.0387 35.0779 37.0387C35.3896 37.0387 35.6885 36.9142 35.908 36.6929L51.5521 20.8734C58.8012 13.5542 53.7853 0.798096 43.2624 0.798096C40.1734 0.818737 37.2231 2.08316 35.0779 4.30573C32.9082 2.09767 29.9423 0.853928 26.8466 0.853928C23.751 0.853928 20.7851 2.09767 18.6154 4.30573C14.0657 8.91402 14.0657 16.3236 18.6154 20.9319L34.2478 36.6929ZM20.2757 5.89585C22.0099 4.13273 24.3794 3.13975 26.8525 3.13975C29.3256 3.13975 31.6951 4.13273 33.4293 5.89585L34.2478 6.7143C34.4673 6.93565 34.7661 7.06015 35.0779 7.06015C35.3896 7.06015 35.6885 6.93565 35.908 6.7143L36.7382 5.88416C39.4292 3.26472 43.426 2.50874 46.8879 3.96435C50.3498 5.41997 52.6054 8.80492 52.616 12.5604C52.6258 15.0549 51.6461 17.4515 49.8918 19.2248L35.0779 34.2141L20.2757 19.2248C16.6263 15.5312 16.6263 9.58947 20.2757 5.89585Z" fill="url(#paint1_linear)"/>
<path d="M22.2157 17.284C22.6544 17.2807 23.0544 17.0322 23.2515 16.6403C23.4487 16.2484 23.4099 15.7791 23.1511 15.4249C21.7544 13.5188 21.9424 10.8818 23.5954 9.19304C23.8899 8.89646 24.0038 8.4653 23.8942 8.06197C23.7846 7.65865 23.4681 7.34443 23.064 7.23768C22.6599 7.13093 22.2296 7.24787 21.9351 7.54445C19.4755 10.0576 19.1983 13.9824 21.2804 16.8163C21.5012 17.1107 21.8477 17.284 22.2157 17.284Z" fill="url(#paint2_linear)"/>
<path d="M26.8919 7.8134C27.2066 7.8131 27.5204 7.8484 27.8272 7.91863C28.473 8.05424 29.1064 7.64069 29.242 6.99496C29.3776 6.34922 28.964 5.71582 28.3183 5.58021C27.847 5.50222 27.3695 5.467 26.8919 5.47498C26.2461 5.47498 25.7227 5.99846 25.7227 6.64419C25.7227 7.28993 26.2461 7.8134 26.8919 7.8134Z" fill="url(#paint3_linear)"/>
</g>
<defs>
<linearGradient id="paint0_linear" x1="35.0775" y1="27.6981" x2="35.0775" y2="70.957" gradientUnits="userSpaceOnUse">
<stop stop-color="#987531"/>
<stop offset="1" stop-color="#DECAA1"/>
</linearGradient>
<linearGradient id="paint1_linear" x1="35.0843" y1="0.798096" x2="35.0843" y2="37.0387" gradientUnits="userSpaceOnUse">
<stop stop-color="#987531"/>
<stop offset="1" stop-color="#DECAA1"/>
</linearGradient>
<linearGradient id="paint2_linear" x1="21.9109" y1="7.19885" x2="21.9109" y2="17.284" gradientUnits="userSpaceOnUse">
<stop stop-color="#987531"/>
<stop offset="1" stop-color="#DECAA1"/>
</linearGradient>
<linearGradient id="paint3_linear" x1="27.4952" y1="5.47388" x2="27.4952" y2="7.94438" gradientUnits="userSpaceOnUse">
<stop stop-color="#987531"/>
<stop offset="1" stop-color="#DECAA1"/>
</linearGradient>
<clipPath id="clip0">
<rect width="70.1526" height="70.1526" fill="white" transform="translate(0 0.797974)"/>
</clipPath>
</defs>
</svg>
